<svg xmlns="http://www.w3.org/2000/svg" viewBox="0 0 253.107 61.942">
    <defs>
        <style>
            .cls-1{isolation:isolate}.cls-2{fill:#41403d}
        </style>
    </defs>
    <g id="catadromous-logo" class="cls-1" transform="translate(-232.199 -1426.488)">
        <g id="组_151" class="cls-1">
            <path id="路径_3536" d="M232.648 1453.529a1.835 1.835 0 0 1 .13-2.535c3.316-3.769 4.421-8.97 4.421-18.785a2.775 2.775 0 0 1 3.12-2.99 2.725 2.725 0 0 1 2.86 1.69 61.487 61.487 0 0 0 12.675-3.25c1.951-.716 3.641-.39 4.226 1.3.649 1.885.13 3.445-2.211 3.965a81.116 81.116 0 0 1-14.495 1.3l-.195 3.185h16.446a1.983 1.983 0 1 1 0 3.965h-4.745v6.176a3.025 3.025 0 0 1-6.046 0v-6.176h-6.175c-1.1 5.915-3.511 9.686-7.28 12.221-1.106.78-2.079.78-2.731-.066zm55.448 33.022c-.91 1.95-2.731 2.34-4.68 1.365-4.94-2.47-11.311-5.136-16.706-7.216a2 2 0 0 1-1.235-2.6 1.82 1.82 0 0 1 .52-.781H255.6a3.72 3.72 0 0 1 .455.585c1.1 1.625.779 3.446-1.365 4.551a65.623 65.623 0 0 1-19.7 5.59c-1.234.13-1.949-.39-2.08-1.365a1.688 1.688 0 0 1 1.365-2.21 79.037 79.037 0 0 0 16.836-7.151h-7.345a3.117 3.117 0 0 1-3.445-3.445v-19.11a3.118 3.118 0 0 1 3.445-3.446h34.644a3.118 3.118 0 0 1 3.445 3.446v19.11a3.117 3.117 0 0 1-3.445 3.445h-8.97a86.483 86.483 0 0 1 16.9 4.941c2.081.84 2.536 2.406 1.76 4.291zm-41.147-27.822h28.277V1456a.752.752 0 0 0-.781-.78h-26.716a.751.751 0 0 0-.78.78zm0 7.151h28.277v-3.38h-28.277zm.78 7.475h26.716a.752.752 0 0 0 .781-.78v-2.86h-28.277v2.86a.751.751 0 0 0 .78.78zm41.472-34a1.817 1.817 0 0 1-2.015 2.015h-6.566v6.11a2.687 2.687 0 0 1-2.99 2.925c-1.949 0-3.055-1.04-3.055-2.925v-6.11h-6.565a13.6 13.6 0 0 1-6.955 9.1 1.731 1.731 0 0 1-2.535-.39 1.789 1.789 0 0 1 .325-2.471c3.184-3.12 4.094-6.5 4.03-15.47 0-1.885 1.1-2.925 3.12-2.925a2.615 2.615 0 0 1 2.8 1.69 60.9 60.9 0 0 0 12.61-3.25c1.885-.716 3.576-.39 4.29 1.364.651 1.821.066 3.381-2.21 3.9a81.682 81.682 0 0 1-14.56 1.235 24.963 24.963 0 0 1-.2 3.25h18.461a1.829 1.829 0 0 1 2.014 1.956z" class="cls-2"/>
            <path id="路径_3537" d="M296.934 1450.409a2.068 2.068 0 0 1 2.275-2.21h23.336v-3.835h-15.536a1.9 1.9 0 0 1-2.145-2.144 1.923 1.923 0 0 1 2.145-2.146h15.536v-3.51H303.3a2.178 2.178 0 0 1 0-4.355h19.241v-2.409c0-2.145 1.234-3.316 3.51-3.316s3.509 1.171 3.509 3.316v2.405h19.18a1.923 1.923 0 0 1 2.146 2.145 1.943 1.943 0 0 1-2.146 2.21h-19.176v3.51H345.3a1.922 1.922 0 0 1 2.144 2.146 1.9 1.9 0 0 1-2.144 2.144h-15.736v3.835h23.4a2.243 2.243 0 0 1 0 4.486h-53.755a2.085 2.085 0 0 1-2.275-2.272zm9.685 34.321v-24.96a3.118 3.118 0 0 1 3.445-3.445h32.112a3.117 3.117 0 0 1 3.444 3.445v22.166c0 6.435-6.37 7.865-16.12 3.77a1.6 1.6 0 0 1-1.04-2.145 1.679 1.679 0 0 1 2.08-1.17c7.8.91 8.32.65 8.32-1.755v-3.965h-25.481v8.059c0 2.21-1.234 3.316-3.38 3.316-2.21 0-3.38-1.106-3.38-3.316zm32.241-20.28v-2.99a.751.751 0 0 0-.78-.78h-23.921a.751.751 0 0 0-.78.78v2.99zm0 8.125v-3.965h-25.481v3.965z" class="cls-2"/>
            <path id="路径_3538" d="M362.519 1445.145a1.845 1.845 0 0 1-.326-2.471c.585-.845 1.366-.909 2.406-.52a48.389 48.389 0 0 1 9.425 5.4 3.321 3.321 0 0 1 .715 5.264c-1.56 1.951-3.38 1.625-5.07-.325a63.6 63.6 0 0 0-7.15-7.348zm13.456-6.956c-1.626 1.69-3.316 1.365-4.876-.585-2.08-2.535-4.355-5.2-6.111-7.15a1.728 1.728 0 0 1 2.08-2.73 39.174 39.174 0 0 1 8.516 5.33 3.172 3.172 0 0 1 .391 5.135zm.259 21.256c-.91 6.565-2.47 15.406-4.1 22.165-.65 2.8-2.535 3.836-4.94 2.861-2.47-.975-3.251-2.991-1.95-5.46a158.186 158.186 0 0 0 7.8-20.411 1.637 1.637 0 0 1 2.015-1.3q1.372.39 1.175 2.145zm40.822-24.831v50.312c0 2.145-1.17 3.25-3.316 3.25a2.917 2.917 0 0 1-3.25-3.25v-2.146h-24.831v2.211c0 2.08-1.1 3.185-3.25 3.185a2.9 2.9 0 0 1-3.25-3.185v-50.377a3.118 3.118 0 0 1 3.445-3.445h31.006a3.118 3.118 0 0 1 3.446 3.445zm-6.566 44.2v-42.9a.751.751 0 0 0-.78-.78h-23.271a.751.751 0 0 0-.78.78v42.9zm-4.224-31.4v17.886a3.118 3.118 0 0 1-3.446 3.445h-9.3a3.117 3.117 0 0 1-3.444-3.445v-17.876a3.116 3.116 0 0 1 3.444-3.444h9.3a3.118 3.118 0 0 1 3.446 3.439zm-5.786 1.235a.751.751 0 0 0-.78-.78h-3.055a.75.75 0 0 0-.78.78v15.341a.75.75 0 0 0 .78.78h3.055a.751.751 0 0 0 .78-.78z" class="cls-2"/>
            <path id="路径_3539" d="M427 1446.314a1.944 1.944 0 0 1-.391-2.535c.521-.78 1.3-.844 2.34-.389a50.963 50.963 0 0 1 8.906 5.134c1.885 1.3 2.21 2.991.78 4.746s-3.12 1.69-4.68-.13c-2.146-2.34-4.746-4.875-6.955-6.826zm12.35 13.781a124.733 124.733 0 0 1-5.72 22.946c-.91 2.535-2.731 3.575-4.941 2.535-2.274-1.04-2.729-2.99-1.495-5.33a152.714 152.714 0 0 0 8.776-20.866c.455-1.17 1.04-1.625 2.21-1.365.974.195 1.364.975 1.169 2.08zm-10.986-28.8a1.728 1.728 0 0 1-.194-2.34 1.613 1.613 0 0 1 2.21-.455 41.2 41.2 0 0 1 8.19 5.4c1.755 1.43 1.82 3.12.39 4.68-1.5 1.625-3.25 1.561-4.68-.325-2.08-2.536-4.226-5.071-5.917-6.955zm31.982 24.44c-.39 13.2-.781 20.411-1.43 25.612-.78 6.11-4.551 7.8-13.456 4.16a1.582 1.582 0 0 1-.91-2.08c.195-.845.78-1.236 1.886-1.1 5.589.845 6.37.585 6.7-2.405.519-4.03 1.04-12.155 1.3-23.076a.738.738 0 0 0-.781-.845h-3.515c-.976 13.78-3.835 23.726-10.531 31.006q-1.365 1.365-2.535.39a1.927 1.927 0 0 1-.325-2.6c5.525-8.971 7.865-22.621 7.67-41.082h-4.225a1.846 1.846 0 0 1-2.015-2.015 1.782 1.782 0 0 1 2.015-1.885h5.526v-9.49a2.994 2.994 0 0 1 3.314-3.251 3.045 3.045 0 0 1 3.381 3.251v9.49h6.694a1.782 1.782 0 0 1 2.016 1.885 1.817 1.817 0 0 1-2.016 2.015H450.6q0 4.389-.2 8.386h6.5c2.209-.001 3.51 1.234 3.445 3.638zm-.39-5.654c-.846-.455-1.04-1.3-.52-2.471 2.145-4.55 3.705-11.505 4.55-17.68.325-2.34 1.56-3.121 3.77-2.861 2.145.261 3.185 1.691 2.6 4.16-.39 1.691-.845 3.381-1.365 4.941h13.651a1.779 1.779 0 0 1 1.95 1.95 1.8 1.8 0 0 1-1.95 2.016h-15.08a47.775 47.775 0 0 1-5.136 9.229 1.707 1.707 0 0 1-2.471.72zm25.351 14.69a1.8 1.8 0 0 1-2.015 1.951h-7.02v15.924c0 5.071-5.071 7.541-13.521 3.186a1.761 1.761 0 0 1-1.04-2.21c.325-.846 1.04-1.04 2.21-.91 5.46.65 6.11.455 6.11-2.016v-13.974h-6.955a1.779 1.779 0 0 1-1.95-1.951 1.75 1.75 0 0 1 1.95-1.95h6.955v-5.136a2.792 2.792 0 0 1 3.12-3.054 3.433 3.433 0 0 1 .845.065 24.789 24.789 0 0 0 2.341-4.1c.194-.455.064-.844-.521-.844H466.2a1.829 1.829 0 0 1-1.95-2.016 1.761 1.761 0 0 1 1.95-1.885h13.781c3.054 0 3.77 2.6 2.275 4.811a34.06 34.06 0 0 1-5.98 7.019v5.136h7.02a1.8 1.8 0 0 1 2.01 1.958z" class="cls-2"/>
        </g>
    </g>
</svg>
