<svg xmlns="http://www.w3.org/2000/svg" viewBox="0 0 32 32">
    <g opacity="0.8">
        <path fill="none" d="M0 0H32V32H0z" transform="translate(-0.223 1) translate(0.223 -1)"/>
        <g>
            <g>
                <g>
                    <path fill="#41403d" stroke="rgba(0,0,0,0)" d="M10.035 20.234a.353.353 0 0 1-.286-.11.778.778 0 0 1-.053-.59v-.022l.151-.909a2.042 2.042 0 0 0-.034-.961c-.117-.29-.574-.445-.936-.523C3.735 16.441 0 12.865 0 8.618 0 3.866 4.764 0 10.62 0s10.62 3.866 10.62 8.618a7.7 7.7 0 0 1-2.277 5.3 33.92 33.92 0 0 1-8.343 6.166 1.608 1.608 0 0 1-.585.146zm4.692-13.912a.209.209 0 0 0-.144.058l-.006.006a.206.206 0 0 0-.058.142v4.627a.209.209 0 0 0 .058.144l.006.006a.2.2 0 0 0 .143.058H17.7a.208.208 0 0 0 .207-.207v-.743a.207.207 0 0 0-.207-.206h-2.021v-.786H17.7a.207.207 0 0 0 .207-.206v-.743a.208.208 0 0 0-.207-.207h-2.021v-.784H17.7a.207.207 0 0 0 .207-.206v-.743a.208.208 0 0 0-.207-.207zM10.55 8.407l2.121 2.864a.219.219 0 0 0 .053.052l.015.009h.049a.186.186 0 0 0 .053.007h.743a.207.207 0 0 0 .206-.206V6.529a.207.207 0 0 0-.206-.206h-.743a.207.207 0 0 0-.206.206v2.753l-2.118-2.868-.009-.014-.008-.008-.008-.008-.007-.006h-.022l-.011-.006H9.6a.207.207 0 0 0-.207.206v4.583a.207.207 0 0 0 .207.206h.743a.207.207 0 0 0 .207-.206V8.408zM7.717 6.322a.207.207 0 0 0-.207.206v4.629a.207.207 0 0 0 .207.206h.743a.207.207 0 0 0 .206-.206V6.529a.207.207 0 0 0-.206-.206zm-4.026 0a.207.207 0 0 0-.207.206v4.627a.211.211 0 0 0 .058.144l.006.006a.206.206 0 0 0 .143.058h2.975a.207.207 0 0 0 .207-.207v-.743a.207.207 0 0 0-.207-.206H4.641V6.529a.207.207 0 0 0-.207-.206z" transform="translate(-0.223 1) translate(5.223 5)"/>
                </g>
            </g>
        </g>
    </g>
</svg>
