<svg xmlns="http://www.w3.org/2000/svg" viewBox="0 0 32 32">
    <g opacity="0.8">
        <path fill="none" d="M0 0H32V32H0z" transform="translate(0 -4) translate(0 4)"/>
        <path fill="#41403d" d="M18.841 52.333c.013.187.013.373.013.56A12.162 12.162 0 0 1 6.609 65.138 12.163 12.163 0 0 1 0 63.206a8.9 8.9 0 0 0 1.039.053 8.62 8.62 0 0 0 5.344-1.839 4.312 4.312 0 0 1-4.024-2.985 5.429 5.429 0 0 0 .813.067 4.552 4.552 0 0 0 1.128-.146 4.3 4.3 0 0 1-3.447-4.224v-.053a4.335 4.335 0 0 0 1.945.546 4.31 4.31 0 0 1-1.332-5.756 12.234 12.234 0 0 0 8.874 4.5 4.859 4.859 0 0 1-.107-.986 4.308 4.308 0 0 1 7.449-2.945 8.473 8.473 0 0 0 2.732-1.038 4.292 4.292 0 0 1-1.892 2.372A8.628 8.628 0 0 0 21 50.107a9.252 9.252 0 0 1-2.159 2.226z" transform="translate(0 -4) translate(5.515 -36.786)"/>
    </g>
</svg>
