<svg xmlns="http://www.w3.org/2000/svg" id="udn-logo" viewBox="0 0 90.238 17.682">
    <defs>
        <style>
            .cls-1{fill:#c3100a}
        </style>
    </defs>
    <path id="路径_1" d="M558.12 248.275a5.017 5.017 0 0 1-1.292.063.334.334 0 0 1-.306-.39 16.123 16.123 0 0 1 .43-2.44c.166-.348.266-.369.472-.409 0 0 .226.021.657.021a7.541 7.541 0 0 0 1.208-.185c.39-.061.287.409.287.409a12.093 12.093 0 0 0-1.087 1.559 6.043 6.043 0 0 0-.267 1.25c-.082.164.1.082-.1.122m-8.058.206c-.266.185-1.047.082-1.557.082a12.289 12.289 0 0 0-1.479.185.539.539 0 0 1-.615-.409 1.382 1.382 0 0 1 .042-.923.854.854 0 0 1 .881-.491s2.071-.021 2.522.019.451.247.472.617 0 .738-.266.921m19.11 4.164a18.067 18.067 0 0 1-2.255.267 8.737 8.737 0 0 1-3.508-.512 19.8 19.8 0 0 1-4.8-1.93 1.4 1.4 0 0 1-.329-.839c0-.327.453-.285.656-.308a24.573 24.573 0 0 1 2.482-.04 2.08 2.08 0 0 0 1.7-.164c.8-.453 1.068-1.149.679-1.458a1.37 1.37 0 0 0-1.743-.327 10.6 10.6 0 0 1-2.5.86s-.638.042-.6-.43.554-.718 1.19-1.045 2.153-1.456 2.952-1.844.725-.893.061-1.6c-.573-.615-.879-.245-1.5-.287s-1.62.225-2.748.164-2.508-.129-2.508-.129c-.491-.055-.984-.354-1.422.219a2.236 2.236 0 0 0-.272 1.7l.025.586v-.108c-.063.257-.112.253-.219.32a.464.464 0 0 0-.246-.186 4.118 4.118 0 0 0-1.69-.2c-.451.04-1.148.061-1.7.082s-.946.04-1.068-.267a1.126 1.126 0 0 1 .1-.942c.143-.206.965-.145 1.477-.1a1.949 1.949 0 0 0 1.517-.43c.266-.348-.061-1.064-.533-1.351s-.535-.126-1.028-.042a5.265 5.265 0 0 1-1.249.122c-.226-.04-.247-.265-.247-.594s.206-1.106-.2-1.517-.43-.512-.883-.493l-.2.042a.618.618 0 0 0-.529.365c-.184.3-.276.369-.276.624a3.623 3.623 0 0 0 .091.853.717.717 0 0 1-.116.761c-.23.23-.392.185-.759.116a5.4 5.4 0 0 0-1.524-.07c-.484.07-.784-.025-.944.07a3.847 3.847 0 0 1-.693.369c-.324.114-.483.253-.483.506 0 0-.069.093.046.23s.162.023.208.255.093.162.207.276a.744.744 0 0 0 .577.3 11.618 11.618 0 0 0 1.823-.07 6.418 6.418 0 0 1 1.106-.253c.324.023.807.07.714.6s-.091.738-.506.786-1.174.023-1.359.089a.874.874 0 0 1-.369.116c-.226.021-1.189.061-1.54.061a4.264 4.264 0 0 1-1.312-.244 1.532 1.532 0 0 0-1.148-.186 8.692 8.692 0 0 1-.862.186c-.327.08-.923.407-.984.8a1.849 1.849 0 0 0 .185.965 1.226 1.226 0 0 0 1.292.451c.552-.206 1.66-.451 2.255-.615s.718-.266 1.188-.042a1.02 1.02 0 0 1 .7.881c.061.43-.1.944-.923.944a5.577 5.577 0 0 0-1.968.124c-.7.225-1.066.43-1.045.738s.246.367.533.449a11.635 11.635 0 0 0 3.034-.124 7.751 7.751 0 0 1 1.886-.164c.39 0 .841-.019.986.329a.644.644 0 0 1-.371.9 6.205 6.205 0 0 1-1.783.1c-.575.021-1.783.021-2.767.145a3.508 3.508 0 0 0-1.928.573.47.47 0 0 0 0 .8 1.5 1.5 0 0 1 .369.411 2.206 2.206 0 0 0 1.62.1 4.4 4.4 0 0 1 1.108-.35c.327-.04 1.661-.267 2.421-.287s1.127.042 1.085.617-.493 1.066-1.6 1.19-1.416-.023-2.071.061a6.457 6.457 0 0 0-2.133.778.875.875 0 0 0-.306 1.273c.348.716.963.982 2.11.777a13.6 13.6 0 0 0 4.553-1.681c.862-.717 1-1.477 1.25-2.767 0 0 0-.453.615-.43s2.195.122 2.585.164.472-.084.678-.493.183-.82-.7-.923a5.183 5.183 0 0 0-1.538 0 3.655 3.655 0 0 1-1.045-.061c-.35-.061-.575-.246-.6-.575s.042-.615.327-.636 1.54-.1 1.991-.082.8.166 1.087.166.472-.267.573-.453a1.349 1.349 0 0 0 0-.757c-.042-.145-.266-.164-.512-.164a4.252 4.252 0 0 1-1.026 0c-.39-.082-.655-.145-.655-.7s.059-1.106.348-1.188 1.332-.021 1.62-.082a2.4 2.4 0 0 0 .976-.461c.179-.027.192.11.314.343a2.6 2.6 0 0 1 .124.917c0 .381-.012.756-.034 1.091-.08 1.283-.055 3.715-.164 4.237a7.678 7.678 0 0 0-.274 2.105c.027.955.329 1.311.822 1.367s.874-.329 1.011-1.148a13.654 13.654 0 0 0 .135-2.706c-.053-.6.055-1.34.358-1.368s.573-.164.874.245a19.64 19.64 0 0 0 5.167 3.883 4.59 4.59 0 0 0 2.16.683 5.323 5.323 0 0 0 1.367-.333 3.925 3.925 0 0 0 2.379-1.361 2.1 2.1 0 0 0 .957-1.176s.375-.562-.364-.436" class="cls-1" transform="translate(-479.394 -239.805)"/>
    <path id="路径_2" d="M362.894 262.559a2.182 2.182 0 0 0-.027 1.148c.11.409.712.354 2.434.137s5.767-.274 6.667-.247a7.335 7.335 0 0 0 2.133.11c.63-.192.546-.738.546-1.039s.11-.438-.3-.683a17.037 17.037 0 0 0-3.635-.11c-.82 0-5.03.356-5.8.44a12.8 12.8 0 0 0-1.776.08.383.383 0 0 0-.247.166m1.5-4.022a5.5 5.5 0 0 0-1.089 1.261c-.053.11-.518.383-.436.712s.63.135.984.135a8.488 8.488 0 0 0 2.187.139c1.559-.082 3.746-.1 4.674-.285a6.812 6.812 0 0 1 2.05-.126 2.846 2.846 0 0 1 1.2.308 2.031 2.031 0 0 0 1.313-.2c.19-.164 0-.52 0-.52-.356-.3-2.488-1.585-2.9-1.8s-.617-.287-.773-.171c-.082.061.1.335.1.335.219.3.135.957-.246 1.039a8.038 8.038 0 0 1-1.654.082c-.491-.029-3.281.082-3.69.165s-.573.107-.819-.11-.078-.6-.221-.959c-.053-.135-.354-.162-.683 0m1.306-.982c-.306.573 1.1.381 1.1.381.927-.135 2.87-.027 3.441-.053s.577-.082.577-.274a.634.634 0 0 0-.208-.5 13.1 13.1 0 0 0-1.159-.7 1.8 1.8 0 0 0-1.4-.327 2.845 2.845 0 0 0-1.886 1.068zm1.757-4.594c.19-.573.931-1.313 1.7.137a8.186 8.186 0 0 0 4.071 3.964c2.189.957 3.61 1.694 5.2 1.586a22.257 22.257 0 0 0 2.543-.192 10.3 10.3 0 0 0 1.066-.436c.192-.055.575-.164.71.082a.775.775 0 0 1 .028.738 12.046 12.046 0 0 1-.767 1.2c-.19.358-1.148 1.587-2.077 1.506s-1.7-.383-2.052-.411a.506.506 0 0 0-.6.575 18.31 18.31 0 0 1 .3 2.078c.028.737.028 2.133-1.94 1.941s-2.326-.3-3.555-.384a43.457 43.457 0 0 0-5.767.11c-2.627.19-4.02.3-4.539.356s-1.53.11-1.694-.931a12.3 12.3 0 0 1 .027-1.694 5.283 5.283 0 0 1 .438-1.313s0-.464-.274-.383-1.776.683-2.569.847-2.488.464-3.089-.354a4.142 4.142 0 0 1-1.039-3.281s.027-1.011.657-.657a7.426 7.426 0 0 0 2.486 1.422 6.009 6.009 0 0 0 5.607-1.092 18.153 18.153 0 0 0 4.893-4.813z" class="cls-1" transform="translate(-323.712 -250.204)"/>
    <path id="路径_3" d="M191.634 267.536c-.1.411-.31 1.231.512 1.517s1.313-.021 1.473-.757a4.961 4.961 0 0 0-.059-2.358 7.515 7.515 0 0 0-.409-.718c-.065-.166-.145-.39-.453-.145a2.4 2.4 0 0 0-.82.944c-.082.327-.141 1.108-.244 1.517m5.432-5.127c0 .268-.266.268-.493.246s-1.311.044-1.618.044a.328.328 0 0 1-.346-.411 2.638 2.638 0 0 1 .221-1.005.966.966 0 0 1 .658-.411s.634 0 .881-.019.306.185.43.327a3.623 3.623 0 0 1 .266 1.23m-.143-3.464c.04.245-.124.348-.35.348a11.211 11.211 0 0 1-1.825-.019c-.468-.1-.328-.556-.287-.822a1.191 1.191 0 0 1 .369-.779 1.649 1.649 0 0 1 .8-.2s.577.059.719.082a.863.863 0 0 1 .449.407 9.3 9.3 0 0 1 .124.986m-3.529 2.194a6.687 6.687 0 0 1-.592.533 4.317 4.317 0 0 0-1.127 1.087c-.128.287-.289.554-.493.512s-.371-.266-.535-.841-.86-1.024-.965-1.23 0-.308.228-.369a7.783 7.783 0 0 1 1.106-.245s.489.019.984.019 1.085-.082 1.332-.04.226.451.061.575m-4.284 1.29c-.082.329-.533.39-.82.411s-.554.082-1.191.122-.716-.348-.735-.47a1.1 1.1 0 0 1 .921-1.332h.327a4.243 4.243 0 0 1 1.089.2c.533.166.491.738.409 1.066m-.35-3.137c-.042.388-.042.573-.449.615a10.278 10.278 0 0 0-1.313.1c-.489.1-.82.082-.942-.245a1.784 1.784 0 0 1 .061-1.15 2.013 2.013 0 0 1 .554-.409 1.258 1.258 0 0 1 1.332 0c.514.369.8.7.758 1.087m-3.548 2.482a.73.73 0 0 1-.367.655 7.494 7.494 0 0 0-1.026.678c-.284.184-.779.1-.862-.185a4.234 4.234 0 0 1 0-1.517.456.456 0 0 1 .636-.245s.268.061.453.122.39-.04.78-.04.346.388.386.533m-4.631 2.664c-.209.409-.78.226-1.03.185s-1.249.021-1.7.021-1.332.164-1.7.185a1.7 1.7 0 0 1-1.047-.164 1.143 1.143 0 0 1-.1-1c.1-.266.428-.185.86-.206 0 0 1.273-.019 1.886-.019s1.722-.021 1.722-.021a1.368 1.368 0 0 1 .862-.021.775.775 0 0 1 .247 1.045m.019-5.023c-.084.369-.306.472-.82.449s-2.031.063-2.4.082a8.563 8.563 0 0 1-1.517.124c-.451-.061-.594-.265-.594-.451s-.124-.819.2-1.127.906.04 1.191.082a3.053 3.053 0 0 0 .617.04c.451 0 2.682-.061 2.992-.04s.413.472.329.841m-5.046 1.886s1.334-.021 1.662-.04 2.154-.124 2.3-.124.061.061.554.164.43.185.514.778-.247.6-.679.573a1.346 1.346 0 0 1-.718-.162 4.35 4.35 0 0 0-1.313-.021c-.51.021-1.681.1-2.13.164s-.493.082-.68-.164a.984.984 0 0 1-.141-.819c.061-.268.409-.329.634-.35m22.864-.205c-.185-.554.162-.512.268-.533s.777 0 .986 0 .839-.39.51-.883a26.7 26.7 0 0 0-2.32-2.95c-.615-.575-1.389-1.13-1.6-1.313s-.341-.137-.942.2a8.614 8.614 0 0 0-2.153 1.806c-.143.143-.9 1.024-1.085 1.169s-.556.7-.678.778a.6.6 0 0 1-.719-.082 3.88 3.88 0 0 1-.411-.944 5.426 5.426 0 0 0-1-1.66c-.514-.493-.923-.965-1.578-.965s-.761.226-1.188.6-1.191 1.231-1.5 1.517-.413.615-.78.636-.514 0-.638-.575-.162-1.024-.942-1.208a7.188 7.188 0 0 0-2.236-.124c-.223 0-3.63-.019-4.633-.122h-.451c-.738-.042-2.09-.424-2.284.723a22.161 22.161 0 0 0-.053 2.925 26.168 26.168 0 0 1-.436 4.1c-.384 1.8.847 2.379 1.612 2.324s.986-.219 2.187-.3a22.239 22.239 0 0 1 3.144-.082.6.6 0 0 1-.082 1.148 23.752 23.752 0 0 1-3.666.63c-1.064.164-2.021.19-2.484.71a1.031 1.031 0 0 0 .571 1.614 6.08 6.08 0 0 0 2.134-.521c.546-.19 2.512-.436 3.8-.737s2.571-.438 2.954-2.488c0 0 .082-1.232.3-1.422a4.218 4.218 0 0 1 1.475-.411c.217 0 .409 0 .409.329a1.546 1.546 0 0 1-.382 1.066.9.9 0 0 1-.28.52c-.225.162-.758.307-.638.819s.659 1.191 1.212 1.129a2.265 2.265 0 0 0 1.29-.738c.143-.2-.061-.512-.223-.757a4.186 4.186 0 0 1-.537-1.108c-.017-.225-.145-.615-.017-.862a.856.856 0 0 1 .8-.615 14.976 14.976 0 0 1 2.44-.122.435.435 0 0 1 .369.615 8.338 8.338 0 0 1-.719 1.6c-.284.43-.573.984-.284 1.416a.974.974 0 0 0 1.391.348c.472-.39.577-.554.514-1.066a5.72 5.72 0 0 0-.265-1.4 2.053 2.053 0 0 1-.042-.923c0-.185.156-.308.4-.43.124-.061.449.032.59-.124a.648.648 0 0 1 .617-.343c.131 0 .285.287.518.274a4.04 4.04 0 0 1 .451.055c.116 0 .257-.063.384-.055.443.028.529-.143.893-.2.261-.04.645-.029.944-.04a16.228 16.228 0 0 1 2.094-.124 5.757 5.757 0 0 0 1.045.246 10.561 10.561 0 0 0 1.087.021 5.451 5.451 0 0 0 1.374.266c.267-.084.47-.2.327-.6a5.109 5.109 0 0 0-1.024-1.557 2.517 2.517 0 0 1-.822-1.21m1.865 5.167a9.052 9.052 0 0 0-1.248-.1 3.9 3.9 0 0 1-1.028-.2c-.348-.1-.879-.287-1.066-.369s-.369-.186-.369-.186c-.223-.2-.365-.43-.468-.143s.059.984-.065 1.456a5.5 5.5 0 0 0-.226 1.456 1.573 1.573 0 0 0 .432.984 2.218 2.218 0 0 0 2.6-.533 5.92 5.92 0 0 0 1.6-1.949c.082-.246.063-.348-.166-.409" class="cls-1" transform="translate(-172.485 -252.756)"/>
</svg>
