<svg xmlns="http://www.w3.org/2000/svg" viewBox="0 0 187.918 229.744">
    <defs>
        <style>
            .cls-1{fill:#fdf0e3}.cls-2{fill:#b4885b}.cls-3{fill:#eb6b54}.cls-4{fill:#fdfdfd}
        </style>
    </defs>
    <g id="map-south" transform="translate(-797.528 -549.094)">
        <path id="路径_1897" d="M1098.509 711.484c1.41 3.626.652 7.42.882 11.139.281 4.561.093 9.136.361 13.684.113 1.922-.337 3.828.137 5.771.358 1.467-.324 1.947-1.722 1.479a6.384 6.384 0 0 1-4.547-4.609 45.786 45.786 0 0 1-1.261-9.546 22.152 22.152 0 0 1 2.95-11.569 28.054 28.054 0 0 0 2.069-6.34 3.188 3.188 0 0 1 1.131-.009z" class="cls-1" transform="translate(-118.801 -65.421)"/>
        <path id="路径_1898" d="M933.365 879.125c-.219.093-.443.279-.655.266-2.448-.147-2.9 1.729-3.357 3.434a70.89 70.89 0 0 1-3.321 8.772c-.446 1.069-1.045 1.75-2.214 1.533-2.34-.435-3.48.9-4.413 2.728-.713 1.394-1.524 2.739-2.322 4.087a3.227 3.227 0 0 1-.825.966c-.827.6-1.416.283-1.481-.75-.02-.33 0-.662 0-1.13a3.915 3.915 0 0 0-1.764 1.637 1.793 1.793 0 0 1-1.9.995 1.619 1.619 0 0 1-1.216-1.855c.026-.367.11-.878-.331-1-.5-.135-.511.448-.707.735-.407.6-.539 1.736-1.444 1.487-.788-.217-1.091-1.182-1.244-2.075-.676-3.948-.087-7.842.423-11.742a4.536 4.536 0 0 0 .148-.835c-.036-.543.3-1.295-.32-1.564-.531-.231-.653.532-.971.841a1.788 1.788 0 0 1-2.592-.4 2.985 2.985 0 0 1-.361-1.221c-.073-3.786.589-7.374 3.073-10.4.742-.9 1.924-1.179 2.884-1.778 2.605-1.625 5.617-2.287 8.413-3.467.9-.378 1.837.229 2.8.181 2.613-.131 5.132-.063 7.479 1.594 1.566 1.106 3.559 1.608 5.361 2.381 2.215 1.786 2.413 2.461 1.318 4.959-.232.531-.186 1.117-.461 1.621z" class="cls-1" transform="translate(-42.3 -128.619)"/>
        <path id="路径_1899" d="M1005.317 782.166l-1.445-.03c-2.075-1.17-3.449-3.108-5.127-4.712a7.49 7.49 0 0 0-.954-1.007c-.288 1.075.13 1.989-.188 2.935-.211.629-.162 1.367-.955 1.6a1.554 1.554 0 0 1-1.787-.878c-1.214-1.875-2.391-3.776-3.582-5.666-.454-.967-1.008-1.885-1.445-2.861-.279-.625-.426-1.195.512-1.355a.759.759 0 0 1 .643.5c1.174 3.056 3.582 5.351 5.136 8.219-.319-4.376-1.981-8.444-2.87-12.682a3.049 3.049 0 0 0-.439-1.549 2.569 2.569 0 0 1-.157-.809 5.932 5.932 0 0 0-.125-1.609 2.645 2.645 0 0 1-.088-.414c.02-.423-.075-.916.572-.968a1.5 1.5 0 0 1 .552.918 10.714 10.714 0 0 0 .245 1.655 28.2 28.2 0 0 0 1.036 3.287 2.347 2.347 0 0 0 .595 1.62 2.759 2.759 0 0 1 .514 1.018c1.041 4.454 4.248 7.36 7.37 10.321.355.336.8.87 1.347.457.509-.387.423-1.03.23-1.594a5.569 5.569 0 0 0-1.352-2.173c-1.123-1.11-2-2.425-3.114-3.546a11.042 11.042 0 0 1-2.242-4.593 42.893 42.893 0 0 1-1.553-9.583 2.65 2.65 0 0 1 .038-.713c.078-.438.191-.874.738-.907a.906.906 0 0 1 .993.839c.161 1.036.29 2.078.414 3.119a35.352 35.352 0 0 0 1.481 7.273 17.425 17.425 0 0 0 4.251 6.19c.848.906 1.541 2.1 3 2.336.223-.523-.165-.817-.371-1.144a22.977 22.977 0 0 1-3.515-8.992 24.883 24.883 0 0 1 1.582-12.924c.214-.534.322-1.386 1.145-1.233.885.165.708 1.036.7 1.663-.017 2.1-.035 4.189-.161 6.29a31.077 31.077 0 0 0 .494 7.121c.064.376.138.813.609.858.455.045.632-.355.8-.7a9.1 9.1 0 0 0 .785-3.761c.113-2.61.922-5.183.445-7.823-.546-3.023-1.294-5.965-3.215-8.476-1.392-1.82-2.635-3.746-3.883-5.668a17.679 17.679 0 0 1-1.814-5.1 54.32 54.32 0 0 0-2.58-7.883 4.166 4.166 0 0 1-.388-1.374c-.237-3-1.447-5.722-2.326-8.54a6.667 6.667 0 0 0-2.8-3.36c-3.189-2.183-5.6-5.172-8.453-7.7-.572-.507-1.176-.974-1.748-1.478-.995-.874-1.049-1.683-.005-2.5a43.431 43.431 0 0 0 4.579-4.715 1.9 1.9 0 0 0 .4-2.2 31.987 31.987 0 0 1-1.241-4.265 15.3 15.3 0 0 1 .785-7.874 67.02 67.02 0 0 0 2.347-11.193c.207-1.545.13-1.669-1.448-1.61a9.362 9.362 0 0 1-4.567-.961c-1.795-.883-3.67-1.6-5.429-2.555-.77-.895-2-1.162-2.793-2.021-2.579-1.049-2.571-1.13-1.791-3.785 1.182-4.025 2.97-7.817 4.4-11.742 1.56-4.285 2.812-8.681 4.558-12.907 1.8-4.35 3.463-8.754 5.254-13.106 1.659-4.03 3.651-7.869 6.936-10.867a1.687 1.687 0 0 0 .726-1.465c-.618-6.3 1.267-12.212 2.766-18.205.769-3.074.8-6.336 1.612-9.4 1.407-5.316 2.664-10.739 5.787-15.415 1.371-2.053 2.848-4.038 4.353-5.994a16.888 16.888 0 0 1 4.985-4 21.71 21.71 0 0 1 3.093-2.03 4.9 4.9 0 0 1 4.242.122 7.287 7.287 0 0 0 3.587.423c4.426-.2 7.967 1.8 11.345 4.263 1.321.962 2.043 2.487 3.133 3.681 1.073 1.176 2.742 1.819 3.217 3.536.427.221.515.658.667 1.038.1-.2-.089-.348-.089-.525a1.762 1.762 0 0 1-.045-.4c.082-.324.042-.757.59-.659a1.478 1.478 0 0 0 .28 1.117 10.526 10.526 0 0 1 .11 2.774 2.183 2.183 0 0 0 .459 1.561c2.318 4.327 4.013 8.7 3.168 13.858-.785 4.787-.621 9.681-.6 14.539.011 2.9.038 5.809-.118 8.7a1.311 1.311 0 0 0 .9 1.508c3.034 1.262 4.328 3.816 5.185 6.76 1.515 5.2 1.79 10.546 2.045 15.906.12 2.514-.957 4.62-2 6.752-.585 1.192-1.21 2.368-1.89 3.507-.269.45-.626 1.216-1.278.844-.7-.4-.11-1.014.135-1.482a9.58 9.58 0 0 0 1.388-2.957 2.019 2.019 0 0 1 .377-1.209c2.218-3.664 1.627-7.6 1.075-11.511-.253-1.8-.191-3.6-.452-5.4a22.386 22.386 0 0 0-2.454-7.558 5.57 5.57 0 0 0-1.406-1.6c-1.323-1.093-1.33-1.094-2.214.318a1.369 1.369 0 0 1-1.4.791c-.916-.135-.7-1.005-1.1-1.683-.1 1.653-1.168 2.482-2.436 3.136-.9.467-1.007 1.42-1.356 2.226-2.08 3.007-2.905 6.447-3.8 9.942-1.293 5.037-2.452 10.107-3.763 15.139-.673 2.588-1.1 5.231-1.612 7.853a83.7 83.7 0 0 1-4.527 15.05c-1.608 4.021-3.628 7.875-4.918 12.026a14.541 14.541 0 0 1-1.207 2.906c-.612 1.072-1.066 2.082-.413 3.34.309.6 0 1.319-.148 1.967a1.86 1.86 0 0 0 .663 2.029 16.763 16.763 0 0 1 3.363 4.24 2.128 2.128 0 0 1 .177 2.032 14.205 14.205 0 0 1-3.263 5.158c-2.294 2.251-3.715 5.159-6.057 7.656 2.605-.033 4.676-.433 5.854-2.836a10.369 10.369 0 0 1 3.51-4.43 2.616 2.616 0 0 0 1.1-1.642c.471-2.418 2.106-4.131 3.5-5.994a3.719 3.719 0 0 0 .707-1.068c1.234-4.033 3.965-7.262 5.858-10.942a93.953 93.953 0 0 0 6.054-14.19c.407-1.266.3-1.342-1.083-1.343-.286 0-.572.007-.858 0-2.029-.039-2.349-.422-2.03-2.37a93.553 93.553 0 0 0 1.349-17.221 11.655 11.655 0 0 0-.2-1.414c-.173-1.2.334-1.77 1.412-1.343 2.136.845 4.376.853 6.591 1.137 1.047.134 1.434-.125 1.559-1.21.266-2.319.8-4.607.845-6.955a1.92 1.92 0 0 1 .192-.832c.2-.394.444-.821.97-.593.51.222.711.624.3 1.138-.192 1.927-.286 3.869-.6 5.776-.384 2.34-.406 4.715-.986 7.047-.481 1.937-1.522 3.585-2.187 5.415a48.47 48.47 0 0 0-2.722 9.293c-.5 3.4.331 6.779.891 10.162.542 3.272 2.722 4.493 5.579 5.447 0-2.158.051-4.266-.01-6.371-.149-5.137-.354-10.272-.529-15.409-.091-2.7-.168-5.4-.248-8.105-.011-.381-.009-.764 0-1.145.006-.346.069-.769.457-.776.466-.008.374.465.389.776q.162 3.5.3 7c.37 9.081.761 18.161 1.1 27.243.247 6.647.329 13.3.659 19.942.286 5.752.452 11.5.577 17.259.1 4.462.42 8.918.579 13.378.208 5.841.383 11.684.488 17.527.011.62 1.008 1.39-.02 1.85a5.075 5.075 0 0 1-1.979.065q-12.461-.108-24.923-.223c-4.613-.039-9.226-.046-13.839-.11a24.259 24.259 0 0 1-2.8-.374 1.736 1.736 0 0 1 1.646-.7c5.094.053 10.189.007 15.284.114 8.087.17 16.178.111 24.266.2 1.035.011 1.307-.327 1.265-1.3-.226-5.233-.415-10.468-.6-15.7q-.444-12.413-.873-24.827a1.934 1.934 0 0 0-.255-1.235 18.652 18.652 0 0 1-.369-4.085c-.134-2.663-.177-5.334-.249-8-.116-4.287-.552-8.568-.357-12.863a2.922 2.922 0 0 0-1.988-3.285c-3.891-1.678-4.186-2.219-5.025-6.539-.253-1.3-.567-2.608-.7-3.959a91.433 91.433 0 0 1-9.739 19.689 5.054 5.054 0 0 0-.891 1.624c-.466 2.25-1.908 3.906-3.266 5.623a8.085 8.085 0 0 0-1.575 3.181 4.557 4.557 0 0 1-1.829 2.819 8.2 8.2 0 0 0-2.893 3.646 6.188 6.188 0 0 1-5.457 4c-1.018.089-1.367.708-1.537 1.578a31.364 31.364 0 0 0-.976 8.5c.324 4.18-1.371 7.783-3.542 11.112a55.371 55.371 0 0 1-5.987 8.186 1.341 1.341 0 0 0-.1 1.811c.892 1.534 2.13 2.815 3.084 4.3.84 1.306 1.78 2.593 1.8 4.257.675 2.769 1.491 5.525 1.164 8.425a46.982 46.982 0 0 1-1.134 7.883c-.821 2.841-1.47 3.219-4.361 2.743a15.9 15.9 0 0 0 2.479 5.075 4.069 4.069 0 0 1 .614 1.585c.32 1.214-.475 1.979-1.949 1.747-.663-.1-.768-.119-.859.632-.131 1.045-.221 2.229-1.314 2.886z" class="cls-2" transform="translate(-70.81 -3.328)"/>
        <path id="路径_1900" d="M893.073 600.324a5.545 5.545 0 0 1-2.842 2.7 4.9 4.9 0 0 0-2.014 1.976 10.24 10.24 0 0 1-4.509 3.61 6.047 6.047 0 0 0-1.81 1.017c6.271.246 11.075 3.688 16.1 6.561 2.49 1.425 3.185 3.925 3.318 6.586a68.1 68.1 0 0 0 1.68 11.1 100.4 100.4 0 0 1 2.367 15.208c.161 2.609.82 5.154 1.208 7.734.438 2.924.694 3.16-2.5 2.85-1.706-.166-3.234-1.037-5.02-.973-1.266.046-1.642.563-1.758 1.636-.254 2.364-.574 4.72-.788 7.087a99.676 99.676 0 0 1-2.75 15.133c-.808 3.234-.654 6.614-1.072 9.915-.053.418.082.865-.195 1.248a26.537 26.537 0 0 0-.244 4.887c-.156 2.726-.18 5.458-.2 8.189a.637.637 0 0 1-.333.675c-1.048-1-.167-2.437-.74-3.516-.782-2.2-.19-4.446-.207-6.669-.033-4.393.586-8.746.952-13.115a9.172 9.172 0 0 1 .32-2.118c2.051-6.21 2.588-12.689 3.4-19.117.115-.9.256-1.8.43-2.684.155-.794-.121-1.024-.906-.924-2.312.3-4.61.7-6.942.864-1.33.1-2.667.053-3.992.229-.795.106-1.357.428-1.475 1.284-.583 4.227-2.286 8.182-3.056 12.348a64.388 64.388 0 0 0-1.57 12.179c.022 2.858-.426 5.7-.629 8.559a88.108 88.108 0 0 0-.122 10.145 50.911 50.911 0 0 1-.212 6.132 14.266 14.266 0 0 0 .079 3.984 23.1 23.1 0 0 1 .25 5.553c-.136 3.57.091 7.145.156 10.716.046 2.527-.008 5.044-.116 7.565-.386 1.172-.87.93-1.4.1-.384-.851-.961-.379-1.43-.156-4.182 1.984-8.545 3.52-12.833 5.24-1.639.657-3.33 1.159-5.014 1.685a29.62 29.62 0 0 0-6.386 2.841 23.745 23.745 0 0 1-8.349 2.808c-1.646.279-1.712.389-.8 1.827a36.73 36.73 0 0 0 2.532 3.638 4.589 4.589 0 0 1 1.216 2.693 6.992 6.992 0 0 1-1.345 4.411c-.873 1.081-1.426 2.47-2.8 3.067-.5.216-.387.6-.452.941-.442 2.357 0 4.756-.363 7.127-.29 1.888-.681 2.327-2.543 2.042-.635-.1-.865.109-.993.673a14.792 14.792 0 0 1-.635 2.334 2.176 2.176 0 0 1-2.04 1.528c-.972.017-1.437-.588-1.788-1.382a15.172 15.172 0 0 1-1.5-5.772 10.311 10.311 0 0 0-3.244-7.364c-.8-.8-1.592-1.612-2.566-2.6.046 2.966 1.307 5.254 2.327 7.6a17.152 17.152 0 0 1 1.38 8.222 2.13 2.13 0 0 1-1.943 2.121 1.872 1.872 0 0 1-2.2-1.344c-1.26-2.873-3.329-5.336-4.364-8.328a81.658 81.658 0 0 0-3.534-7.943A4.4 4.4 0 0 0 812 762.1a116.934 116.934 0 0 1-13.034-1.415 1.789 1.789 0 0 1-1.438-.821c5.451.122 10.548.952 15.863 1.427a26.78 26.78 0 0 1-1.853-6.957c-.1-.708-.561-.755-1.1-.847-2.1-.361-4.261-.459-6.26-1.328-.91-.4-1.843-.742-2.769-1.1-.227-.088-.5-.168-.426-.461.081-.33.359-.384.682-.332a26.363 26.363 0 0 1 3.665 1.138c1.577.5 3.2.4 4.755.822.679.186.839.007.8-.651-.346-5.262-.347-10.539-.462-15.8-.077-3.527-.153-7.074-.253-10.6q-.2-6.868-.075-13.725c.118-6.62.7-13.233.456-19.862-.087-2.374-.308-4.743-.467-7.115a22.339 22.339 0 0 1 1.079-8.137c1.245-4.051 1.811-8.269 2.8-12.385 1.235-5.135 2.644-10.23 3.6-15.43.232-1.262.6-2.547-.8-3.455a.7.7 0 0 1-.2-1.011c2.181-3.579 2.581-7.717 3.635-11.65 1.078-4.017 2.918-7.73 4.551-11.532a38.151 38.151 0 0 1 7.823-12.328 5.263 5.263 0 0 1 3.989-1.633c2.711.09 5.374-.518 8.078-.513a14.3 14.3 0 0 1 2.706.024c.956.19 1.8.51 2.343-.653a.617.617 0 0 1 .75-.3c1.732.917 3.775.185 5.512 1.091 1.279.667 2.25.469 2.71-1.093a7.228 7.228 0 0 1 .846-1.482c.321-.344.707-.543 1.126-.238.335.245.192.633.032.914-2.03 3.566-2.383 7.617-3.3 11.5a80.459 80.459 0 0 0-2.281 12.8 42.824 42.824 0 0 0 2.161 15.632c.487 1.592.868 3.211 1.356 4.8.307 1.293.746 2.552 1.038 3.849a7.672 7.672 0 0 0 .7 1.779 61.423 61.423 0 0 1 3.547 9.745c.576 1.976 1.788 3.661 2.381 5.614.173.394.087.862.337 1.217 0-.133-.077-.216-.111-.319-.149-.365-.056-.8-.322-1.125a3.823 3.823 0 0 1-.457-1.344c-1.244-4.97-3.549-9.521-5.579-14.18a16.74 16.74 0 0 1-.607-1.881c-.346-1.307-.694-2.614-1.122-3.9-.58-3.134-1.557-6.17-2.224-9.288a37.873 37.873 0 0 1 .053-15.309 147.027 147.027 0 0 1 3.938-17.4c.058-.181-.032.039.042-.135.262-.616.219-1.716 1.1-1.556.852.154.548 1.152.516 1.842-1.214 4.755-2.1 9.582-3.067 14.391-.38 1.884-.213 1.993 1.479 3.038a17.58 17.58 0 0 0 6.041 2.773 8.235 8.235 0 0 0 7.357-2.182 1.741 1.741 0 0 0 .519-.842c1.119-4.051 3.075-7.793 4.346-11.788.4-1.265.392-1.326-.878-1.192-1.56.165-3.131.217-4.693.312-2 .123-3.761-.916-5.509-1.765a24.075 24.075 0 0 1-5.371-3.98 11 11 0 0 1-1.673-2.887 7.022 7.022 0 0 0-.914-1.906 5.51 5.51 0 0 1-1.162-3.292c.126-1.567-.705-2.845-1.275-4.189a9.887 9.887 0 0 1-.77-6.578c.444-1.7-.107-3.5.349-5.228a11.229 11.229 0 0 1 .569-2.026c.758 0 .533.564.436.9a13.21 13.21 0 0 0-.3 3.536c-.01.736-.267 1.6 1 1.537.259-.012.451.317.414.65a2.971 2.971 0 0 0-1.068 3.063 13.726 13.726 0 0 0 .508 2.64c.161-1.8.518-3.565.686-5.352.708-.187 1.284-.443 1.224-1.371a1.236 1.236 0 0 1 .906-1.327c.928-.211 1-1.622 2.147-1.43 1.986.479 2.11.445 3.225-1.11a2.036 2.036 0 0 1 1.464-.8 12.321 12.321 0 0 1 8.048 1.711.757.757 0 0 1-1.2.452c-.829-.479-.363.52-.705.53-1.282.176-2.4-.479-3.6-.716-1.987-.39-2.327-.172-2.663 1.826-.153.913.134 1.8.051 2.7-.045.365-.818.424-.338 1.112-.146-.409-.07-.641.161-.82a2.482 2.482 0 0 1 2.028 1.433.787.787 0 0 1-.8.267 1.56 1.56 0 0 0 2.22-.1 1.014 1.014 0 0 1 .564-.041 3.782 3.782 0 0 0 4.24-1.606 2.543 2.543 0 0 1 .938-.863c.464.313 1.133-.339 1.528.322-.765 2.632-3.838 5.14-6.5 4.246-.716-.241-1.5-.292-2.237-.469a4.854 4.854 0 0 1-4.076-4.693c-.076-.982-.39-1.393-1.382-1.259-.469.064-.952.013-1.428.045a1.574 1.574 0 0 0-1.643 1.454 37.69 37.69 0 0 0-.84 7.519 8.373 8.373 0 0 1-.164 1.993 4.534 4.534 0 0 0 .279 2.807c2.1 4.78 5.321 8.474 10.352 10.25 3.084 1.088 6.228.566 9.236-.346a19.63 19.63 0 0 0 4.853-2.408 9.962 9.962 0 0 0 3.115-3.648c1.589.725 2.635-.232 3.709-1.171.434-.373.734-1.04 1.507-.801z" class="cls-2" transform="translate(0 -12.317)"/>
        <path id="路径_1901" d="M1079.691 675.565c-.063-.4.081-1.011-.527-.98-.516.027-.547.626-.539 1.029.054 2.638-.751 5.176-.886 7.785-.051.979-.414 1.273-1.313 1.094-2.445-.487-5.038-.093-7.373-1.324-.533-.281-1.37-.261-.873.854.525 1.177.249 2.451.27 3.657a103 103 0 0 1-1.343 15.309c-.247 1.87-.36 1.859 1.508 1.869a5.19 5.19 0 0 0 1.282-.021c1.418-.363 1.656-.03 1.25 1.426a82.081 82.081 0 0 1-4.737 11.756c-1.613 3.549-3.957 6.73-5.7 10.2a72.158 72.158 0 0 1-5.1 8.631 2.789 2.789 0 0 0-.494 1.327 3.5 3.5 0 0 1-1.547 2.632 9.4 9.4 0 0 0-2.961 3.568c-1.792 3.219-1.954 3.5-7.037 3.705a3.722 3.722 0 0 1 .963-1.5c2.45-3.146 4.867-6.318 7.342-9.442.7-.883.81-2.014 1.435-2.915.232-.334-.074-.6-.245-.89a16.292 16.292 0 0 0-4.028-4.937.988.988 0 0 1-.428-1.207c.308-1.2.942-2.432-.187-3.631-.3-.314.124-.882.355-1.295a46.254 46.254 0 0 0 2.727-6.854c.663-1.814 1.673-3.562 2.449-5.37a83.219 83.219 0 0 0 5.908-18c1.317-7.305 3.062-14.512 5-21.665.811-3 1-6.187 2.571-8.994.624-1.117 1.265-2.213 1.987-3.265a10.073 10.073 0 0 1 1.2-2.245c1.281-.64 2.416-1.38 2.268-3.084a.539.539 0 0 1 .58-.651c.432 0 .548.3.567.672a.706.706 0 0 0 .007.143c.135.515-.441 1.407.608 1.436.839.023.995-.71 1.143-1.394.21-.962.573-1.17 1.544-.561 3.014 1.89 3.677 5.05 4.635 8.08a11.642 11.642 0 0 1 .41 3.105c.143 3.648.985 7.226.879 10.914a11.956 11.956 0 0 1-2.316 6.29c-1.578-1.477-1.166-3.422-1.254-5.257z" class="cls-3" transform="translate(-99.149 -41.506)"/>
        <path id="路径_1902" d="M914.124 570.842c-.124-.526-.687-.56-1.271-.96 1.236-.286 2.06.675 3.012.347 1.341-.344 2.143.546 2.856 1.393.658.781 1.444 1.112 2.248.646 1.727-1 3.515-.592 5.3-.483a15.2 15.2 0 0 1 2.123.264c.855.175 1.107-.28.773-.959-.886-1.8-1.43-3.729-2.187-5.576a2.325 2.325 0 0 0-.749-1.031c-2.663-1.918-4.9-4.374-7.712-6.108-.9-.556-1.436-.507-1.891.488-2.014 4.406-5.617 7.22-9.663 9.573-.9.525-1.848.979-2.724 1.557-.344.227-.7.534-1.173.28-.772 1.313-2.933 1.479-2.761 3.657.1 1.21-.857.393-1.375.327a.254.254 0 0 1-.273-.226c-.133-.4-.338-.745-.812-.471-1.29.744-1.007 0-.927-.852.161-1.723-.123-3.486.473-5.174.013-.037-.122-.127-.188-.193a32.075 32.075 0 0 1 6.064-11.65 21.13 21.13 0 0 1 8.66-6.293 3.4 3.4 0 0 1 1.232-.305c5.5.047 10.939.367 16.074 2.712a12.033 12.033 0 0 1 5.7 5.353c2.339 4.268 3.377 8.911 4.112 13.7 1.05 6.839-1.129 12.422-5.949 17.154-.9.732-1.793 1.486-2.718 2.193-.8.609-1.6.838-2.232-.242a19.4 19.4 0 0 1 1.5-4.571 9.234 9.234 0 0 0 .771-2.557 11.778 11.778 0 0 1-6.992-1.4 5.931 5.931 0 0 1-3.031-2.9 5 5 0 0 1-.227-2.674c.259-1.516.195-1.583-1.4-1.569a1.642 1.642 0 0 1-.564-.035c-.407.047-.845.882-1.214-.047.276-1.741-.911-2.3-2.221-2.768-.294-.098-.676-.142-.644-.6z" class="cls-2" transform="translate(-40.018)"/>
        <path id="路径_1903" d="M949.29 768.55c.724 1.066.007 2.321.433 3.5a2.911 2.911 0 0 0 .146-1.592c-.154-3.692.318-7.365.3-11.053 0-.334-.016-.677.342-.872-.084 3.793-.281 7.588-.2 11.377.039 1.944-.479 3.934.149 5.926a2.021 2.021 0 0 0 .778-1.6 12.033 12.033 0 0 1 1.858-4.891c2.3-3.3 3.436-7.047 4.542-10.835 1.674-5.735 3.416-11.45 5.129-17.173.8.09.282.693.408 1.045a7.093 7.093 0 0 0-.421 1.954c-1.048 6.271-3.486 12.165-4.965 18.321a20.084 20.084 0 0 1-2.968 6.323 19.279 19.279 0 0 0-1.978 4.274 2.491 2.491 0 0 0 .686 2.853c2.587 2.549 5.169 5.084 8.9 6.133a7.908 7.908 0 0 0-.81-3.5c-.8-2.147-1.33-4.38-2.211-6.5a7.949 7.949 0 0 1-.373-4.5c1.045-6.063 1.984-12.145 2.758-18.25a42.224 42.224 0 0 0 .732-4.354c.366-.785.227-1.688.577-2.476.125-.681.353-1.38-.325-1.925-.025-.081-.047-.162-.066-.244a5.474 5.474 0 0 1 2.913 1.7 1.492 1.492 0 0 0-1.306 1.564c-.8 8.263-2.088 16.46-3.345 24.662a5.475 5.475 0 0 0 .287 2.807 124.576 124.576 0 0 1 4.078 12.959c.648 2.581 1.714 5.054 2.531 7.6 2 6.223 4.411 12.291 7.019 18.287 1.367 3.141 2.339 6.452 4.127 9.411a2.571 2.571 0 0 1 .022 2.6 85.775 85.775 0 0 1-5.113 9.416 19.115 19.115 0 0 0-1.95 3.815 5.425 5.425 0 0 0 1.015 5.506c.953 1.2 2.19 2.124 3.2 3.267.185.1.214.408.488.392-.356-.2-.394-.589-.558-.907-.527-1.864-1.705-3.553-1.454-5.622a4.593 4.593 0 0 1 .355-1.665c.137-.259.306-.509.634-.5a.549.549 0 0 1 .545.562c-.152 2.522 1.068 4.7 1.711 7.02a.873.873 0 0 1-.2.8c-.865.122-.523.6-.391 1.117.265 1.034 1.121 1.818 1.18 2.925-.708-2.209-3.134-2.509-4.471-4.036-1.392-1.59-3.149-2.845-3.621-5.151a6.87 6.87 0 0 1 .46-4.438 34.3 34.3 0 0 1 2.776-4.948c.581-.852.65-1.261-.635-1.272-4.115-.035-8.23-.159-12.344-.263-3.373-.085-6.745-.229-10.118-.269-1.149-.014-2.31.427-3.422-.238-.207-.124-.473-.183-.471-.453s.244-.356.488-.421c.563-.151 1.534.319 1.635-.408a4.536 4.536 0 0 0-.613-3.144 9.319 9.319 0 0 1-1.691-3.094c-.144-.659-.513-.334-.856-.315a3.943 3.943 0 0 1-4.1-2.207c.083-.054.205-.122.256-.077a6.432 6.432 0 0 0 5.3 1.44 37.131 37.131 0 0 0 2.244 3.137 4.684 4.684 0 0 1 .913 2.81c.12 1.049.578 1.451 1.657 1.489 7.044.242 14.091.361 21.135.592a2.021 2.021 0 0 0 2.184-1.193 30.194 30.194 0 0 0 1.917-3.671 3.005 3.005 0 0 0-.176-2.336c-3.612-7.887-6.97-15.875-9.872-24.06-1.146-3.233-2.137-6.523-3.421-9.708a2.38 2.38 0 0 0-1.478-1.611c-4.324-1.377-7.628-4.191-10.462-7.612-.749.241-.6 1.466-1.579 1.243a11.612 11.612 0 0 1-.4-3.35c.093 1.007-.245 2.416.67 3.648.153 1.2.586 2.428-.4 3.495-.91-.613-.1-1.658-.565-2.229-.069-.333-.314-.042-.159-.152.053-.038.11-.006.1.09-.037.472.622 1.245-.529 1.245a3.222 3.222 0 0 1-.278-1.658c-.047-3.025.04-6.05.051-9.074.014-.576.047-1.154.666-1.458z" class="cls-2" transform="translate(-58.023 -77.13)"/>
        <path id="路径_1904" d="M874.564 871.3a15.479 15.479 0 0 0 1.187-4.383c.691 1.171 1.739 1.15 2.959 1.109 3.284-.111 6.562.318 9.853.266a1.977 1.977 0 0 0 2.13-1.422 10.619 10.619 0 0 1 8.111-6.531c2.251-.5 4.436-1.136 6.123-2.844.243-.113.656.012.527-.555a2.464 2.464 0 0 1 .177-1.785c.19-.206.386-.395.695-.216.369.559-.093 1.205.183 1.773.125.257.29.524.614.481.278-.037.258-.336.329-.55a6.97 6.97 0 0 0-.093-3.051 10.172 10.172 0 0 1 .093-2.345c.211-.31.751-.654-.093-.861a7.516 7.516 0 0 1-.186-4.366c.365-.192.187 1.551.866.244.713.135.582.767.7 1.232.374 1.432.157 2.923.406 4.37a6.438 6.438 0 0 0 .38 1.507c-1.4 1.481-.573 3.385-.949 5.06-.51.221-1.032.781-1.576.418-1.33-.887-1.947-.046-2.749.839-1.245 1.373-3.094 1.6-4.759 2.057-2.842.786-5.417 1.886-6.782 4.718a8.448 8.448 0 0 0-.449 7.281c.056.131.1.269.17.394.273.494.042 1.534.735 1.439a2.39 2.39 0 0 0 1.814-1.476 15.757 15.757 0 0 0 .759-4.476 3.584 3.584 0 0 1 .912-2.622 1.029 1.029 0 0 1 1.177-.279c.6.3.168.733.042 1.1a38.569 38.569 0 0 0-1.167 5.29 88.165 88.165 0 0 0-1.739 9.089 55.757 55.757 0 0 0 .028 8.143c.033.561.2 1.176.966 1.207a1.3 1.3 0 0 0 1.269-.973 24.23 24.23 0 0 0 1.177-4.7 72.589 72.589 0 0 1 3.521-11.737c.571-1.512.978-3.086 1.435-4.639.121-.413.124-.966.722-.839.756.16.373.726.275 1.153a74.521 74.521 0 0 1-2.975 9.229 64.576 64.576 0 0 0-2.556 10.658 1.917 1.917 0 0 0 .589 1.962c.758.629 1.392.709 2.019-.2a17.989 17.989 0 0 0 1.9-4.912c.97-2.98 1.641-6.049 2.462-9.069a57.574 57.574 0 0 1 3.246-7.736 1.89 1.89 0 0 1 .57-.62c.245-.2.515-.513.856-.155.232.244.143.519 0 .79a44.223 44.223 0 0 0-4.451 11.953 63.757 63.757 0 0 1-2.325 7.48 7.346 7.346 0 0 0-.279 1.1c-.131.863.408 1.316 1.087 1.653.713.353.876-.318 1.207-.673a11.321 11.321 0 0 0 1.933-3.136c1.791-3.94 3.817-7.774 5.385-11.814.654-1.685 1.2-3.411 1.8-5.121a3.8 3.8 0 0 1 .186-.685c.23-.389.439-1 1.017-.753.557.238.168.723.053 1.116a115.931 115.931 0 0 1-4.572 11.98c-.182.436-.745 1-.142 1.4A1.4 1.4 0 0 0 913.2 884a10.568 10.568 0 0 0 2.377-4.671c.841-2.968 2.275-5.765 2.583-8.89a1.282 1.282 0 0 1 .46-.76 6.158 6.158 0 0 1 0 3.875c-.612 2.3-1.428 4.536-2.141 6.8a15.493 15.493 0 0 1-2.074 4.06 2.788 2.788 0 0 1-3.358 1.188c-.687-.21-.9 0-1.223.489a11.947 11.947 0 0 0-1.155 2.61 10.177 10.177 0 0 1-2.193 3.478c-1.376 1.462-1.647 1.533-3.158.26-.535-.45-.724-.508-1.189.024a2.118 2.118 0 0 1-3.408.077c-.51-.537-.737-.747-1.45-.2a2 2 0 0 1-3.276-1.557 38.3 38.3 0 0 1 .788-14.172c.02-.076-.045-.176-.07-.264-2.384.953-2.307.919-3.4-1.587a8.4 8.4 0 0 1-.947-4.253c.091-.91-.6-.706-1.06-.72-3.566-.112-7.142-.081-10.7-.337-1.817-.134-3.255-.001-4.042 1.85z" class="cls-2" transform="translate(-31.044 -119.649)"/>
        <path id="路径_1905" d="M931.286 841.983c-.583-1.318-.112-2.731-.362-4.091-.148-.8 1.27-.008 1.217-.943.58-.905 1.285-.646 2.006-.219-.012.75-.689.947-1.127 1.337a2.065 2.065 0 0 0-.141 3.235 6.283 6.283 0 0 1 1.362-4.448 1.657 1.657 0 0 1 2.2-1.03.954.954 0 0 0 1.045-.231 3.926 3.926 0 0 1 4.017-.788c1.064.309 1.107-.181 1.132-.956.055-1.764.05-3.541-.05-5.285-.35-6.1.6-12.08 1.366-18.081.1-.762.074-1.525.14-2.284.042-.481-.105-1.1.617-1.27.647-.439.1-1.19.463-1.743a5.514 5.514 0 0 1 .443 2.626 3.28 3.28 0 0 1 .278 2.747c-.6 3.524-.809 7.094-1.248 10.637a51.742 51.742 0 0 0-.128 11.108 5.8 5.8 0 0 1-.079 1.423 7.736 7.736 0 0 0 .469 4.6 5.776 5.776 0 0 1-.421 5.742c-.371.581-.749 1.273-1.665 1.008-1.22.011-2.382.863-3.686.007-.68-.445-1.09-1.207-1.891-1.462-.373-.259-.784-.106-1.168-.145-1.681-.177-3.439-.219-4.789-1.494z" class="cls-2" transform="translate(-53.751 -103.2)"/>
        <path id="路径_1906" d="M898.876 618.549l1.745 2.574c-.023.646.371 1.441-.622 1.739-.057-.628.154-1.289-.421-1.946-.528 1.733-1.171 3.44-1.564 5.2-1.159 5.191-2.361 10.376-3.187 15.636a38.44 38.44 0 0 0 .424 14.3c.626 2.873 1.683 5.653 1.916 8.613.14.314.253.615-.293.587-2.051-5.989-3.82-12.068-3.83-18.447a50.8 50.8 0 0 1 1.576-11.4c.721-3.14 1.272-6.32 2.011-9.456a19.712 19.712 0 0 1 2.093-5.588c.155-.263.556-.519.2-.85-.3-.278-.619.034-.922.134-.018-.604.955-.429.874-1.096z" class="cls-4" transform="translate(-38.491 -27.989)"/>
        <path id="路径_1907" d="M1092.2 568.471c-.362.214-.3.584-.333.916-.721-.177-.322-.755-.391-1.151-.1-.586.131-1.2-.143-1.781-.176-2.223-.407-4.444-.5-6.67-.056-1.273.106-2.558.178-3.836.014-.238.07-.531.352-.538.366-.01.421.293.427.6.04 1.891.123 3.782.12 5.673a17.564 17.564 0 0 0 .465 4.672 3.951 3.951 0 0 1-.175 2.115z" class="cls-2" transform="translate(-118.19 -2.546)"/>
        <path id="路径_1908" d="M1091.507 573.91c.59.9-.109 2.039.534 2.932a.78.78 0 0 0 .037.245c.109.37.359.789-.308.888l-.519-1.5c.516-.814.074-1.72.256-2.565z" class="cls-1" transform="translate(-118.364 -10)"/>
        <path id="路径_1909" d="M1094.141 583.492c-.875-.424-.543-1.231-.575-1.9-.039-.809 0-1.621.007-2.433.59 1.39-.081 2.948.568 4.333z" class="cls-2" transform="translate(-119.282 -12.115)"/>
        <path id="路径_1910" d="M977.377 742.642c-.07-.385.178-.848-.277-1.14l.013-.6c1.37.218.472 1.124.527 1.741a.16.16 0 0 1-.263-.001z" class="cls-1" transform="translate(-72.364 -77.295)"/>
        <path id="路径_1911" d="M991.666 713.766a18.771 18.771 0 0 0 .535-4.362c.064-.641.207-1.075.827-1.327a8.142 8.142 0 0 0 4.2-4.133 91.209 91.209 0 0 0 6.355-15.689c.406-1.308.666-2.661.993-3.994.342-.538-.04-1.18.248-1.725a.607.607 0 0 0 .038-.278 8.771 8.771 0 0 0 0-3.463c-.92.195-.138 1.052-.561 1.441l-.044.535c-.362.741.14 1.6-.306 2.325l-1.6 5.217c-1.13-7.456-1.525-15.074-7.487-20.847-.481.67-.229.959.02 1.263a24.924 24.924 0 0 1 5.051 12.244c.383 2.392.655 4.806.858 7.22a20.51 20.51 0 0 1-.4 4.376c-.592 4.484-3.151 8.09-5.021 11.984-1.075 2.236-3.425 2.827-5.79 3a10.707 10.707 0 0 1-5.326-1.307c-2.625-1.231-5.186-2.6-7.8-3.845-.814-.388-.9-.732-.651-1.631 1.284-4.7 3.658-9 5.069-13.635 1.541-5.064 3.607-9.918 5.43-14.869 1.314-3.571 2.7-7.115 4.112-10.641a28 28 0 0 1 6.026-9.439c.267-.27.506-.69.919-.584 1.5.383 2.032-.528 2.45-1.689.13-.359.372-.724.852-.547.385.141.327.48.321.838-.019 1.124.841 1.755 1.864 1.207 1.136-.61 2.635.52 3.55-.846a2.845 2.845 0 0 1 .439.286c3.469 3.058 6.353 6.673 9.534 9.989 2.346 2.445 2.795 5.386 3.837 8.175a75.137 75.137 0 0 1 3.349 12.215 53.609 53.609 0 0 0 3.432 11.151 4.171 4.171 0 0 1-.017 3.438 67.111 67.111 0 0 0-3.823 12.236 2.487 2.487 0 0 1-.706 1.214 3.176 3.176 0 0 0-.961 2.46 6.769 6.769 0 0 1-1.106 4.032c-.828 1.391-1.655 2.777-2.384 4.223a9.162 9.162 0 0 0-4.187-.757 1.58 1.58 0 0 1-1.266-.829 44.36 44.36 0 0 0-3.285-3.568c-1.378-1.479-1.7-1.5-3.576-.506a10.834 10.834 0 0 0-2.045 2.7 127.859 127.859 0 0 1-11.553 16.064c-.366.429-.75.844-1.244 1.4a15.128 15.128 0 0 1-.322-13.857.529.529 0 0 1 .368-.131c1.382 1.679 3.259 2.786 4.829 4.25a6.516 6.516 0 0 0-2.41-2.337 5.046 5.046 0 0 1-1.075-.93c-.552-.66-.579-1.2.373-1.476.731-.213 1.428-.517 2.141-.779.734-.27.968-.611.238-1.154a23.136 23.136 0 0 1-2.893-2.936c-.385-.421-.702-.785-.419-1.372z" class="cls-3" transform="translate(-71.793 -40.386)"/>
        <path id="路径_1912" d="M990.592 845.068a5.065 5.065 0 0 0-.648-2.157 10.19 10.19 0 0 1-1.049-6.187c-1.075.984-1.291 3.222-.624 4.714a13.329 13.329 0 0 1 1.125 3.34c.168.361.195.644-.337.628-1.155-1.129-2.393-2.186-3.447-3.4a5.577 5.577 0 0 1-.938-6.368c1.541-3.379 3.737-6.392 5.4-9.709.614-1.223 1.136-2.493 1.78-3.7.364-.685-.094-1.392-.452-2.011-2.959-5.132-4.528-10.865-6.983-16.223-2.371-5.172-3.787-10.735-5.665-16.112-1.473-4.22-2.316-8.631-3.919-12.809-.033-.087 0-.205-.051-.279-2.235-3.563-1-7.265-.463-10.948.891-6.159 1.811-12.315 2.455-18.506.049-.473.142-.943.158-1.417.041-1.229.556-1.493 1.574-.824 1.714.81 3.43 1.615 5.141 2.43a10.446 10.446 0 0 0 5.549 1.036c.9-.084 1.333.04 1.159 1.228a63.739 63.739 0 0 1-2.648 12.4c-1.468 4.1-.829 7.967.7 11.8a1.747 1.747 0 0 1-.459 2.221c-1.657 1.7-2.994 3.694-5.033 5.026-.724.473-.555 1.152.119 1.647 2.778 2.042 4.981 4.7 7.488 7.026 1.491 1.386 3.31 2.363 4.675 3.945a6.785 6.785 0 0 1 1.305 2.307c1 2.873 1.487 5.915 2.45 8.76 1.447 4.272 2.326 8.73 4.114 12.874 1 2.318 2.7 4.248 4.135 6.32a18.021 18.021 0 0 1 3.2 13.642c-.358 2.194-.213 4.456-1 6.6-.291.79-.63 1.586-1.468 1.438-.738-.13-.774-1.039-.882-1.767a57.375 57.375 0 0 1-.215-11.1c.038-.857.023-1.718 0-2.577-.009-.361.083-.881-.393-.958s-.343.46-.473.734a22.423 22.423 0 0 0-1.592 14.5 18.867 18.867 0 0 0 3.245 7.558c.408.536 1.153 1.259.572 1.85-.517.526-1.245-.254-1.72-.6a19.753 19.753 0 0 1-2.611-2.4 18.155 18.155 0 0 1-5.057-11.051c-.159-1.7-.372-3.4-.552-5.106-.047-.444-.1-.953-.657-.921-.639.036-.471.608-.449 1.007.247 4.436.7 8.847 2.676 12.9.857 1.756 2.471 2.971 3.688 4.476 1.025 1.268 2.346 2.382 1.921 4.334-.244 1.122-.729 1.292-1.536.578-3.391-3-6.832-5.971-8.084-10.616a11.447 11.447 0 0 0-.675-1.561 3.6 3.6 0 0 1-.307-1.431 7.856 7.856 0 0 1-1.158-3.429c-.365-.534.075-1.2-.285-1.736l-.3-.84c-.1-.093-.171-.253-.28-.292-.339-.119-.142.192-.137.248.032.4-.13.823.132 1.2v-.008c.373.538-.06 1.207.284 1.75l.072.837c.334.422.306.971.506 1.441.979 3.695 1.944 7.394 2.946 11.083a3.535 3.535 0 0 1-.347 2.786c-1.721-3.479-4.454-6.075-5.675-9.621z" class="cls-1" transform="translate(-70.912 -78.032)"/>
        <path id="路径_1913" d="M1024.26 764.268c-.417.389-.85.761-1.245 1.17-1.163 1.2-1.145 2.208.018 3.4a1.141 1.141 0 0 0 1.193.2 5.577 5.577 0 0 0 2.722-1.881c.38.845-.061 1.47-.236 2.113a2.118 2.118 0 0 0 .839 2.6 11.914 11.914 0 0 1 3.412 4.157c.537 1.04-.065 1.986-.587 2.9-1.315 2.3-3.6 3.776-5.048 5.964-3.5 5.307-8.222 9.574-12.307 14.384-.185.217-.4.412-.6.612-2.623 2.562-3.314 2.591-5.753-.094-3.147-3.463-6.971-6.177-10.275-9.465a38.483 38.483 0 0 0-4.029-3.826c-.8-.592-.09-.875.229-1.19a111.206 111.206 0 0 0 9.13-10.142 99.971 99.971 0 0 0 9.912-14.609 23.056 23.056 0 0 1 1.537-2.222c.572-.943 1.145-.946 1.829-.076 1.084 1.378 2.418 2.543 3.475 3.942a2.645 2.645 0 0 0 2.437 1.14 6.591 6.591 0 0 1 2.534.216c.34.113.909.052.813.707z" class="cls-4" transform="translate(-78.366 -84.029)"/>
        <path id="路径_1914" d="M1069.485 595.2a18.569 18.569 0 0 0 .222-2.092c0-.395-.085-.967-.589-1.021-.6-.064-.578.554-.654.931-.264 1.3-.475 2.614-.7 3.924a7.37 7.37 0 0 1-1.318 3.263c-1.213 1.64-1.9 3.616-3.287 5.168a18.539 18.539 0 0 1-6.754 4.883c-2.184.879-4.771.155-7-.913a26 26 0 0 0-4.383-1.57c-2.17-.6-3.082-2.345-3.828-4.126a50.585 50.585 0 0 0-5.088-9.017c-.305-.445-.2-.63.107-.94 2.4-2.438 3.25-5.665 4.327-8.75.738-2.115.921-2.408 3.109-2.6a7.343 7.343 0 0 0 .852-.083c.279-.058.577-.168.553-.533-.02-.3-.312-.306-.528-.383a3.208 3.208 0 0 0-1.963.018c-.6.156-.983-.012-.692-.722 1.234-3.011 1.729-6.375 4.226-8.783 1.429-1.377 2.681-3 5.02-2.783a2.542 2.542 0 0 1 1.768.735 53.358 53.358 0 0 1 7.657 9.514c2.281 3.829 5.207 7.307 9.946 8.454a1.881 1.881 0 0 1 1.568 2.166 8.027 8.027 0 0 1-2.571 5.26z" class="cls-1" transform="translate(-96.068 -8.043)"/>
        <path id="路径_1915" d="M1065.293 634.838c-.973 4.491-1.7 8.842-2.234 13.219-.186 1.533.244 3.116-.186 4.665a23.067 23.067 0 0 1-1 3.7c-.787 1.669-2.6 2.069-4.143 2.034a13.775 13.775 0 0 1-7.2-1.894c-1.6-1-1.97-2.556-2.383-4.045a157.867 157.867 0 0 0-5.045-15.128c-.586-1.5.912-1.514 1.333-2.279.364-.66.836-.339 1.427-.129 4.034 1.436 7.868 3.585 12.337 3.527 1.974-.026 3.327-1.272 4.791-2.3a7.158 7.158 0 0 1 2.303-1.37z" class="cls-1" transform="translate(-98.907 -34.502)"/>
        <path id="路径_1916" d="M1013.9 823.857a7.235 7.235 0 0 1 2.848 2.282c.651.733 1.11.79 2.039.292a16.778 16.778 0 0 0 5.539-4.838c1.7-2.259 3.957-3.988 5.678-6.212.484-.625 1.007-.424 1.525-.207.641.269.18.8.086 1.1a30.89 30.89 0 0 0-1.319 10.417c.118 2.893-1.27 5.381-2.649 7.716a52.817 52.817 0 0 1-6.552 9.12c-.709.767-.93.522-1.162-.29a72.866 72.866 0 0 0-2.115-7.1c-1.568-3.899-1.862-8.17-3.918-12.28z" class="cls-4" transform="translate(-87.191 -107.139)"/>
        <path id="路径_1917" d="M1085.936 725.714c-.978.17-1.026-.433-.9-1.208a70.631 70.631 0 0 0 .953-16.916c-.058-.77.256-.823.792-.731a60.224 60.224 0 0 0 6.774.842c.783.044.5.61.454 1.068-.245 2.231-1.368 4.141-2.258 6.13a73.08 73.08 0 0 0-2.672 8.426c-.673 2.187-.823 2.398-3.143 2.389z" class="cls-4" transform="translate(-115.84 -63.562)"/>
        <path id="路径_1918" d="M1055.368 677.822a18.568 18.568 0 0 0 9.034 1.863c1.049 0 1.03.351.853 1.15-1.148 5.183-2.259 10.374-3.392 15.561a11.3 11.3 0 0 1-.439 1.2c-2.233-6.678-4.091-13.183-6.056-19.774z" class="cls-3" transform="translate(-103.904 -51.875)"/>
        <path id="路径_1919" d="M1057.13 713.533c.983-3.066 1.281-6.423 2.921-9.4a34.883 34.883 0 0 0 2.3-6.58c1.469-4.684 1.988-9.556 3.119-14.3 1.542-6.471 2.865-12.995 4.274-19.5.139-.642.487-1.161 1.141-.995.774.2.268.9.208 1.306a115.679 115.679 0 0 1-2.858 13.2c-1.8 6.69-3.31 13.455-4.628 20.269a66.438 66.438 0 0 1-4.864 14.73c-.235.519-.426 1.058-.645 1.584-.121.289-.109.763-.562.7-.517-.079-.436-.541-.406-1.014z" class="cls-4" transform="translate(-104.605 -45.792)"/>
        <path id="路径_1920" d="M1053.562 686.664c-2.184-4.857-2.982-9.841-4.12-14.741a87.778 87.778 0 0 0-2.865-9.091c-1.352-3.857-2.369-7.831-3.67-11.707-1.1-3.284-1.974-6.646-3.308-9.854a7.407 7.407 0 0 1-.7-2.759c0-.433-.034-.964.481-1.067.6-.12.769.406.921.878q1.588 4.951 3.187 9.9c1.392 4.286 2.6 8.621 3.821 12.959 1.527 5.434 2.827 10.957 4.957 16.223a35 35 0 0 1 1.262 5.114c.254 1.073 1.11 2.057.493 3.263-.121.243-.252.485-.459.882z" class="cls-4" transform="translate(-97.268 -35.596)"/>
        <path id="路径_1921" d="M1035.232 617.125c2.447 2.811 3.078 6.2 4.8 9.041.352.582-.1.921-.47 1.175-.565.386-.756 1.49-1.774 1.038a1.53 1.53 0 0 0-2.337 1.024c-.321.871-1.148 1.087-1.849 1.366-.653.261-.774-.164-.6-.784a38.578 38.578 0 0 0 1.647-6.9c.166-1.926.779-3.785.583-5.96z" class="cls-2" transform="translate(-94.861 -27.415)"/>
        <path id="路径_1922" d="M1034.3 639.818l3.247 9.987-.178.1c-1.43-1.534-2.881-3.05-4.275-4.616a4.612 4.612 0 0 0-1.071-.909c-1.7-1.034-1.772-1.4-.74-3.108a.721.721 0 0 1 .81-.408 1.887 1.887 0 0 0 2.207-1.046z" class="cls-1" transform="translate(-93.927 -36.56)"/>
        <path id="路径_1923" d="M1037.823 658.6c-2.586-3.023-5.057-6.156-8.331-8.506a5.307 5.307 0 0 1-.917-.9c-.481-.566.018-.947.294-1.373.415-.641.687-.136 1 .105a31.84 31.84 0 0 1 5.4 5.8c.3.37.552.877.944 1.047 1.322.573 1.6 1.756 1.927 2.938.05.347.391.804-.317.889z" class="cls-4" transform="translate(-93.026 -39.658)"/>
        <path id="路径_1924" d="M1037.933 763.743c-1.131-.811-2.422-.6-3.671-.531a2.147 2.147 0 0 1-2.094-.9c-1.1-1.607-2.681-2.81-3.8-4.388-.58-.819-.983-.556-1.527-.119.195-1.354-.735.054-.918-.374 1.7-1.5 2.146-1.5 3.635.025a17.683 17.683 0 0 1 2.15 2.263c1.15 1.7 2.5 2.782 4.681 2.276.964-.224 1.2.792 1.849 1.1.023.273-.002.526-.305.648z" class="cls-2" transform="translate(-92.039 -83.504)"/>
        <path id="路径_1925" d="M1001.837 757.272a13.834 13.834 0 0 0 3.347 3.869c1.442 1.266 1.467 1.248-.273 1.926-.872.34-1.758.646-2.791 1.024 1.227 1.9 3.883 2.4 4.388 4.9-1.832-1.6-4.223-2.546-5.447-4.872-.368-.614.058-.931.478-1.229a2.537 2.537 0 0 1 .806-.264c1.854-.53 1.859-.542.547-2.008a6.994 6.994 0 0 0-.832-1c-.636.112-.286 1.133-1.024 1.144a7.712 7.712 0 0 1 .801-3.49z" class="cls-2" transform="translate(-81.964 -83.891)"/>
        <path id="路径_1926" d="M1054.528 672.722c1.829 1.491 3.975 1.778 6.127 2.159a7.473 7.473 0 0 0 4.17-.446c.344-.135.8-.436 1.034-.063a1.186 1.186 0 0 1-.19 1.208 1.912 1.912 0 0 1-1.838.887c-2.708-.42-5.511-.318-8.077-1.536-1.175-.558-1.202-.5-1.226-2.209z" class="cls-4" transform="translate(-103.566 -49.82)"/>
        <path id="路径_1927" d="M1050.938 757.836c-.286.708-.688 1.617-1.024 2.55a49.221 49.221 0 0 1-2.849 5.722 4.207 4.207 0 0 1-1.078 1.119c-.3.259-.682.386-1-.008-.278-.347-.069-.638.183-.867 1.953-1.773 2.57-4.39 4.066-6.453a5.787 5.787 0 0 0 .826-2.4c.045-.236.1-.619.536-.426.232.099.407.241.34.763z" class="cls-4" transform="translate(-99.668 -83.789)"/>
        <path id="路径_1928" d="M1000.877 761.677l.737-2.133a20.663 20.663 0 0 0 2.6 2.905c.415.307.245.673-.231.835a13.8 13.8 0 0 1-1.9.6c-.694.128-1.18.361-1.184 1.15l-.377.008a17.985 17.985 0 0 0 .355-3.365z" class="cls-3" transform="translate(-81.804 -84.807)"/>
        <path id="路径_1929" d="M1052.326 562.971c0-.645-.017-.93 0-1.213.02-.254.161-.474.428-.47a.444.444 0 0 1 .425.478 9.775 9.775 0 0 0 .973 3.816c.106.225.144.482-.119.613-.3.149-.545-.014-.737-.248a5.553 5.553 0 0 1-.97-2.976z" class="cls-4" transform="translate(-102.676 -4.914)"/>
        <path id="路径_1930" d="M1084.786 659.569l-2.048 3.7a.183.183 0 0 1-.292.012 4.2 4.2 0 0 0 .019-.854 2.6 2.6 0 0 1 1.749-3.143c.334-.195.592-.237.572.285z" class="cls-4" transform="translate(-114.797 -44.35)"/>
        <path id="路径_1931" d="M1055.849 752.414c-.078.509-.09 1.13-.774 1.1a.869.869 0 0 1-.8-.983c.037-.623.19-1.349.9-1.4.915-.058.389.86.674 1.283z" class="cls-4" transform="translate(-103.462 -81.418)"/>
        <path id="路径_1932" d="M1026.362 902.28a16.494 16.494 0 0 1 .013-5.425.155.155 0 0 1 .257 0l.026 4.816c.088.292.252.624-.296.609z" class="cls-1" transform="translate(-92.127 -140.113)"/>
        <path id="路径_1933" d="M1026.789 894.5h-.257a11.94 11.94 0 0 1 .534-3.44c.121-.164.2-.147.246.053a15.224 15.224 0 0 1-.523 3.387z" class="cls-1" transform="translate(-92.284 -137.762)"/>
        <path id="路径_1934" d="M1026.491 905.576l.3-.61c.489 1.042.161 2.136.289 3.454a3.874 3.874 0 0 1-.589-2.844z" class="cls-1" transform="translate(-92.256 -143.409)"/>
        <path id="路径_1935" d="M1005.481 898.486a4.16 4.16 0 0 1-.463-2.649 1.557 1.557 0 0 1 .749 1.5c-.412.302-.223.757-.286 1.149z" class="cls-2" transform="translate(-83.585 -139.73)"/>
        <path id="路径_1936" d="M1024.563 698.7a4.987 4.987 0 0 1 0 3.463V698.7z" class="cls-2" transform="translate(-91.49 -60.286)"/>
        <path id="路径_1937" d="M1088.056 658.427a6.174 6.174 0 0 1-1.2 2.245 2.71 2.71 0 0 1 1.2-2.245z" class="cls-2" transform="translate(-116.594 -44.059)"/>
        <path id="路径_1938" d="M1023.591 699.806a5.742 5.742 0 0 1 0-1.508c.174-.653.428-.463.559.067-.55.335-.05 1.087-.559 1.441z" class="cls-2" transform="translate(-91.076 -59.959)"/>
        <path id="路径_1939" d="M1044.2 665.481c.356-.208.247-.582.317-.892l.605 1.787-.226.1z" class="cls-1" transform="translate(-99.404 -46.542)"/>
        <path id="路径_1940" d="M1023.043 704.325a5.213 5.213 0 0 1 .306-2.324c-.091.776.336 1.62-.306 2.324z" class="cls-2" transform="translate(-90.878 -61.618)"/>
        <path id="路径_1941" d="M1086.01 659.119a.571.571 0 0 0-.573-.284l.969-.8c.177.53-.128.799-.396 1.084z" class="cls-1" transform="translate(-116.021 -43.9)"/>
        <path id="路径_1942" d="M1009.1 908.4c.383.417.241.946.307 1.431-.307-.431-.787-.825-.307-1.431z" class="cls-2" transform="translate(-85.177 -144.794)"/>
        <path id="路径_1943" d="M1027.672 890.487c-.082-.019-.164-.036-.247-.053.06-.335-.155-.738.294-1.044.405.4-.135.75-.047 1.097z" class="cls-2" transform="translate(-92.644 -137.133)"/>
        <path id="路径_1944" d="M1082.139 666.948l-.389.353a.827.827 0 0 1 .1-1.218c.334.21.079.617.289.865z" class="cls-2" transform="translate(-114.446 -47.144)"/>
        <path id="路径_1945" d="M1006.808 899.751c.413.526.254 1.147.285 1.736-.527-.508-.21-1.154-.285-1.736z" class="cls-2" transform="translate(-84.325 -141.308)"/>
        <path id="路径_1946" d="M1092.12 580.12c.4-.19.277-.567.308-.888a.73.73 0 0 1-.014 1.189c-.187.156-.258-.13-.294-.301z" class="cls-2" transform="translate(-118.714 -12.145)"/>
        <path id="路径_1947" d="M1006.116 902.01a2.825 2.825 0 0 1-.284-1.75c.539.511.217 1.162.284 1.75z" class="cls-2" transform="translate(-83.939 -141.513)"/>
        <path id="路径_1948" d="M1006.939 906.034a2.766 2.766 0 0 1-.506-1.44c.611.323.518.896.506 1.44z" class="cls-2" transform="translate(-84.184 -143.259)"/>
        <path id="路径_1949" d="M1024.312 704.962c0 .586.171 1.2-.249 1.725.06-.578-.215-1.205.249-1.725z" class="cls-2" transform="translate(-91.278 -62.812)"/>
        <path id="路径_1950" d="M1082.354 666.934c-.383-.193-.275-.549-.285-.864a.906.906 0 0 1 .241-.007l.292-.013z" class="cls-1" transform="translate(-114.661 -47.131)"/>
        <path id="路径_1951" d="M889.329 733.639c.013 2.094-.024 4.19.051 6.283.158 4.419.332 8.84.593 13.253a2.451 2.451 0 0 1-1.748 2.784q-10.869 4.694-22.092 8.442c-1.787.6-3.245 1.942-5.046 2.629a55.557 55.557 0 0 1-6.967 1.995c-.423.1-.78.112-.981-.3-.719-1.476-2.131-1.425-3.436-1.564a45.29 45.29 0 0 1-7.563-1.352c-2.365-.667-2.98-2.29-3.416-4.327-.835-3.906-.031-7.8.093-11.683.157-4.933.761-9.857 1.32-14.769a119.623 119.623 0 0 0 .563-17.13c-.155-5.227-.373-10.454-.542-15.681a8.386 8.386 0 0 1 .732-3.594 47.511 47.511 0 0 0 3.626-12.861c.439-3.626 1.233-7.21 1.875-10.811.069-.389-.039-.971.636-.882 1.134.149 1.433-.556 1.494-1.443.37-5.334 2.316-10.4 2.681-15.728a124.974 124.974 0 0 0-.163-12.995c-.01-.278.005-.653-.374-.658-.441-.005-.486.4-.491.728-.027 1.714-.055 3.429-.052 5.143a54.948 54.948 0 0 1-1.534 15 56.25 56.25 0 0 0-1.331 8.282c-.147.021-.284.078-.317.041-3.773-4.259-8.759-6.57-13.875-8.673-1.445-.594-1.528-.786-.7-2.167a15.483 15.483 0 0 0 1.691-5.139 62.622 62.622 0 0 1 5.084-14.939 64.464 64.464 0 0 1 3.977-8.054 20.993 20.993 0 0 1 4.7-5.636 4.621 4.621 0 0 1 3.747-.853 4.107 4.107 0 0 0 1.269-.079 51.834 51.834 0 0 1 9.179-.757c.525.024.685.062.784.637.451 2.625 1 5.232 1.491 7.85a19.884 19.884 0 0 1 .42 2.816c.079 1.864 1.214 3.064 2.518 4.116a1.234 1.234 0 0 1 .593 1.405 38.329 38.329 0 0 0 .207 15.288 94.634 94.634 0 0 0 3.376 11.917c1.749 5.316 3.611 10.6 5.645 15.814a51.824 51.824 0 0 1 2.653 7.21 6.639 6.639 0 0 1 .041 3.382c-.4 1.4.268 2.791-.054 4.235a40.429 40.429 0 0 0-.585 5.091c-.057.614-.235.709-.89.685a5.517 5.517 0 0 0-4.85 1.839 3.133 3.133 0 0 1-3.257 1.261 8.724 8.724 0 0 0-3.083.356c-.623.111-.542.651-.571 1.141-.354 5.882-.543 11.773-1.023 17.649-.349 4.27-.865 8.518-1.58 12.735-.373 2.2-.986 4.353-1.243 6.583-.11.954.232 1.1 1.038 1.238a83.086 83.086 0 0 1 11.264 2.277 5.725 5.725 0 0 0 1.82.3 46.5 46.5 0 0 1 7.805.55c.776.127 1.592.208 1.142-1.09-.1-.3.155-.728.241-1.1a28.617 28.617 0 0 0 .956-6.773c-.02-1.825.974-3.465 1.193-5.269.211-1.739.51-3.467.771-5.2.555-.172.282.413.495.552z" class="cls-3" transform="translate(-13.824 -31.038)"/>
        <path id="路径_1952" d="M821.88 800.121c.06-.577-.233-1.151.37-1.6a.383.383 0 0 0-.046-.623c-1.465-.912-1.117-2.429-1.149-3.728-.1-4.139-.046-8.281-.108-12.42-.054-3.641-.013-7.3-.329-10.917-.352-4.033.144-8.048-.113-12.085-.225-3.533.318-7.108.394-10.667.09-4.193.075-8.389.04-12.583-.02-2.424-.32-4.839-.479-7.257-.179-2.731.8-5.317 1.428-7.951 1.511-6.382 2.8-12.816 4.314-19.2a66.24 66.24 0 0 0 1.638-8.967c.084-.878.584-.486 1.016-.366 2.612.727 4.747 2.383 7.088 3.639a14.444 14.444 0 0 1 4.382 3.136 2.493 2.493 0 0 1 .625 2.232c-.81 4.1-1.7 8.194-2.4 12.315a35.5 35.5 0 0 1-2.065 8.108c-.931 2.179-2.171 4.29-2.282 6.7-.106 2.325.078 4.666.172 7 .165 4.091.605 8.189.47 12.268-.139 4.168.029 8.337-.475 12.521-.51 4.238-.928 8.51-1.174 12.793-.207 3.593-.352 7.2-.678 10.79a16 16 0 0 0 1.182 7.559 4.454 4.454 0 0 0 2.769 2.115 22.3 22.3 0 0 0 7.179 1.71c.758.048 1.515.232 2.269.216 1.091-.024 1.513.648 1.8 1.51a17.933 17.933 0 0 0 3.539 6.128c2.319 2.7 2.268 4.429-.3 6.887-.441.423-.623 1.456-1.361 1.176-.574-.218-.2-1.123-.307-1.714-.294-1.639-.516-3.3-.9-4.914-.316-1.325-1.449-2.118-2.423-2.93a15.925 15.925 0 0 1-3.795-4.039c-.143-.244-.283-.582-.62-.459-.442.16-.284.563-.161.85a10.6 10.6 0 0 0 2.131 3.011 1.179 1.179 0 0 0 .229.171c3.447 2.183 4.3 5.611 4.386 9.35.072 3.1.039 6.2-.017 9.3-.014.732.182 1.936-.874 1.931-.963 0-1.063-1.037-1.134-1.973-.41-5.386-1.46-10.573-5.157-14.823-.032-.036-.049-.087-.085-.114-.451-.327-.728-1.3-1.432-.731-.593.478.057 1.063.394 1.466a18.049 18.049 0 0 1 4.039 7.444c.848 3.655 1.709 7.335.47 11.09-.09.271-.139.558-.243.822-.231.583-.489 1.29-1.2 1.251-.642-.035-.774-.774-.952-1.294a27.165 27.165 0 0 1-1.371-6.69c-.213-2.706-1.8-4.672-3.567-6.473-1.064-1.085-2.157-2.151-3.22-3.242-.36-.37-.693-.963-1.269-.645-.667.368-.19.988-.139 1.534.453 4.77 3.3 8.8 4.125 13.459a10.158 10.158 0 0 1-.072 3.393c-.1.638-.595.845-1.106.965-.535.127-.7-.315-.919-.7a111.767 111.767 0 0 1-6.566-13.749 19.03 19.03 0 0 0-3.866-5.939c-1.575-1.704-1.703-3.934-2.095-6.047z" class="cls-1" transform="translate(-9.232 -57.412)"/>
        <path id="路径_1953" d="M944.166 769.424c-.272 2.342-.467 4.7-.832 7.024a110.74 110.74 0 0 0-.887 19.856c.014.605-.085 1.213-.146 2.007a4.711 4.711 0 0 0-3.3-.81 2.543 2.543 0 0 0-1.666.713c-.488.524-.757 1.03-1.67.4-.795-.549-1.4.484-2.056.893l.016.015a1.665 1.665 0 0 0-2.026-.074c-.735.1-.525-.457-.6-.839-.392-2.082-.037-4.26-.8-6.3.244-4.752.073-9.511-.1-14.252-.131-3.633.553-7.3-.424-10.916-.324-1.194.141-2.452.2-3.682.1-2.036.157-4.073.065-6.118-.258-5.663.492-11.287.711-16.93a78.293 78.293 0 0 1 3.371-19.6 42.875 42.875 0 0 0 1.357-6.122c.1-.705.315-1.206 1.225-1.255a94.513 94.513 0 0 0 12.3-1.278c.54-.1.89-.043.746.727-1.231 6.536-1.394 13.252-3.162 19.691-2.1 7.645-1.94 15.485-2.247 23.29a2.456 2.456 0 0 0 .226 1.252c-.475 1.378-.137 2.806-.216 4.207-.142 2.693-.066 5.4-.085 8.101z" class="cls-1" transform="translate(-53.21 -65.695)"/>
        <path id="路径_1954" d="M952.255 645.956a121.043 121.043 0 0 0 2.2 12.653c1.032 4.885 1.542 9.855 2.108 14.813a33.405 33.405 0 0 0 .934 4.9c.394 1.461-.177 1.408-1.259 1.1a21.275 21.275 0 0 0-6.019-.948c-3.288.024-6.491.752-9.752 1.008a31.51 31.51 0 0 0-5.118.384c-.63.155-.833-.166-.676-.823 1.19-5.011 1.15-10.25 2.484-15.2 1.491-5.531 3.032-11.145 7.036-15.6a10.825 10.825 0 0 0 1.306-2.368c.146-.286.336-.657-.109-.853-.344-.152-.526.141-.635.407a16.7 16.7 0 0 1-3.127 4.23c-1.778 2.124-2.581 4.762-3.622 7.251a33.3 33.3 0 0 0-2.981 11.82 1.5 1.5 0 0 1-1.634 1.657c-1.8.015-3.579.58-5.389.07-.911-.256-1.288-.612-1.079-1.71 1.121-5.893 2.106-11.81 1.9-17.848-.024-.718.172-1.076.974-1.431 1.345-.6 1.986-2.1 3.026-3.134 3.537-3.509 4.487-7.916 4.286-12.716-.069-1.665.032-1.726 1.485-1.075a82.236 82.236 0 0 1 11.02 5.981c2.059 1.331 2.481 3.489 2.634 5.732.032.417.007.844.007 1.7z" class="cls-3" transform="translate(-52.121 -33.469)"/>
        <path id="路径_1955" d="M911.138 775.547c0 1.812.1 3.632-.032 5.433-.122 1.625-1.042 3.06-1.2 4.745a42.754 42.754 0 0 1-1.391 8.564c-1.091 3.539-.733 7.282-1.934 10.772-.25.725-.284 1.1-1.276.946a26.712 26.712 0 0 0-5.52-.355c-2.416.125-4.481-1.224-6.813-1.335-2.291-.109-4.41-1.1-6.678-1.324-.731-.072-.435-.51-.415-.924.113-2.442 1.122-4.709 1.36-7.124.371-3.774.96-7.52 1.292-11.3.5-5.68.354-11.38.771-17.057.044-.6.225-.9.852-.816a3.731 3.731 0 0 1 .427.014 5.436 5.436 0 0 0 5.924-2.068c.853-1.016 2.267-.848 3.481-1.017.448-.062.593.244.542.629-.056.421-.166.835-.243 1.253-.187 1.011-.207 1.915 1.113 2.19a2.391 2.391 0 0 0 2.631-1.318 9.934 9.934 0 0 0 .184-.98c.1-.53-.248-1.312.387-1.531a2.522 2.522 0 0 1 2.285.494 2.962 2.962 0 0 1 1.276 2.312 2.675 2.675 0 0 0 2.008 2.627c.928.349 1.042.9 1.018 1.739-.05 1.81-.015 3.623-.015 5.434z" class="cls-4" transform="translate(-35.573 -86.075)"/>
        <path id="路径_1956" d="M920.052 589.593c.742-.807 1.592-.218 2.387-.152.33.028.3.373.263.69-.536 4.2.1 5.473 3.968 6.9 1.909.7 3.945 1.436 6.25.353a41.388 41.388 0 0 1-2.92 7.906 7.116 7.116 0 0 1-3.413 4.171 19.614 19.614 0 0 1-9.92 3.1c-5.3.026-11.115-3.37-13.392-8.252a17.779 17.779 0 0 0-1.209-2.086 3.764 3.764 0 0 1-.618-2.3 76.141 76.141 0 0 1 1.146-11.475 1.187 1.187 0 0 1 1.175-1.026c1.135-.1 2.273-.167 3.408-.276.647-.062.513.388.537.745.262 3.87.869 4.576 4.779 5.554 3.677.917 6.101-.317 7.559-3.852z" class="cls-1" transform="translate(-41.873 -15.331)"/>
        <path id="路径_1957" d="M905.369 850.44l-.032 2.86c-.468.5-1.3-.084-1.711.578a4.653 4.653 0 0 0-.861 2.979l-.042.193c-1.252 2.121-3.478 2.606-5.577 3.049-4.337.916-7.543 3.016-8.81 7.468-.21.738-.744.622-1.244.611-3.412-.069-6.824-.155-10.235-.231a4.369 4.369 0 0 0-1.281.024c-1.389.408-2.184.036-2.214-1.51-.786-2.466-2.848-4.115-4.043-6.335-1.021-1.9-1.076-1.921 1.073-2.219a21.338 21.338 0 0 0 8.177-2.653 48.086 48.086 0 0 1 9.179-3.776 171.235 171.235 0 0 0 15.952-6.428c.74-.346.976-.2 1.085.512.293 1.514.071 3.093.57 4.581q.122.091.088.192c-.024.071-.048.105-.074.105z" class="cls-4" transform="translate(-28.655 -119.193)"/>
        <path id="路径_1958" d="M907.083 700.889c-.773-3.905-2.591-7.429-4.177-11.016a49.174 49.174 0 0 1-3.425-10.823c-.7-3.724-1.887-7.361-2.221-11.162a20.7 20.7 0 0 1 .015-5.672c.164-.878.413-.913 1.07-.493.919.587 1.907 1.073 2.793 1.7 2.934 2.083 6.052 1.934 9.25.832a12.493 12.493 0 0 0 3.081-1.158c-1.474 12.927-3.825 25.607-5.859 38.337-.549.18-.276-.434-.527-.545z" class="cls-3" transform="translate(-40.112 -45.282)"/>
        <path id="路径_1959" d="M902.37 624.6c.635-.426-.035-1.321.622-1.739 1.637 1.125 3.048 2.537 4.745 3.6 3.426 2.151 7.129 2.26 10.954 1.724.282-.039.562-.092.845-.134.766-.113.9.132.612.861-1.442 3.666-3.072 7.283-4.163 11.054a6.363 6.363 0 0 1-3.906 4.591 10.015 10.015 0 0 1-6.154.177c-2.408-.6-4.12-2.3-6.247-3.3a1.184 1.184 0 0 1-.711-1.414c1.166-5.13 1.863-10.368 3.403-15.42z" class="cls-1" transform="translate(-40.862 -29.726)"/>
        <path id="路径_1960" d="M923.86 717.968c-3.672.131-4.018-.26-3.457-3.63.7-4.213 1.667-8.37 2.619-12.531.285-1.245.485-2.511.737-3.764.075-.372.125-.8.715-.5 2.042 1.016 4.177.623 6.271.294 1.074-.168 1.267.144 1.026 1.084a46.9 46.9 0 0 0-1.2 7.136 28.817 28.817 0 0 1-.449 5.081c-.506 1.83-1.03 3.656-1.521 5.49a1.276 1.276 0 0 1-1.27.949 21.191 21.191 0 0 1-3.471.391z" class="cls-4" transform="translate(-49.43 -59.781)"/>
        <path id="路径_1961" d="M907.269 575.945a61.468 61.468 0 0 0 8.973-5.753 16.4 16.4 0 0 0 4.3-5.96c.587-1.215 1.041-1.343 2.212-.625 2.9 1.777 5.146 4.361 7.969 6.215a2.308 2.308 0 0 1 .784 1.172c.768 1.937 1.4 3.921 2.274 5.824.589 1.28.283 1.605-1.026 1.3a38.068 38.068 0 0 0-4.783-.457 3.183 3.183 0 0 0-2.419.58 2.034 2.034 0 0 1-2.772-.634 4.714 4.714 0 0 0-2.71-1.7c-2.625-1.054-5.234-2.122-8.181-1.535-.764.152-1.187.434-1.289 1.223-.049.386-.11 1.1-.6.921-.901-.336-2.032.545-2.732-.571z" class="cls-1" transform="translate(-44.223 -5.671)"/>
        <path id="路径_1962" d="M923.94 755.772a2.517 2.517 0 0 1-2.14-2.172 3.969 3.969 0 0 0-3.9-3.513c-.854-.064-.893-.335-.825-1.029q.243-2.487.346-4.986c.048-1.206 1.18-1.943 1.238-3.152.022-.462.3-.987.084-1.395-1.042-1.947.042-3.824.115-5.73.021-.552.386-.553.815-.425a11.393 11.393 0 0 0 6.011.031c.834-.2.885.08.722.785a76.462 76.462 0 0 0-2.183 18.357 31.893 31.893 0 0 1-.283 3.229z" class="cls-3" transform="translate(-48.163 -74.233)"/>
        <path id="路径_1963" d="M926.619 648.525c-.3 1.392-.5 2.814-.919 4.17a23.99 23.99 0 0 0-1.03 6.453c-.2 7.22-1.8 14.232-3.031 21.3a72.18 72.18 0 0 1-1.881 8.178c-.789-.35-.383-.958-.321-1.491a64.4 64.4 0 0 1 1.46-9.8c1.005-5.262 1.411-10.61 2.258-15.893.7-4.392 1.1-8.853 2.7-13.061.132-.348.305-.68.458-1.02.787.206.401.723.306 1.164z" class="cls-4" transform="translate(-49.063 -39.597)"/>
        <path id="路径_1964" d="M921.179 584.7c.608.252 1.211.515 1.823.755 1.285.505 1.993 1.229 1.036 2.619-.3.364-.628.71-.9 1.1a4.04 4.04 0 0 1-5.1 1.521 1.155 1.155 0 0 1-1.364-.324l-2.046-1.442.007.018a7.913 7.913 0 0 1 .018-4.334 1.211 1.211 0 0 1 1.579-1.1c1.697.216 3.289.831 4.947 1.187z" class="cls-1" transform="translate(-47.073 -13.858)"/>
        <path id="路径_1965" d="M914.31 657.72a1.753 1.753 0 0 1-1.255 2.082c-2.33.943-4.655 1.8-7.254 1.571a7.3 7.3 0 0 1-3.2-1.07 20.823 20.823 0 0 0-3.691-2.129 1.3 1.3 0 0 1-.888-.869c-.118-.5-.235-1.111.19-1.488s.773.156 1.11.34c1.893 1.029 3.533 2.385 5.733 3.011a10.548 10.548 0 0 0 9.255-1.448z" class="cls-4" transform="translate(-40.451 -42.955)"/>
        <path id="路径_1966" d="M892.426 636.225a7.535 7.535 0 0 1-1.2-3.648c-.357-2.107-.881-4.184-1.175-6.3-.084-.609-.114-.834.687-.689 1.179.214 2.27.7 3.437.914.563.1.5.367.392.807-.716 2.891-1.398 5.802-2.141 8.916z" class="cls-1" transform="translate(-37.268 -30.807)"/>
        <path id="路径_1967" d="M885.435 626.258c.066-.569 0-1.31.547-1.228.448.067 1.189.084 1.319 1.062a58.908 58.908 0 0 0 1.636 8.939 3.914 3.914 0 0 0 1.029 1.99c.356.316.121 2.783-.249 3.058-.4.3-.561-.088-.775-.317a6.524 6.524 0 0 1-1.639-4.292c-.145-2.823-1.247-5.444-1.654-8.208-.055-.373-.156-.738-.214-1.004z" class="cls-4" transform="translate(-35.425 -30.598)"/>
        <path id="路径_1968" d="M917.618 713.983c.106.5-.187 1.08.32 1.491a15.668 15.668 0 0 1-.605 3.941c-.6 3.364-.382 6.811-1.084 10.165-.129.615-.348.82-.927.759-.648-.069-.592-.532-.518-.956q1.321-7.581 2.666-15.158a.809.809 0 0 1 .148-.242z" class="cls-4" transform="translate(-47.243 -66.447)"/>
        <path id="路径_1969" d="M902.513 704.958c2.069 4.477 4.262 8.9 5.592 13.684.19.685-.03 1.445.43 2.062.1.308-.041.367-.306.3-2.435-4.122-3.365-8.826-5.1-13.218l-.9-2.238c-.154-.316-.25-.607.284-.59z" class="cls-4" transform="translate(-42.143 -62.81)"/>
        <path id="路径_1970" d="M914.2 751.415c-.2 2.65-.413 5.3-.583 7.95-.056.872-.617 1.28-1.3 1.167-.734-.123-.356-.825-.279-1.3a58.718 58.718 0 0 0 .749-6.94c.02-.473.159-.941.171-1.413.017-.657.272-.979.958-.878.753.111.344.62.343.989 0 .143-.017.285-.026.429z" class="cls-4" transform="translate(-46.078 -80.954)"/>
        <path id="路径_1971" d="M931.456 649.886a6.381 6.381 0 0 1 2.016-3.145c2.238-2.275 2.876-5.16 3.743-8 .761.358.348.954.3 1.476.057 2.9-1.394 5.187-3.124 7.29-.838 1.018-1.753 1.986-2.6 3.007-.521.01-.491-.277-.335-.628z" class="cls-4" transform="translate(-53.93 -36.126)"/>
        <path id="路径_1972" d="M936.558 632.937c.889 3.1-.976 8.835-3.4 10.508.561-3.79 2.904-6.858 3.4-10.508z" class="cls-1" transform="translate(-54.658 -33.787)"/>
        <path id="路径_1973" d="M898.931 590.815l.273.226c.453.5.247 1.038.164 1.611a25.524 25.524 0 0 0-.456 4.911c-1.3-1.231-1.823-5.3-.991-6.5.279-.396.626-.355 1.01-.248z" class="cls-1" transform="translate(-40.295 -16.783)"/>
        <path id="路径_1974" d="M931.369 642.69c-.063-.4.128-.867-.3-1.171l3.043-8.645.512.169c-.484 3.399-2.424 6.357-3.255 9.647z" class="cls-4" transform="translate(-53.813 -33.762)"/>
        <path id="路径_1975" d="M915.339 743.3c.581-.008 1.035.142 1.051.842.017.737-1 2.016-1.589 2.017-.861 0-1-.568-.991-1.233a1.45 1.45 0 0 1 1.529-1.626z" class="cls-4" transform="translate(-46.86 -78.259)"/>
        <path id="路径_1976" d="M941.112 637.168c-.118-.488.175-1.06-.3-1.476-.148-1.34.308-2.747-.463-4.02-.159-.264-.006-.466.272-.494a.621.621 0 0 1 .733.672c-.054 1.774.346 3.57-.242 5.318z" class="cls-1" transform="translate(-57.528 -33.077)"/>
        <path id="路径_1977" d="M917.073 594.987a2.434 2.434 0 0 1 1.364.324c-.045.577-.374.933-.929.815a4.9 4.9 0 0 1-2.181-1.008c.662-.401 1.228.072 1.746-.131z" class="cls-2" transform="translate(-47.471 -18.479)"/>
        <path id="路径_1978" d="M899.459 696.387c.233-.128.26-.359.293-.587l1.12 3.749c-.208.154-.045.49-.3.62z" class="cls-1" transform="translate(-41.076 -59.12)"/>
        <path id="路径_1979" d="M927.771 804.108l-.5-.553a5.714 5.714 0 0 1 .5-2.571z" class="cls-1" transform="translate(-52.266 -101.506)"/>
        <path id="路径_1980" d="M913.515 584.287a1.54 1.54 0 0 1-.33 1.873c-.458-.76-.132-1.187.33-1.873z" class="cls-2" transform="translate(-46.518 -14.182)"/>
        <path id="路径_1981" d="M901.317 702.7c.034-.24.055-.486.3-.62l.574 1.719a.647.647 0 0 0-.289.591 3.122 3.122 0 0 1-.585-1.69z" class="cls-1" transform="translate(-41.825 -61.65)"/>
        <path id="路径_1982" d="M914.259 592.482l-.076.992c-.544-.131-.866-.438-.732-.906.15-.524.533-.078.814-.068z" class="cls-2" transform="translate(-46.703 -17.417)"/>
        <path id="路径_1983" d="M921.367 596.808a1.1 1.1 0 0 1 1.5.4 1.661 1.661 0 0 1-1.5-.4z" class="cls-2" transform="translate(-49.905 -19.169)"/>
        <path id="路径_1984" d="M912.361 731.634l.306-.3c.372.3.279.736.321 1.131.082.287.254.621-.3.567z" class="cls-1" transform="translate(-46.275 -73.439)"/>
        <path id="路径_1985" d="M912.895 733.8c.242-.114.253-.35.3-.567a2.433 2.433 0 0 1 .233.645c.017.248.107.682-.3.636-.348-.043-.228-.451-.233-.714z" class="cls-1" transform="translate(-46.484 -74.202)"/>
        <path id="路径_1986" d="M936.977 630.883c-.149-.125-.3-.189-.327-.286-.075-.3.177-.388.385-.456.162-.053.423-.081.354.2-.048.192-.254.343-.412.542z" class="cls-1" transform="translate(-56.058 -32.646)"/>
        <path id="路径_1987" d="M921.509 582.63c.13.181.287.31.316.463.05.257-.168.317-.339.217a.809.809 0 0 1-.275-.414c-.011-.039.161-.147.298-.266z" class="cls-2" transform="translate(-49.841 -13.514)"/>
        <path id="路径_1988" d="M931.335 657.408c.039.248.071.5.335.629l-.47.728a1.183 1.183 0 0 1 .135-1.357z" class="cls-1" transform="translate(-53.809 -43.648)"/>
        <path id="路径_1989" d="M913.838 727.5l.527.547c.005.18.015.46-.239.343-.352-.161-.296-.555-.288-.89z" class="cls-1" transform="translate(-46.867 -71.894)"/>
        <path id="路径_1990" d="M945.177 597.526a11.3 11.3 0 0 1-5.854-2.309c-1.25-.972-1.334-4.029-.225-5.14a1.279 1.279 0 0 1 1.217-.224 14.185 14.185 0 0 0 3.7.192c2.08-.2 3.295 1.446 4.938 2.167.064.029.1.153.125.24.585 1.933-1.619 5.057-3.901 5.074z" class="cls-1" transform="translate(-56.737 -16.404)"/>
        <path id="路径_1991" d="M954.508 606.442a3.678 3.678 0 0 1-1.708 4.958c.457-1.765 1.529-3.213 1.708-4.958z" class="cls-4" transform="translate(-62.571 -23.11)"/>
        <path id="路径_1992" d="M950.729 843a5.158 5.158 0 0 0 1.725-6.645 6.248 6.248 0 0 1-.633-3.619c.343-2.679-.024-5.374.012-8.062a142.963 142.963 0 0 1 1.533-15.952c.126-1 .127-1.989.158-2.984.488-1.207.146-2.484.312-3.718l-.01.017c.7-.428.578-1.408 1.507-2 1.368 1.459 2.755 3.008 4.218 4.48 1.83 1.84 4.293 2.562 6.6 3.521a1.961 1.961 0 0 1 1.313 1.284c1.709 4.982 3.38 9.981 5.242 14.906 1.461 3.864 3.236 7.607 4.765 11.447 1.124 2.823 1.983 5.75 3.685 8.319.69 1.042.053 2.056-.355 2.974-.576 1.3-1.322 2.521-2.022 3.761a1.315 1.315 0 0 1-1.315.665c-5.934-.2-11.867-.447-17.807-.491-1.557-.011-3.131-.183-4.7-.139-.849.023-1.346-.345-1.342-1.087.013-2.5-1.515-4.2-2.932-5.959-.258-.338-.116-.493.046-.718z" class="cls-4" transform="translate(-61.662 -101.121)"/>
        <path id="路径_1993" d="M969.968 747.6c-.523 3.765-1.019 7.534-1.576 11.294-.626 4.223-1.321 8.436-1.957 12.659a7.39 7.39 0 0 0 .707 3.59c1.118 3.132 2.188 6.279 3.072 9.486a.944.944 0 0 1-.068.822 21.636 21.636 0 0 1-9.069-5.906c-2.067-2.119-2.1-2.322-1.021-5.063a50.7 50.7 0 0 1 3.01-5.5c1.493-2.762 1.958-5.843 2.895-8.775 1.013-3.171 1.906-6.38 2.811-9.584.361-1.279.612-2.59.913-3.887.691.087.34.523.283.864z" class="cls-3" transform="translate(-65.212 -79.644)"/>
        <path id="路径_1994" d="M955.652 800.65c-.262.038-.6.2-.6-.279a26.6 26.6 0 0 1 .162-3.731c-.376 1.407.965 2.611.427 4.027z" class="cls-2" transform="translate(-63.478 -99.756)"/>
        <path id="路径_1995" d="M976.94 746.423c-.062-.3.045-.654-.284-.866a4.563 4.563 0 0 1 .543-1.74h.263c-.308.843-.068 1.794-.522 2.606z" class="cls-1" transform="translate(-72.185 -78.469)"/>
        <path id="路径_1996" d="M999.563 914.284a.7.7 0 0 0 .337-.628c.271.293.446.669.157.972-.151.161-.38-.139-.494-.344z" class="cls-1" transform="translate(-81.416 -146.911)"/>
        <path id="路径_1997" d="M926.8 859.218c.507-.971 1.308-.281 1.975-.349a5.219 5.219 0 0 1 .057 3.04c-.14.35.353 1.11-.465.992-.605-.088-1.368-.347-1.325-1.213a10.04 10.04 0 0 1 .347-1.645c.033-.053.066-.105.1-.155.357-.818-.697-.206-.689-.67z" class="cls-4" transform="translate(-52.095 -124.763)"/>
        <path id="路径_1998" d="M926.273 861.365a5.147 5.147 0 0 0 .375 2.754c-.567.226-.649-.36-.994-.437h.023a2.378 2.378 0 0 1 .37-2.349z" class="cls-2" transform="translate(-51.586 -125.826)"/>
        <path id="路径_1999" d="M930.154 853.772l-.016-.294.432-.337a1.448 1.448 0 0 1 .109.493c-.06.393-.321.191-.525.138z" class="cls-2" transform="translate(-53.439 -122.524)"/>
        <path id="路径_2000" d="M927.3 860.467l-.609.257c-.287-.447-.009-.7.33-.911a.351.351 0 0 1 .5.073c.147.254-.071.426-.242.586z" class="cls-2" transform="translate(-52.001 -125.185)"/>
        <path id="路径_2001" d="M948.079 861.818a3.656 3.656 0 0 1-2.227 3.574c-1.441.408-2.844-.257-3.819-1.809-1.087-1.731-.955-4.6.257-5.568 2-1.6 4.671-.681 5.5 1.919a3.86 3.86 0 0 1 .289 1.884z" class="cls-4" transform="translate(-57.934 -124.171)"/>
        <path id="路径_2002" d="M939.116 858.578a7.314 7.314 0 0 0-.5 4.561c.045.284.174.58-.171.731a.816.816 0 0 1-.934-.109c-1.044-1.063-.579-2.345-.315-3.494.176-.775.453-1.813 1.92-1.689z" class="cls-4" transform="translate(-56.147 -124.712)"/>
        <path id="路径_2003" d="M934.673 858.489a9.313 9.313 0 0 0-.794 4.708c-.809-.094-1.644-.321-1.656-.984-.017-.971-.144-2.134.861-2.83a16.782 16.782 0 0 1 1.6-.879z" class="cls-4" transform="translate(-54.274 -124.68)"/>
        <path id="路径_2004" d="M1005.2 752.523c3.367 1.079 6.878 1.792 10.091 3.727-1.318.327-8.591-2.25-10.091-3.727z" class="cls-2" transform="translate(-83.689 -81.978)"/>
        <path id="路径_2005" d="M1059.684 621.817a4.643 4.643 0 0 1-4.143-2.506c-.213-.544-.352-1.155.466-1.133 3.218.09 5.853-1.347 8.4-3.064.35-.237.685-.609 1.148-.37.541.279.364.835.344 1.283a6.238 6.238 0 0 1-6.215 5.79z" class="cls-2" transform="translate(-103.908 -26.425)"/>
        <path id="路径_2006" d="M1046.455 601.914a1.45 1.45 0 0 1-1.474 1.341c-1.494-.021-1.458-1.331-1.546-2.3a1.531 1.531 0 0 1 1.475-1.765c.899-.075 1.575 1.076 1.545 2.724z" class="cls-2" transform="translate(-99.092 -20.185)"/>
        <path id="路径_2007" d="M1073.886 595.461c.056.977-.343 1.59-1.38 1.54a1.434 1.434 0 0 1-1.5-1.793c.12-.942.012-2.152 1.347-2.31.835-.098 1.538 1.191 1.533 2.563z" class="cls-2" transform="translate(-110.196 -17.649)"/>
        <path id="路径_2008" d="M1069.793 585.84c.377.022.757.018 1.128.074a.53.53 0 0 1 .46.612c-.026.37-.266.407-.6.386a9.111 9.111 0 0 0-3.968.822c-.449.18-1.042.429-1.257-.073-.275-.643.531-.655.875-.851a6.172 6.172 0 0 1 3.362-.97z" class="cls-2" transform="translate(-107.988 -14.806)"/>
        <path id="路径_2009" d="M1054.657 609.63c.044-.113.069-.4.221-.509.221-.161.443.033.575.243a1.723 1.723 0 0 0 2.733.644c.355-.233.9-.377 1.17.02.332.482-.224.757-.522 1a2.433 2.433 0 0 1-2.779.352c-.664-.338-1.361-.724-1.398-1.75z" class="cls-2" transform="translate(-103.618 -24.166)"/>
        <path id="路径_2010" d="M923.573 616.378a19.428 19.428 0 0 1-7.189-2.4 5.242 5.242 0 0 1-1.992-3.509c-.193-.784.221-1.031 1-.675a30.1 30.1 0 0 0 11.068 2.906 1.226 1.226 0 0 1 1.107.52c.31.513-.179.76-.406 1.093a4.1 4.1 0 0 1-3.588 2.065z" class="cls-2" transform="translate(-47.075 -24.395)"/>
        <path id="路径_2011" d="M926.431 605.438a2.973 2.973 0 0 1-3.141-2.213c-.081-.314-.264-.658.156-.863a.582.582 0 0 1 .843.291c.49 1.4 1.588 1.408 2.781 1.348.456-.023 1.2-.328 1.29.419.07.565-.63.587-1.053.744-.352.129-.716.224-.876.274z" class="cls-2" transform="translate(-50.635 -21.435)"/>
        <path id="路径_2012" d="M926.744 860.327l.014-.5c-.521-.006-.545.386-.6.752-.767.626-.516 1.514-.6 2.317-.753-1.307.024-2.337.616-3.4a3.619 3.619 0 0 1 .547-.087c.4 0 .992-.171 1.048.359.079.732-.65.41-1.025.559z" class="cls-2" transform="translate(-51.469 -125.039)"/>
        <path id="路径_2013" d="M940.142 583.914c-.149-.059-1.113.95-1.2-.22-.066-.874 1.031-.921 1.663-.974a7.646 7.646 0 0 1 3.585.744c.362.153.691.407.546.869-.134.425-.535.352-.848.3-1.122-.199-2.234-.427-3.746-.719z" class="cls-2" transform="translate(-56.985 -13.543)"/>
        <path id="路径_2014" d="M921.167 578.228a7.422 7.422 0 0 1 4.021 1.575.667.667 0 0 1 .259.985c-.279.417-.656.258-1.005.059a16.256 16.256 0 0 0-3.457-1.63c-.319-.093-.848-.22-.693-.726s.665-.167.875-.263z" class="cls-2" transform="translate(-49.46 -11.733)"/>
        <path id="路径_2015" d="M922.266 588.142c-.1.679-.057 1.662-1.154 1.693-.912.026-1.239-.649-1.248-1.555s.128-1.7 1.158-1.789 1.21.709 1.244 1.651z" class="cls-2" transform="translate(-49.299 -15.067)"/>
        <path id="路径_2016" d="M945.695 593.9c-.026.893-.268 1.622-1.341 1.63a1.1 1.1 0 0 1-1.215-1.259 1.537 1.537 0 0 1 1.7-1.659c.983.001.818.694.856 1.288z" class="cls-2" transform="translate(-58.677 -17.537)"/>
        <path id="路径_2017" d="M1066.015 617.843a4.7 4.7 0 0 1-3.279 3.6 2.908 2.908 0 0 1-3.762-.808 16.6 16.6 0 0 0 7.041-2.792z" class="cls-4" transform="translate(-105.357 -27.704)"/>
        <path id="路径_2018" d="M926.8 615.565c-1.8 1.423-7.782-.184-9.049-2.522a40.285 40.285 0 0 0 9.049 2.522z" class="cls-4" transform="translate(-48.447 -25.77)"/>
    </g>
</svg>
