<svg xmlns="http://www.w3.org/2000/svg" viewBox="0 0 224.56 302.531">
    <defs>
        <style>
            .cls-1{fill:#fff}.cls-2{fill:#b4885b}.cls-3{fill:#fdf0e3}.cls-4{fill:#5478bc}.cls-5{fill:#fffffd}.cls-6{fill:#fdfdfd}
        </style>
    </defs>
    <g id="map-east" transform="translate(-657.96 -1110)">
        <path id="路径_3341" d="M824.51 1448.232a1.442 1.442 0 0 1 .111.413c.229 1.688.444 3.379.612 5.073a19.977 19.977 0 0 0 .456 2.636 6.947 6.947 0 0 1-.272 3.826c-1.025 3.2-2.273 6.31-3.38 9.477a13.614 13.614 0 0 0-.619 7.112 6.914 6.914 0 0 1-.148 3.05c-2 7.751-4.082 15.484-5.815 23.3a52.262 52.262 0 0 0-1.078 10.553c-.049 3.242-.113 6.617-.345 9.877a67.683 67.683 0 0 0-18.4 2.757 32.075 32.075 0 0 1-6 1.46c-1.573.151-3.166.019-4.731.236a40.4 40.4 0 0 0-5.67 1.621 8.959 8.959 0 0 1-5.793.111c-4.857-1.95-4.976-13.83-5.915-18.217-1.956-9.133-3.2-18.388-4.707-27.6-1.212-7.394-2.442-14.787-3.348-22.227-.657-5.4-1.22-10.8-2.184-16.158a2.271 2.271 0 0 1-.049-.565c.03-.4.237-.522.6-.383a2.7 2.7 0 0 1 .686.428 15.376 15.376 0 0 0 8.414 3.073 74.775 74.775 0 0 0 10.2.045 61.058 61.058 0 0 0 9.565-1.145 2.969 2.969 0 0 0 2.133-1.58 11.226 11.226 0 0 0 1-2.39c.661-2.466 1.852-4.735 2.619-7.161a1.437 1.437 0 0 1 .264-.5c.192-.227.356-.207.492.056a3.73 3.73 0 0 1 .252.853 78.117 78.117 0 0 0 2.757 9.753 29.164 29.164 0 0 0 2.344 4.441 2.053 2.053 0 0 0 1.89.887 33.365 33.365 0 0 0 9.308-1.147 70.635 70.635 0 0 1 12.044-2.092c.594-.047 1.178-.166 1.765-.258.484-.071.784.047.942.385z" class="cls-1" transform="translate(-35.91 -117.641)"/>
        <path id="路径_3342" d="M796.217 1524.638a8.96 8.96 0 0 0 .691-2.708c.2-1.251.455-2.493.585-3.758a11.961 11.961 0 0 0 .055-2.265 48.565 48.565 0 0 1-.086-5.594 30.882 30.882 0 0 1 .68-4.313c.173-1.01.321-2.026.412-3.046a41.14 41.14 0 0 1 .865-5.675c.491-2.108 1.148-4.162 1.829-6.211a11.559 11.559 0 0 0-.156-6.788 7.312 7.312 0 0 0-1.6-2.7 60.462 60.462 0 0 1-3.867-5.5c-.687-1-1.4-1.989-2.115-2.973a14.377 14.377 0 0 0-4.477-3.93 15.894 15.894 0 0 1-1.609-1.091 6.267 6.267 0 0 0-1.636-1.035c-.188-.067-.355-.169-.34-.4.018-.272.251-.342.456-.387a1.206 1.206 0 0 1 .478.024 3.275 3.275 0 0 1 .977.385c1.237.72 2.482 1.428 3.712 2.161a17.438 17.438 0 0 1 4.555 4.445c1.465 1.846 2.7 3.844 4.084 5.747.153.211.273.47.585.538-.313-2.935-.554-5.86-.789-8.788-.161-2.017-.313-4.036-.479-6.053-.077-.94-.223-1.875-.355-2.81-.031-.216-.1-.417.029-.623a.349.349 0 0 1 .644 0 4.238 4.238 0 0 1 .375.8 26.385 26.385 0 0 1 1.116 4.886c.147.877.249 1.761.379 2.7a3.571 3.571 0 0 0 1.132-.892c2.753-2.958 6.274-4.629 9.97-6.014a34.9 34.9 0 0 1 7.228-1.729 5.4 5.4 0 0 1 .89-.054.942.942 0 0 1 .83 1.522 5.766 5.766 0 0 1-.864.965c-.07.075-.128.16-.206.26h2.008c.39 0 .784-.008.949.438.112.3-.187.7-.693.86a24.767 24.767 0 0 1-3.753.99 7.813 7.813 0 0 1-.971.039.95.95 0 0 1-.917-.557.927.927 0 0 1 .19-1.055c.241-.291.517-.552.776-.829.182-.195.36-.393.66-.721-.413.046-.686.054-.95.11a37.415 37.415 0 0 0-11.381 4.558 28.23 28.23 0 0 0-2.961 2.259 4.983 4.983 0 0 1-1.444.887.416.416 0 0 0-.334.531c.219 1.848.4 3.7.638 5.547.3 2.3.712 4.584 1.208 6.852a27.743 27.743 0 0 1 .512 2.949 1.117 1.117 0 0 0 .669.987 7.558 7.558 0 0 1 2.414 1.883c.424.525.854 1.047 1.28 1.571a.673.673 0 1 1-.938.956c-.365-.276-.684-.612-1.021-.924a17.311 17.311 0 0 0-2.139-1.921 15.18 15.18 0 0 0-.389 1.993 21.514 21.514 0 0 1-.682 2.413 34.111 34.111 0 0 0-1.951 8.252c-.22 2.391-.611 4.76-1.014 7.129a18.651 18.651 0 0 0-.176 4.116 39.237 39.237 0 0 1-.274 7.841 76.527 76.527 0 0 1-2.12 8.306 5.425 5.425 0 0 1-1.109 2.052c-.356.433-.68.563-1.039.421a.91.91 0 0 1-.581-.966 5.18 5.18 0 0 1 .345-1.9 2.039 2.039 0 0 0 .051-1.343c-.211-.78-.346-1.581-.523-2.37a8.408 8.408 0 0 0-2.956-4.807 119.07 119.07 0 0 1-8.976-8.441 8.869 8.869 0 0 1-1.31-1.645c-.147-.242-.269-.518-.006-.732s.509-.061.726.129c.773.675 1.525 1.379 2.325 2.02 2.3 1.846 4.375 3.945 6.568 5.909.644.577 1.313 1.126 1.957 1.7a10.292 10.292 0 0 1 3.027 4.437c.089.295.187.574.327.98z" class="cls-2" transform="translate(-44.556 -126.974)"/>
        <path id="路径_3343" d="M788.752 1505.955a82.915 82.915 0 0 0-7.171-9.694c-1.749-1.95-3.376-4-4.961-6.088a1.225 1.225 0 0 1-.18-.267c-.084-.206-.134-.433.059-.6a.486.486 0 0 1 .605 0 3.388 3.388 0 0 1 .553.471c2.177 2.217 4.28 4.5 6.37 6.8a60 60 0 0 1 6.368 8.873 6.287 6.287 0 0 1 .871 2 1.574 1.574 0 0 1-.061 1.031 1.089 1.089 0 0 1-1.4.626 4.9 4.9 0 0 1-1.633-1.03c-1.576-1.313-3.141-2.641-4.815-3.831-1.123-.8-2.247-1.594-3.427-2.306a.528.528 0 0 0-.371-.135c-.152.182-.031.353.031.525q1.252 3.465 2.5 6.931a7.848 7.848 0 0 1 .3.922.551.551 0 0 1-.248.7c-.306.155-.523-.005-.705-.218a2.677 2.677 0 0 1-.361-.535 47.132 47.132 0 0 1-3.357-7.717 15.978 15.978 0 0 1-.416-1.73 1.058 1.058 0 0 1 1.678-1.171 56.039 56.039 0 0 1 9.584 6.614c.186.074.235-.001.187-.171z" class="cls-2" transform="translate(-42.833 -137.175)"/>
        <path id="路径_3344" d="M822.96 1542.888a84.562 84.562 0 0 1 5.426 9.671 12.39 12.39 0 0 1 .513 1.188c.114.294.145.613-.195.776s-.557-.048-.729-.325c-.668-1.079-1.361-2.143-2.006-3.235-1.277-2.162-2.484-4.366-3.8-6.5a26.557 26.557 0 0 0-3.923-4.936 3.574 3.574 0 0 1-.428-.484.686.686 0 0 1-.049-.831.814.814 0 0 1 .765-.364 1.4 1.4 0 0 1 .675.253c4.538 2.774 9.034 5.613 13.376 8.687a6.058 6.058 0 0 1 1.87 1.881 3.977 3.977 0 0 1 .309.659.769.769 0 0 1-.257.876.638.638 0 0 1-.825-.02 3.85 3.85 0 0 1-.915-.789 7.576 7.576 0 0 0-1.76-1.54c-2.621-1.713-5.232-3.443-7.847-5.167-.187-.05-.266.005-.2.2z" class="cls-2" transform="translate(-57.766 -154.772)"/>
        <path id="路径_3345" d="M816.475 1489.279a1.194 1.194 0 0 1 .692.356c.461.417.927.827 1.372 1.26 1.649 1.606 3.533 2.924 5.312 4.371 1.151.936 2.325 1.845 3.473 2.786a3.466 3.466 0 0 1 .928 1.008.778.778 0 0 1-.117 1.033.74.74 0 0 1-.968 0 59.1 59.1 0 0 1-8.272-6.61 19.76 19.76 0 0 1-2.5-2.969 1.654 1.654 0 0 1-.331-.642.456.456 0 0 1 .411-.593z" class="cls-2" transform="translate(-57.189 -137.204)"/>
        <path id="路径_3346" d="M795.67 1515.452c.139.1.384.229.2.4s-.294-.079-.382-.23z" class="cls-2" transform="translate(-49.751 -146.672)"/>
        <path id="路径_3347" d="M825.816 1545.484a.642.642 0 0 1-.126-.089c-.083-.093-.218-.2-.1-.324s.232.012.328.09a.7.7 0 0 1 .1.121z" class="cls-3" transform="translate(-60.623 -157.368)"/>
        <path id="路径_3348" d="M882.269 1300.068a3.733 3.733 0 0 0-1.374-2.562c-1.643-1.326-3.309-2.616-5.043-3.818a2.5 2.5 0 0 1-1.2-2.163c-.035-3.379-.06-6.758-.116-10.137-.191-11.412.033-22.826-.17-34.24-.236-13.251.087-26.506-.166-39.759-.211-11.086.087-22.177-.17-33.266-.193-8.327.061-16.657-.147-24.989-.21-8.38.064-16.766-.177-25.15-.12-4.16.064-8.329-.258-12.486-.091-1.163-.343-1.4-1.523-1.387-2.563.028-5.126.023-7.691.019-45.99-.085-91.98.056-137.97-.094-21.491-.07-42.983-.012-64.475-.011-1.287 0-1.543.24-1.638 1.529-.024.324-.024.649-.018.973.068 3.433-.042 6.865.126 10.3.193 3.968-.027 7.947.176 11.922.173 3.373-.021 6.755.15 10.137.193 3.832-.04 7.676.175 11.516.169 3.021.051 6.053.14 9.082.156 5.322.164 10.649.359 15.971.1 2.755-.023 5.512.141 8.271.179 3.02-.013 6.052.165 9.082.177 2.993-.023 6 .162 9 .176 2.858-.011 5.727.16 8.595.179 2.993-.017 6 .165 9 .176 2.885 0 5.781.158 8.676.183 3.318-.03 6.648.171 9.975.169 2.8.056 5.62.138 8.432.114 3.89.111 7.785.208 11.677.063 2.513.07 5.028.115 7.541.1 5.7.193 11.406.37 17.108.072 2.323-.126 4.653.124 6.973a1.287 1.287 0 0 1-.685 1.273 10.547 10.547 0 0 0-2.69 2.56 5.191 5.191 0 0 0-.986 4.29 1.2 1.2 0 0 1-.08.945 7.249 7.249 0 0 0-.936 2.734v.649c.3.117.3.431.415.663a2.186 2.186 0 0 0 2.722 1.139 5.111 5.111 0 0 0 1.539-.881c.375-.286.742-.584 1.176-.927.175.807.689.963 1.344 1 1.375.069 2.75.173 4.128.15a1.141 1.141 0 0 1 1.211.716 1.527 1.527 0 0 0 2.051.777 5.672 5.672 0 0 0 1.426-.758c.178-.119.338-.276.585-.2a6.72 6.72 0 0 0 1.935.1q19.467.021 38.935.028c.3 0 .6.013.892 0 .375-.013.528.083.449.52-.165.9-.269 1.814-.382 2.725-.213 1.712-.382 3.432-.632 5.139a5.149 5.149 0 0 0 .576 3.577 15.689 15.689 0 0 0 2.721 3.408c.58.542 1.109 1 .742 1.882a1.126 1.126 0 0 0-.009.4 39.246 39.246 0 0 0 .28 4.362c.152 1.422.258 2.849.413 4.271.179 1.635.393 3.267.586 4.9.184 1.554.337 3.112.546 4.662.281 2.085.6 4.163.91 6.244.344 2.321.684 4.643 1.044 6.963.347 2.238.724 4.472 1.074 6.711s.673 4.48 1.023 6.719.734 4.471 1.071 6.711c.373 2.481.781 4.955 1.25 7.42.671 3.525 1.377 7.043 2.167 10.543a113.907 113.907 0 0 0 3.926 13.61 3.354 3.354 0 0 0 .354.727 1 1 0 0 0 1.14.405.936.936 0 0 0 .607-1.031 2.7 2.7 0 0 0-.248-.853c-.487-1.232-.866-2.5-1.251-3.765-.967-3.179-1.848-6.381-2.534-9.63-1.053-4.988-2.086-9.981-2.84-15.027-.442-2.96-.94-5.913-1.41-8.869q-.679-4.276-1.352-8.552c-.416-2.611-.845-5.218-1.252-7.83q-.528-3.4-1.014-6.8-.485-3.445-.916-6.9c-.253-2.035-.436-4.078-.7-6.111-.352-2.674-.741-5.343-1.223-8a2.168 2.168 0 0 1-.082-1.236c.356.259.635.464.917.665a14.609 14.609 0 0 0 4.582 2.368 22.481 22.481 0 0 0 5.742.888c2.836.037 5.671.058 8.509-.093a66.507 66.507 0 0 0 9.708-1.177 2.762 2.762 0 0 0 1.928-1.341 12.889 12.889 0 0 0 1.122-2.51c.3-.895.535-1.812.887-2.693.629-1.58 1.322-3.137 1.829-4.765.062-.2.064-.434.3-.555.4 1.629.8 3.251 1.194 4.876a35.774 35.774 0 0 0 2.788 8.016c.417.817.917 1.591 1.377 2.386a1.881 1.881 0 0 0 1.682.957 16.692 16.692 0 0 0 3.879-.123 22.236 22.236 0 0 1 2.239-.335 26.7 26.7 0 0 0 4.521-.879 54.253 54.253 0 0 1 6.564-1.4c2.183-.34 4.41-.336 6.58-.8.307-.066.513 0 .551.38.094.939.2 1.879.338 2.812.233 1.547.26 3.12.628 4.648a6.656 6.656 0 0 1 0 3.826c-.945 2.76-1.875 5.525-2.95 8.24a16.935 16.935 0 0 0-1.426 6.771 20.118 20.118 0 0 0 .271 2.248 5.677 5.677 0 0 1-.04 2.254c-.609 2.351-1.315 4.675-1.811 7.056-.717 3.436-1.883 6.757-2.6 10.2-.757 3.642-1.954 7.191-2.218 10.935-.1 1.453-.327 2.9-.375 4.354-.078 2.375-.119 4.752-.335 7.122a2.2 2.2 0 0 0 .148 1.034 2.534 2.534 0 0 1 .3 1 .451.451 0 0 0 .376.466.493.493 0 0 0 .579-.187 4.772 4.772 0 0 0 1.007-2.256c.008-.7.087-1.4.122-2.1.138-2.779.135-5.563.355-8.34a31.517 31.517 0 0 1 .575-4.411c.754-3.371 1.5-6.746 2.374-10.086.8-3.055 1.619-6.1 2.221-9.2.313-1.613.816-3.189 1.231-4.783a6.546 6.546 0 0 0 .152-2.965 13.1 13.1 0 0 1-.2-1.931 13.741 13.741 0 0 1 .984-5.384q1.656-4.531 3-9.163a7.08 7.08 0 0 0 .347-2.879c-.2-1.551-.446-3.1-.7-4.641a32.589 32.589 0 0 0-1.213-5.031c-.089-.271-.033-.409.24-.473a9.59 9.59 0 0 0 1.584-.609 1.862 1.862 0 0 0 1.208-2.407 9.761 9.761 0 0 1-.251-1.678q-.041-3.406-.326-6.8c-.172-2.1-.461-4.182-.754-6.266a29.662 29.662 0 0 1-.41-4.024c0-.613 0-.611.638-.618.946-.011 1.882.137 2.831.134 6.082-.02 12.164.061 18.244-.127 3.187-.1 6.376-.011 9.565-.136 3.266-.128 6.54-.032 9.806-.2a19.194 19.194 0 0 0 2.748-.112.763.763 0 0 1 .532.152c.591.327 1.177.663 1.765 1a12.331 12.331 0 0 0 2.87 1.306 2.231 2.231 0 0 0 2.316-.579 1.934 1.934 0 0 0 .359-2.18c-.075-.206-.265-.417-.11-.675a1.933 1.933 0 0 1 .248-.032c4.216-.026 8.432.053 12.646-.156 2-.1 4-.081 6-.135 4.158-.112 8.318-.188 12.474-.365 1.485-.063 2.97.006 4.455-.131a14.3 14.3 0 0 1 2.833 0c1 .108 1.543-.21 1.625-1.183a27.912 27.912 0 0 0-.258-4.45zm-23.46-50.3c-.595.008-1.19.009-1.784.039a1.059 1.059 0 0 1-.864-.34 27.305 27.305 0 0 0-2.222-1.622 1.073 1.073 0 0 0-.777-.165c-4.1.25-8.217.035-12.32.21-1.756.075-3.51.089-5.266.123-1.674.032-3.345.2-5.021.145a1.531 1.531 0 0 0-.971.34c-.727.531-1.654.782-2.158 1.635a2.445 2.445 0 0 0-.426 1.027.424.424 0 0 1-.484.427c-.351 0-.71.095-1.046.074a4.364 4.364 0 0 0-1.876.614c-.269.1-.308.348-.3.606.011.568.02 1.136.022 1.7 0 .405-.024.811-.019 1.216 0 .33-.129.452-.468.509-.907.152-1.834.071-2.735.283a3.351 3.351 0 0 0-.7.193c-.732.348-.834.7-.4 1.406.111.18.312.3.338.539-.592.168-.606.179-.948-.285a1.044 1.044 0 0 0-.981-.44 4.517 4.517 0 0 0-1.127.086c-.618.208-.874-.112-1.137-.57a2.369 2.369 0 0 0-.768-.931 1.043 1.043 0 0 1-.487-1.008 8.1 8.1 0 0 0-1.3-4.272 1.235 1.235 0 0 1-.3-.815 7.667 7.667 0 0 0-1.25-4.213 20.445 20.445 0 0 0-2.012-3.136 14.444 14.444 0 0 1-2.272-4.983c-.69-2.249-1.037-4.579-1.634-6.849-.81-3.082-1.584-6.173-2.594-9.2a74.364 74.364 0 0 0-3.436-8.484 47.58 47.58 0 0 0-3.141-5.759 24.075 24.075 0 0 0-6.206-6.554c-1.014-.716-1.986-1.5-2.94-2.29a18.118 18.118 0 0 0-7.078-3.458c-1.566-.419-3.173-.63-4.754-.973a10.064 10.064 0 0 1-1.94-.8c-.245-.109-.3-.368-.409-.583a5.259 5.259 0 0 0-1.352-1.9c-.275-.22-.286-.429-.038-.671a12.85 12.85 0 0 0 2.63-4.427 1.513 1.513 0 0 1 .612-.723 17.377 17.377 0 0 0 3.782-3.289 6.151 6.151 0 0 0 1.165-6.376 1.831 1.831 0 0 0-2.153-1.4c-.407.037-.4-.179-.33-.438a17.806 17.806 0 0 1 .744-2.564 17.316 17.316 0 0 0 1.257-4.09 10.454 10.454 0 0 0-.587-6.112c-.448-.985-.669-2.05-1.1-3.046a9.438 9.438 0 0 0-2.316-3.478 1.778 1.778 0 0 1-.493-.629 9.413 9.413 0 0 0-6.076-5.431 2.806 2.806 0 0 1-.923-.642 7.8 7.8 0 0 0-6.291-1.673 17.206 17.206 0 0 0-8.44 3.854c-.688.525-1.411 1-2.111 1.5a13.7 13.7 0 0 0-3.6 4.228 19.822 19.822 0 0 1-1.259 1.884 13.042 13.042 0 0 0-1.958 3.618c-.359 1.017-.8 2.005-1.228 3a2.011 2.011 0 0 0-.133 1.338 21.161 21.161 0 0 1 .468 4.112c-.375.128-.761-.04-1.123.1a2.55 2.55 0 0 0-1.706 1.9 12.037 12.037 0 0 0-.085 5.219 13.156 13.156 0 0 0 2.932 5.963.868.868 0 0 1 .216.511 11.926 11.926 0 0 0 .939 3.507c.029.075.05.154.077.231.253.735.169.923-.56 1.1a8.357 8.357 0 0 0-1.227.408 4.92 4.92 0 0 0-2.611 2.542c-.331.709-.634 1.433-.925 2.16-.135.337-.283.433-.668.331a8.441 8.441 0 0 0-1.9-.391 9.2 9.2 0 0 0-2.253.2c-2.716.582-5.438 1.144-8.138 1.793a33.535 33.535 0 0 0-6.662 2.256 13.6 13.6 0 0 0-4.339 3.2 39.151 39.151 0 0 0-4 4.89 47.287 47.287 0 0 0-4.721 9.929 93.687 93.687 0 0 0-3.222 12.2c-.135.656-.19.737-.837.734-.805 0-1.607.126-2.413.049a.569.569 0 0 0-.312.042 3.348 3.348 0 0 1-2.367.149 16.462 16.462 0 0 0-1.7-.065c-.188-.014-.427.07-.559-.018-.678-.45-1.34-.087-2.007-.014-1.527.167-3.042.427-4.561.633a32.38 32.38 0 0 1-4.131.063 1.718 1.718 0 0 0-.642.021 7.923 7.923 0 0 1-2.626.39 11.24 11.24 0 0 1-3.8-.035 1.053 1.053 0 0 0-.557.051 13.689 13.689 0 0 1-3.406.563c-.736.022-.748-.015-.789-.758-.19-3.4-.049-6.815-.172-10.219-.135-3.758-.031-7.519-.174-11.274-.13-3.408-.01-6.816-.157-10.22s-.057-6.814-.16-10.219c-.027-.917-.086-1.834-.109-2.753a1.051 1.051 0 0 1 .445-.954c2.651-2.135 5.306-4.267 7.821-6.563a15.215 15.215 0 0 1 1.6-1.346 5.645 5.645 0 0 0 .941-1.1c.32-.369.489-.363.752.04.532.814 1.026 1.652 1.554 2.469a.571.571 0 0 1 .037.6c-1.043 2.609-2.087 5.217-3.1 7.837a11.917 11.917 0 0 0-1.034 3.9 1.415 1.415 0 0 0 .357 1.184 1.519 1.519 0 0 1 .347.967 28.609 28.609 0 0 0 3.193 8.539 2.564 2.564 0 0 0 .433.584c.38.389.632.43 1.062.112a2.73 2.73 0 0 1 .872-.4 60.425 60.425 0 0 0 8.009-3.3 19.1 19.1 0 0 0 4.356-2.644 20.763 20.763 0 0 1 3.149-2.237 4.089 4.089 0 0 0 1.405-1.324c.1-.156.206-.332.41-.372a7.4 7.4 0 0 0 2.946-1.641c.67-.5 1.3-1.055 1.964-1.566a11.589 11.589 0 0 0 3.147-3.866c.353-.669.721-1.33 1.077-2 .291-.544.048-1.112.051-1.668 0-.064-.075-.147-.136-.191-1.2-.874-1.88-2.2-2.832-3.288-.767-.878-1.579-1.708-2.424-2.5a3.865 3.865 0 0 0-1.741-.818 37.474 37.474 0 0 0-6.605-1.157 39.488 39.488 0 0 0-4.032-.3 8.751 8.751 0 0 0-2.084.235.64.64 0 0 1-.849-.386 20.736 20.736 0 0 0-1.526-2.858c-.127-.174-.066-.294.093-.4.113-.074.224-.152.332-.233a1.3 1.3 0 0 0-.149-2.264 2.108 2.108 0 0 0-2.677.528c-.432-.689-.832-1.331-1.235-1.969a8.383 8.383 0 0 0-.813-1.009 2.071 2.071 0 0 0-2.554-.6.739.739 0 0 1-1.007-.28c-.566-.687-.793-.712-1.571-.336a.42.42 0 0 1-.443-.015 2.519 2.519 0 0 0-3.174.528 14.187 14.187 0 0 0-3.76 5.5c-.789 2.07-1.385 4.209-2.246 6.254a2.555 2.555 0 0 1-.523.973v-.774c-.012-1.542.031-3.087-.047-4.625-.158-3.135-.037-6.275-.178-9.407-.112-2.488-.033-4.976-.137-7.461-.134-3.188-.059-6.382-.188-9.568-.107-2.651-.035-5.3-.133-7.948-.134-3.595-.066-7.194-.192-10.787-.082-2.352.005-4.708-.155-7.052-.124-1.808.006-3.622-.238-5.423-.086-.63 0-.708.633-.709h6.571c10.329 0 20.659.031 30.988-.015 49.914-.219 99.828-.026 149.742-.135.216 0 .434.017.649 0 .437-.038.557.173.54.579-.048 1.16-.112 2.323-.1 3.484.171 12.713.012 25.428.177 38.14.1 7.628 0 15.256.153 22.882.175 8.817.015 17.636.167 26.452.149 8.656-.014 17.313.163 25.965.133 6.492.05 12.983.127 19.473.017 1.08.107.998-1.005 1.011z" class="cls-2" transform="translate(0)"/>
        <path id="路径_3349" d="M742.882 1340.4c0-5.194-.054-10.389.025-15.581.035-2.324.012-4.651.133-6.972.085-1.615.315-3.223.412-4.839.134-2.242.569-4.441.858-6.66.359-2.756.892-5.484 1.372-8.221q.476-2.71.755-5.449c.121-1.18.309-2.355.4-3.538a24.466 24.466 0 0 0 .125-5.174 3.17 3.17 0 0 1-.022-.486 36.192 36.192 0 0 0-1.061-8.661c-1.089-4.816-2.03-9.662-2.965-14.509-.307-1.587-.463-3.2-.71-4.8a14.9 14.9 0 0 0-.359-1.577 1.477 1.477 0 0 0-.378-.708.648.648 0 0 0-.809-.172c-.288.163-.274.433-.184.712a16.662 16.662 0 0 1 .549 4.243c.109 1.95.465 3.856.759 5.775.383 2.505.806 5.005 1.237 7.5.331 1.914.706 3.819 1.049 5.731a21.591 21.591 0 0 1 .409 3.616q.025 2.8.025 5.6a38.452 38.452 0 0 1-.465 5.076c-.19 1.417-.349 2.838-.514 4.258-.225 1.931-.6 3.838-.9 5.756-.2 1.278-.42 2.555-.582 3.839a2.838 2.838 0 0 1-1.042 1.863 2.461 2.461 0 0 1-1.45.342c-3.865.252-7.339-1.042-10.668-2.8a60.267 60.267 0 0 0-5.533-2.872c-.281-.113-.279-.256-.195-.5 1.312-3.811 2.059-7.768 3-11.674 1.042-4.3 1.6-8.7 2.439-13.043a95.528 95.528 0 0 1 3.354-12.67 35.989 35.989 0 0 1 8.2-13.833 12.692 12.692 0 0 1 5.038-3.153 54.045 54.045 0 0 1 8.188-2.247 40.656 40.656 0 0 0 4.686-1.258 8.918 8.918 0 0 1 3.284-.048c.4.008.369.331.295.606-.211.782-.366 1.576-.525 2.37a44.918 44.918 0 0 0-.94 7.215c-.031.862-.1 1.724-.133 2.589a1.128 1.128 0 0 0 .525 1.183 1.309 1.309 0 0 0 1.385-.082c.436-.271.864-.554 1.3-.827a10.28 10.28 0 0 1 8.092-1.269 10.737 10.737 0 0 0 2.471.3 2.355 2.355 0 0 1 1.586.73 12.966 12.966 0 0 1 .992 1.068 17.8 17.8 0 0 0 1.712 1.719 2.724 2.724 0 0 1 .975 2.728c-.35 1.667-.936 3.27-1.246 4.944a2 2 0 0 0-.091.557 10.769 10.769 0 0 1-.595 3.738c-.728 3.046-1.371 6.109-1.806 9.209-.255 1.815-.4 3.646-.553 5.476-.463 5.508-.24 11.025-.235 16.538 0 1.565-.018 3.13-.015 4.694.008 3.785.047 7.572.156 11.354.075 2.591.228 5.181.318 7.773.066 1.916.174 3.831.312 5.744.172 2.4.423 4.785.584 7.181.1 1.455.21 2.908.366 4.357q.268 2.494.576 4.984c.548 4.427 1.693 8.736 2.594 13.094a2.386 2.386 0 0 1-.082 1.264 88.607 88.607 0 0 1-3.168 8.5c-.343.791-.58 1.628-.863 2.444-.177.51-.368 1.017-.518 1.536a1.653 1.653 0 0 1-1.587 1.224 90.518 90.518 0 0 1-13.4.835c-.375 0-.751.085-1.128.1a22.992 22.992 0 0 1-7.909-1.015 10.563 10.563 0 0 1-2.473-1.192 46.423 46.423 0 0 1-5.807-4.4c-.181-.162-.346-.342-.523-.509a1.565 1.565 0 0 1-.54-1.828 18.247 18.247 0 0 0 .433-3.2c.251-2.034.52-4.067.747-6.1a27.031 27.031 0 0 0 .195-2.908c.019-5.194.009-10.387.009-15.582z" class="cls-4" transform="translate(-23.567 -48.155)"/>
        <path id="路径_3350" d="M831.882 1244.485a.193.193 0 0 1 .255-.045 23.522 23.522 0 0 0 4.438 1.511 26.417 26.417 0 0 1 3.266 1.2 13.453 13.453 0 0 1 3.1 1.893c1.555 1.255 3.126 2.492 4.694 3.731a20.764 20.764 0 0 1 3.787 4.2 45.878 45.878 0 0 1 4.566 8.388 102.006 102.006 0 0 1 6.011 19.22 34.374 34.374 0 0 0 1.88 5.686 9.6 9.6 0 0 0 1.642 2.5 16.139 16.139 0 0 1 2.816 4.705 4.594 4.594 0 0 1 .07 2.859 23.931 23.931 0 0 1-.912 2.683c-.111.3-.236.548.028.813a.859.859 0 0 0 1.044.144 1.146 1.146 0 0 0 .461-.444c.139-.231.277-.465.433-.684.177-.248.436-.246.567.02a1.576 1.576 0 0 1 .188.941 7.867 7.867 0 0 1-.944 3.149.567.567 0 0 0 .4.868.861.861 0 0 0 1-.348c.227-.33.436-.672.7-1.081a22.672 22.672 0 0 1 1.754 3.244c.17.406.076.493-.446.622a19.058 19.058 0 0 0-7.5 3.5c-.434.345-.737.839-1.307 1.044-.258.092-.387.44-.5.718a.824.824 0 0 0 .2.965.7.7 0 0 0 .89.123 15.026 15.026 0 0 0 2.495-1.5 19.232 19.232 0 0 1 6.008-2.941c.555-.181.587-.124.451.477a5.621 5.621 0 0 1-1.7 2.967 56.918 56.918 0 0 1-7.541 5.991 9.8 9.8 0 0 1-1.871 1.119 2.364 2.364 0 0 1-1.187.179 15.158 15.158 0 0 1-2.836-.641 2.494 2.494 0 0 1-1.686-1.816c-.185-.68-.27-1.376-.423-2.061a2.647 2.647 0 0 0-1.427-2.038 1.079 1.079 0 0 1-.318-.248c-.264-.278-.245-.427.091-.63 1.942-1.173 3.859-2.382 5.9-3.384 1.6-.783 3.124-1.718 4.679-2.589a3.191 3.191 0 0 0 .535-.365.74.74 0 0 0 .19-.947.693.693 0 0 0-.848-.3 13.032 13.032 0 0 0-2.905 1.227c-.977.583-1.99 1.094-3.016 1.578a29.957 29.957 0 0 0-4.689 2.727 10.7 10.7 0 0 1-.954.615.739.739 0 0 1-1.068-.214 21.873 21.873 0 0 1-1.664-3.866c-.1-.271.061-.421.31-.454a32.334 32.334 0 0 0 7.222-2.335 27.459 27.459 0 0 0 2.65-1.4 1.559 1.559 0 0 0 .319-.249c.258-.233.443-.494.218-.847a.672.672 0 0 0-.851-.269c-1.181.379-2.366.751-3.54 1.151-1.965.671-3.872 1.505-5.9 2.009a3.371 3.371 0 0 1-3.4-.975.917.917 0 0 1-.325-.786c.079-.887.123-1.779.222-2.663.186-1.662.366-3.326.614-4.979.313-2.082.494-4.179.753-6.266a14.482 14.482 0 0 0-.246-5.863 13.155 13.155 0 0 1-.121-5.947c.32-1.834.589-3.674.759-5.53.059-.645.16-1.285.16-1.936 0-.189 0-.378-.005-.567-.009-.264-.094-.5-.389-.533s-.412.207-.5.443a1.533 1.533 0 0 0-.072.232c-.591 2.853-1.215 5.7-1.76 8.561a14.158 14.158 0 0 0 .319 6.262 8.088 8.088 0 0 1 .07 3.289c-.493 3.281-1.082 6.547-1.528 9.834-.323 2.377-.578 4.766-.735 7.166-.191 2.895-.162 5.787-.07 8.675.066 2.1.169 4.207.4 6.3.1.911.1 1.833.156 2.75a113.151 113.151 0 0 1 .151 11.594c-.1 2.435-.135 4.867-.063 7.3.052 1.757.049 3.515.133 5.268.089 1.858.282 3.71.416 5.566.037.512.043 1.027.041 1.541a41.836 41.836 0 0 0 .583 5.958c.207 1.469.385 2.942.568 4.414.294 2.36.424 4.731.533 7.106a4.768 4.768 0 0 0 .44 2.445c.185.3.027.45-.235.546a14.761 14.761 0 0 1-2.578.692 27.3 27.3 0 0 1-3.542.339c-1.515.063-3 .353-4.494.553-2.411.323-4.758.952-7.128 1.469-.422.093-.684.089-.725-.419a1.028 1.028 0 0 0-.155-.372 44.064 44.064 0 0 1-2.711-7.018c-1.011-2.968-1.807-6-2.7-9-.664-2.228-1.024-4.526-1.517-6.792a85.336 85.336 0 0 1-1.342-9.042c-.2-1.876-.528-3.74-.729-5.617-.15-1.395-.311-2.788-.4-4.191q-.188-2.906-.569-5.8c-.159-1.2-.276-2.414-.367-3.625-.177-2.343-.336-4.685-.4-7.037-.036-1.376-.018-2.76-.142-4.131a45.991 45.991 0 0 1-.091-5.673c.1-3.027.066-6.057.186-9.082.089-2.218.147-4.437.058-6.648-.168-4.165-.153-8.328-.078-12.492.038-2.1.288-4.2.41-6.3.078-1.349.214-2.69.334-4.035.162-1.8.454-3.586.714-5.374.248-1.708.456-3.421.752-5.123a59.985 59.985 0 0 1 1.188-6.031 6.113 6.113 0 0 0 .32-1.828c-.01-.333.135-.418.433-.416a7.213 7.213 0 0 1 3.672 1.133 29.958 29.958 0 0 1 5.57 4.559q.144.143.282.292a1.082 1.082 0 0 0 1.167.355 1.215 1.215 0 0 0 .83-1.007.678.678 0 0 0 .017-.161 45.515 45.515 0 0 0-.033-4.786 41.29 41.29 0 0 0-1.241-6.513 22.147 22.147 0 0 0-.958-2.753c-.054-.131-.159-.266-.127-.402z" class="cls-4" transform="translate(-58.019 -48.623)"/>
        <path id="路径_3351" d="M670.917 1119.214c0 1.407-.047 2.815.009 4.219.145 3.622.05 7.248.185 10.867.11 2.974.015 5.95.147 8.919.165 3.731.027 7.464.174 11.192.13 3.272.019 6.544.153 9.812.145 3.542.029 7.086.172 10.624.131 3.245.013 6.491.158 9.731.137 3.082.02 6.167.164 9.244.135 2.893.018 5.788.16 8.676s.022 5.788.164 8.676c.138 2.812.019 5.626.16 8.432.144 2.866.02 5.734.162 8.595.139 2.812.021 5.626.162 8.432.145 2.865.045 5.732.162 8.595.049 1.188.124 2.376.1 3.563-.042 1.7 0 3.393.065 5.083.151 3.65.024 7.3.169 10.948.128 3.217.035 6.435.141 9.65.111 3.379.059 6.761.188 10.136.109 2.84.056 5.677.116 8.515a13.54 13.54 0 0 0 .218 2.416c.092.455-.091.521-.435.541-.673.037-1.344.061-2.018.151a25.158 25.158 0 0 0-2.939.552c-.676.174-.677.171-.7-.493-.089-3.243-.118-6.487-.174-9.731-.075-4.407-.061-8.816-.188-13.221-.078-2.7-.011-5.409-.148-8.108-.154-3.027-.023-6.058-.167-9.082-.152-3.19-.014-6.383-.161-9.569-.14-3.028-.02-6.058-.164-9.082-.146-3.055-.019-6.113-.161-9.163-.148-3.163-.017-6.329-.163-9.488s-.017-6.329-.161-9.488c-.147-3.218-.018-6.437-.165-9.65-.141-3.082-.019-6.167-.16-9.244-.156-3.406-.018-6.816-.163-10.219-.158-3.731-.015-7.464-.165-11.192-.126-3.109-.012-6.221-.161-9.325-.127-2.649-.016-5.3-.16-7.946-.147-2.7-.02-5.41-.163-8.108s-.019-5.409-.163-8.108c-.141-2.649-.018-5.3-.161-7.946-.125-2.3-.024-4.6-.162-6.89-.1-1.73-.064-3.459-.147-5.187-.035-.728-.123-1.452-.132-2.183 0-.371.1-.541.5-.536 1.73.023 3.461.018 5.191.041.593.008.643.068.645.666.008 1.893 0 3.787 0 5.68z" class="cls-1" transform="translate(-2.39 -1.023)"/>
        <path id="路径_3352" d="M981.25 1112.836c0 1.937.072 3.827-.017 5.71-.133 2.785-.086 5.569-.069 8.353.222 35.571-.02 71.143.18 106.714.067 11.9-.015 23.8.16 35.7.12 8.168.01 16.335.114 24.5a1.809 1.809 0 0 1-.072.762 30.726 30.726 0 0 1-2.754-1.4 3.925 3.925 0 0 0-1.171-.545.928.928 0 0 1-.838-1.035c-.01-.27-.03-.539-.031-.809-.015-7.575.054-15.15-.066-22.723-.094-5.9 0-11.793-.16-17.685-.135-5-.008-10.007-.156-15.007-.168-5.679 0-11.36-.166-17.036-.128-4.462-.009-8.925-.159-13.384-.156-4.623-.019-9.249-.16-13.87-.171-5.625-.013-11.251-.166-16.873-.148-5.436-.006-10.873-.163-16.306-.143-4.948 0-9.9-.161-14.844-.141-4.462-.01-8.925-.163-13.383-.121-3.516-.026-7.032-.16-10.543-.072-1.865-.077-3.729-.12-5.594-.017-.72 0-.729.694-.731 1.758-.007 3.515-.005 5.273-.005.133.004.273-.017.331.034z" class="cls-1" transform="translate(-114.671 -1.013)"/>
        <path id="路径_3353" d="M987.681 1294.408a1.226 1.226 0 0 1-.106-.753c-.019-27.623.036-55.246-.083-82.869-.059-13.715.016-27.43-.152-41.144-.129-10.522 0-21.046-.163-31.567-.115-7.195-.017-14.389-.128-21.584-.015-1-.1-2-.135-2.995-.026-.7-.015-.7.712-.7.839 0 1.677.016 2.515.011.333 0 .5.109.487.468-.043.89.037 1.785-.073 2.674a7.11 7.11 0 0 0-.043.89c0 3.355-.064 6.711.013 10.064.2 8.493-.01 16.988.163 25.48.165 8.061.009 16.122.166 24.18.149 7.628-.01 15.257.163 22.882.116 5.112 0 10.225.154 15.333.179 5.923.017 11.847.16 17.768.171 7.086.015 14.174.171 21.258.123 5.6 0 11.2.146 16.794.187 7.356.08 14.714.144 22.07v.731c0 .262-.125.379-.385.419-1.249.188-2.495.393-3.726.59z" class="cls-1" transform="translate(-118.996 -1.01)"/>
        <path id="路径_3354" d="M884.317 1365.81a4.166 4.166 0 0 0 3.655-.677 63.789 63.789 0 0 0 6.168-4.592c.787-.737 1.64-1.4 2.511-2.14a4.33 4.33 0 0 1 .708 1.578 70.315 70.315 0 0 0 2.482 7.365 63.737 63.737 0 0 0 3.97 8.512 42.836 42.836 0 0 0 3.84 5.515 6.137 6.137 0 0 0 4.812 2.284c1.162 0 2.325 0 3.487-.041a18.344 18.344 0 0 1 5.514.737 4.61 4.61 0 0 1 1.832 1.045 10.556 10.556 0 0 0-2.771.45 3.99 3.99 0 0 0-1.022.481c-.22.159-.455.351-.3.668.134.278.4.227.643.174a11.671 11.671 0 0 1 3.3-.254 15 15 0 0 1 6.091 1.465 4.34 4.34 0 0 1 1.532 1.169 2.957 2.957 0 0 1-2.108.013c-.734-.177-1.467-.36-2.2-.555a9.127 9.127 0 0 0-3.776.038c-1.1.166-2.212.045-3.307.262a6.09 6.09 0 0 0-1.4.385 1.026 1.026 0 0 0-.3 1.818c.821.744 1.66 1.467 2.429 2.266a13.6 13.6 0 0 1 2.477 3.389 3.739 3.739 0 0 1 .2.441c.144.431-.08.721-.522.6a6.645 6.645 0 0 1-1.351-.538c-.646-.336-1.257-.739-1.9-1.088q-3.589-1.967-7.187-3.917a23.667 23.667 0 0 0-4.815-1.892 26.192 26.192 0 0 1-5.753-2.576 5.22 5.22 0 0 1-1.6-1.466c-1.832-2.474-3.6-5-5.509-7.414-2.093-2.658-3.948-5.477-5.888-8.239a53.826 53.826 0 0 0-3.773-4.966 2.322 2.322 0 0 1-.169-.3z" class="cls-3" transform="translate(-81.884 -89.859)"/>
        <path id="路径_3355" d="M798.433 1177.5a12.869 12.869 0 0 1 7.919-2.6 4.988 4.988 0 0 1 3.036.938 8.73 8.73 0 0 0 3.073 1.392 1.562 1.562 0 0 0 .473.084c.244-.014.512-.073.585-.347s-.163-.367-.352-.476a34.414 34.414 0 0 1-3.147-2.13 5.975 5.975 0 0 0-3.34-1.064 14.047 14.047 0 0 0-6.592 1.317c-.177.036-.234-.045-.2-.21a8.443 8.443 0 0 1 4.351-1.6 30.115 30.115 0 0 1 5.015-.179 12.283 12.283 0 0 1 2.161.293 6.476 6.476 0 0 1 3.056 1.9c.737.675 1.416 1.413 2.13 2.113a5.084 5.084 0 0 0 .688.561c.176.12.4.233.6.077a.648.648 0 0 0 .264-.713 1.791 1.791 0 0 0-.308-.655 20.469 20.469 0 0 0-3.969-3.914 6.754 6.754 0 0 0-3.339-1.125 23.274 23.274 0 0 0-6.293.147.5.5 0 0 1-.159-.031c.04-.273.3-.292.472-.388a13.854 13.854 0 0 1 5.845-1.773 6.242 6.242 0 0 1 4.819 1.728 29.4 29.4 0 0 1 2.319 2.492 2.962 2.962 0 0 1 .528 1c.174.539.361 1.076.5 1.625a11.132 11.132 0 0 0 1.928 3.72c.19.265.43.517.816.326.314-.155.431-.476.276-.919a37.649 37.649 0 0 0-1.525-3.741 10.85 10.85 0 0 1-.727-1.626 1.208 1.208 0 0 1-.054-.839 5.263 5.263 0 0 1 1.791 1.935 10.518 10.518 0 0 1 1.693 5.586 6.9 6.9 0 0 1-.258 2.525.5.5 0 0 0 .139.657.66.66 0 0 0 .765.006 1.48 1.48 0 0 0 .548-.78c.248-.646.341-1.334.57-2.131a3.684 3.684 0 0 1 .458 2.745 11.8 11.8 0 0 1-.661 2.663.546.546 0 0 0 .276.756.559.559 0 0 0 .783-.2c.155-.219.26-.472.393-.707a3.822 3.822 0 0 1 .5-.94 8.2 8.2 0 0 1 .006 2.6 10.873 10.873 0 0 1-.915 2.842 27.47 27.47 0 0 0-1.31 3.823 3.194 3.194 0 0 1-.163.543.451.451 0 0 1-.778.03 1.435 1.435 0 0 1-.133-.382 2.075 2.075 0 0 0-1.243-1.4 14.46 14.46 0 0 0-3.181-.922 24 24 0 0 0-6.746-.669 1.566 1.566 0 0 1-.555-.075c-.557-.163-.693-.087-.923.452a3.189 3.189 0 0 0-.124.385.471.471 0 0 1-.531.384 6.27 6.27 0 0 0-2.248.2c-.235.078-.363-.048-.462-.218a3.243 3.243 0 0 0-1.948-1.35 32.921 32.921 0 0 0-5.765-1.241c-.64-.094-1.294-.113-1.926-.242a3.59 3.59 0 0 0-1.44.111c-.5.1-.59.37-.371.891a.257.257 0 0 1-.016.29 11.9 11.9 0 0 0-2.076-.122 5.945 5.945 0 0 1 1.491-2.419c.271-.263.551-.519.813-.791a2.369 2.369 0 0 0 .337-.453.519.519 0 0 0-.043-.673.524.524 0 0 0-.672-.049 4.975 4.975 0 0 0-1.948 1.67c-.222.335-.42.688-.677 1.112a1.7 1.7 0 0 1-.234-1.387 3.711 3.711 0 0 1 .712-1.356 12.978 12.978 0 0 1 5.3-4.151 11.417 11.417 0 0 0 1.439-.74 2.064 2.064 0 0 0 .489-.417.475.475 0 0 0 .08-.532c-.082-.187-.263-.15-.42-.157a2.663 2.663 0 0 0-1.264.244 22.116 22.116 0 0 0-3.952 2.042.126.126 0 0 1-.2-.009 6.713 6.713 0 0 1 1.88-1.989 16.875 16.875 0 0 1 6.495-2.81c1.159-.238 2.354-.283 3.516-.538.633-.139.943-.378.89-.739s-.4-.527-1.032-.562a17.857 17.857 0 0 0-7.811 1.468c-.17.045-.22-.029-.187-.192z" class="cls-3" transform="translate(-48.647 -21.383)"/>
        <path id="路径_3356" d="M663.454 1392.885a7.7 7.7 0 0 1 3.754-2.681 20.048 20.048 0 0 1 5.49-.9 25.017 25.017 0 0 0 9.317-2.182c.646-.273 1.314-.495 1.961-.766a9.521 9.521 0 0 0 4.819-4.267 13.233 13.233 0 0 0 1.121-3.707 121.456 121.456 0 0 1 3.889-14.7 2.328 2.328 0 0 1 .321-.769c2.252 1.131 4.731 1.405 7.161 1.849a14.621 14.621 0 0 0 2.427.076 25.683 25.683 0 0 1 3.88.142 3.651 3.651 0 0 1 .876.214.741.741 0 0 1-.062.219c-2.555 3.784-5.094 7.579-7.676 11.344-2.247 3.275-4.785 6.335-7.167 9.51a10.215 10.215 0 0 0-1.647 3.137 6.036 6.036 0 0 1-5.255 4.308 33.4 33.4 0 0 0-4.858.813 16.212 16.212 0 0 0-2.98 1.255 5.291 5.291 0 0 0-1.414 1.195 19.441 19.441 0 0 1-2.7 2.787 3.343 3.343 0 0 1-1.1.679 1.56 1.56 0 0 1 .019-1.411 6.21 6.21 0 0 1 1.444-2.227 6.589 6.589 0 0 0 .861-1.072 1.107 1.107 0 0 0-.007-1.3 1.079 1.079 0 0 0-1.192-.455c-1.831.327-3.668.613-5.5.9a8.335 8.335 0 0 0-4.779 2.694 12.867 12.867 0 0 1-1.988 1.783c-.23.157-.472.464-.776.235-.279-.211-.049-.527.034-.749a8.906 8.906 0 0 1 2.45-3.571 13.088 13.088 0 0 1 3.222-2.153 2.486 2.486 0 0 0 .613-.389.529.529 0 0 0-.208-.945 3.082 3.082 0 0 0-1.673.092 10.789 10.789 0 0 0-2.464 1.213q-.261.053-.213-.201z" class="cls-3" transform="translate(-1.299 -91.491)"/>
        <path id="路径_3357" d="M953.13 1374.314a17.89 17.89 0 0 1-.948 6.174 6.625 6.625 0 0 1-1.737 2.7 8.879 8.879 0 0 1-1.442.89 9.7 9.7 0 0 1-3.216 1.489c-.719.149-1.45.073-2.175.181-.957.142-1.935.142-2.9.2a.743.743 0 0 1-.675-.169 6.657 6.657 0 0 0-3.332-1.732 16.282 16.282 0 0 0-5.271-.7 1.013 1.013 0 0 1-.7-.136c-.953-.736-2.03-1.36-2.433-2.613a2.452 2.452 0 0 0-.271-.585 9.813 9.813 0 0 1-1.256-7.008c.1-.748.149-1.505.28-2.248a13.283 13.283 0 0 1 1.681-4.02 21.465 21.465 0 0 1 1.964-3.163c.1-.126.2-.259.3-.38.719-.811.7-.756 1.711-.333a15.461 15.461 0 0 0 6.407 1.512 37.926 37.926 0 0 0 8.1-.926 4.29 4.29 0 0 0 1.274-.5c.316-.2.489-.138.735.147a16.271 16.271 0 0 1 3.2 6.4 15.428 15.428 0 0 1 .704 4.82z" class="cls-1" transform="translate(-97.187 -91.364)"/>
        <path id="路径_3358" d="M817.937 1214.864a11.453 11.453 0 0 0 2.176-.149.6.6 0 0 1 .321-.013c.741.258 1.11-.186 1.4-.747a31.623 31.623 0 0 0 1.533-3.916 4.186 4.186 0 0 1 .143-.458c.049-.1.176-.105.288-.089.143.021.167.12.145.234-.063.318-.136.633-.2.95a61.893 61.893 0 0 1-2.076 8.233 22.59 22.59 0 0 1-1.785 3.9 4.274 4.274 0 0 1-1.285 1.315 44.355 44.355 0 0 1-9.049 4.827 12.822 12.822 0 0 1-3.293.8 3.62 3.62 0 0 1-2.179-.5 15.31 15.31 0 0 1-2.7-1.926 44.193 44.193 0 0 1-4.648-4.852 21.21 21.21 0 0 1-1.81-2.385 6.009 6.009 0 0 1-.714-2.634 27.039 27.039 0 0 1-.04-4.849 30.2 30.2 0 0 0-.236-5.252 7.482 7.482 0 0 0-.144-1.368c-.1-.34.067-.534.412-.515.456.025.911.084 1.366.135.167.019.211.129.193.287-.114.991-.192 1.987-.34 2.973a2.9 2.9 0 0 0 1.717 3.394 10.335 10.335 0 0 0 3.823.953 17.867 17.867 0 0 0 2.826.176 1.045 1.045 0 0 1 .4.044c.271.094.521.378.825.2.389-.234.862-.452 1.03-.879.437-1.108 1.1-2.113 1.464-3.249a7.442 7.442 0 0 0 .489-2.04c.011-.336.208-.389.482-.39.486 0 .973-.026 1.459-.023.451 0 .535.077.451.53a8.3 8.3 0 0 0 .23 3.287 4.163 4.163 0 0 0 2.674 3.124 10.4 10.4 0 0 0 4.652.872z" class="cls-3" transform="translate(-49.124 -34.536)"/>
        <path id="路径_3359" d="M823.9 1422.269a32.047 32.047 0 0 1-3.233.562c-.588.076-1.185.076-1.776.135a.916.916 0 0 1-.954-.562 27.848 27.848 0 0 1-3.093-8.318c-.941-3.881-1.7-7.8-2.444-11.723-.32-1.7-.705-3.38-1.064-5.069a.8.8 0 0 1 0-.532c.346-.031.7.137 1.063.134a1.959 1.959 0 0 0 1.508-.658 3.273 3.273 0 0 0 .032-4.559 2.337 2.337 0 0 0-3.013-.51c-.163.091-.317.2-.475.293a18.617 18.617 0 0 1-.822-5.212c-.126-1.773-.31-3.542-.468-5.318.318-.1.491.12.7.208a1.36 1.36 0 0 0 1.317-.091 3.265 3.265 0 0 0 1.183-4.264 2.111 2.111 0 0 0-2.974-1.068.69.69 0 0 1-.56.11c-.348-4.315-.417-8.678-.666-13.141a3.329 3.329 0 0 0 2.707.047 3.056 3.056 0 0 0 1.809-1.933c.309.044.181.261.183.382.026 1.081.03 2.164.044 3.246.027 2.134.227 4.257.442 6.379.187 1.852.377 3.7.536 5.559.23 2.688.4 5.383.661 8.068.2 1.985.532 3.955.76 5.938.255 2.225.543 4.444.992 6.639a104.531 104.531 0 0 0 2.746 11.155c1 3.111 2.012 6.216 3.091 9.3a32.006 32.006 0 0 0 1.341 3.389 9.419 9.419 0 0 1 .427 1.414z" class="cls-4" transform="translate(-54.334 -90.726)"/>
        <path id="路径_3360" d="M807.812 1286.917c.182-2.094.442-4.044.737-5.99.25-1.653.47-3.311.73-4.963a11.287 11.287 0 0 0 .1-1.292 3.557 3.557 0 0 1 .525-2.047 4.131 4.131 0 0 0 .84.375 2.149 2.149 0 0 0 2.208-.882 1.959 1.959 0 0 0 .315-2.052 1.521 1.521 0 0 0-.87-.978c-.8-.336-.848-.493-.562-1.291a14.349 14.349 0 0 1 3.71-6.1c.5-.45.993-.906 1.475-1.345-.111.332-.226.728-.374 1.112a36.67 36.67 0 0 0-1.756 7.309q-.595 3.592-1.1 7.2c-.166 1.174-.264 2.36-.362 3.543-.22 2.635-.432 5.271-.621 7.909-.062.862-.054 1.73-.054 2.6 0 5.032.053 10.065-.022 15.1-.04 2.648-.047 5.3-.169 7.945-.148 3.218-.108 6.433-.1 9.65a1.4 1.4 0 0 1-.049.627c-1.347-2.649-2.688-2.613-4.583-1.605-.154-.184-.08-.407-.082-.606-.017-1.461-.046-2.922-.026-4.383.035-2.57-.135-5.135-.14-7.7v-.782a.414.414 0 0 1 .422.053 2 2 0 0 0 2.409-.295c1.855-1.568 1.554-3.435-.075-4.838a1.747 1.747 0 0 0-2.254-.086c-.179.112-.35.236-.535.363a100.018 100.018 0 0 1 .079-12.776c.269.029.385.277.581.409a2.069 2.069 0 0 0 2.36.142c.117-.068.234-.136.346-.209a2.7 2.7 0 0 0 .211-4.647 1.9 1.9 0 0 0-1.766-.289 3.985 3.985 0 0 0-1.548.819z" class="cls-4" transform="translate(-54.053 -54.39)"/>
        <path id="路径_3361" d="M715.067 1347.811a10.517 10.517 0 0 0 1.975 1.35c.339.16.649.292.955-.036.26-.279.223-.546-.13-1.008a11.885 11.885 0 0 0-1.911-1.857c-.55-.457-.6-.526-.221-1.137a7.836 7.836 0 0 0 .408-1.219c.121-.289.233-.472.583-.272.585.336 1.247.52 1.816.892a8.191 8.191 0 0 0 2.174.865c.489.148.83.025.989-.308.189-.395-.021-.664-.3-.918a14.322 14.322 0 0 0-3.273-2.074c-1.121-.573-1.127-.564-.58-1.666a30.076 30.076 0 0 0 1.44-3.26c.211-.59.234-.6.765-.207q2.191 1.6 4.466 3.085a23.209 23.209 0 0 0 8.945 3.385 12.8 12.8 0 0 0 2.076.017c.084.317-.09.474-.2.655-1.13 1.905-2.264 3.808-3.311 5.761a34.823 34.823 0 0 0-1.51 3.407c-.091.225-.205.441-.29.668-.119.324-.329.37-.638.278a17.351 17.351 0 0 0-2.122-.508 18.544 18.544 0 0 0-3.624-.286 34.044 34.044 0 0 1-8.469-1.178 2.664 2.664 0 0 1-.532-.191c-.908-.416-1.014-.647-.644-1.552.362-.869.749-1.726 1.163-2.686z" class="cls-4" transform="translate(-20.168 -82.004)"/>
        <path id="路径_3362" d="M724.714 1217.663c-.042.182-.186.217-.3.272-4.48 2.093-8.864 4.375-13.18 6.785a55.389 55.389 0 0 0-8.174 5.674 32.1 32.1 0 0 0-3.891 3.892c-.227.264-.422.557-.636.842-.283-.081-.305-.358-.388-.566a41.691 41.691 0 0 1-2.12-6.369c-.167-.738-.175-.756.454-1.19.733-.506 1.483-.989 2.22-1.489q4.795-3.248 9.586-6.5a60.278 60.278 0 0 1 11.848-5.947c.6-.234.595-.211 1.045.317 1.156 1.356 2.218 2.791 3.443 4.089a.685.685 0 0 1 .093.19z" class="cls-1" transform="translate(-13.734 -37.233)"/>
        <path id="路径_3363" d="M939.826 1409.119a8.188 8.188 0 0 1 1-.155c1.78-.067 3.549-.271 5.322-.427a1.851 1.851 0 0 1 .707.123c.466.135.922.306 1.388.442a4.719 4.719 0 0 0 3.171-.185c.55-.221 1.109-.423 1.654-.657a2.159 2.159 0 0 1 .957-.1c3.89.1 7.78.113 11.67.11h10.541c1.864 0 3.723-.176 5.589-.122.74.022.774.044.862.747.093.749.2 1.5.3 2.245.076.625.011.707-.623.711-2.728.018-5.453.165-8.18.22-2.078.042-4.161.042-6.234.167-1.485.089-2.97.064-4.453.139-3.155.159-6.313.209-9.469.338-2.346.1-4.693.174-7.036.321a19.758 19.758 0 0 0-2.979.257.658.658 0 0 1-.78-.259 16.744 16.744 0 0 0-3.2-3.534.4.4 0 0 1-.207-.381z" class="cls-1" transform="translate(-101.964 -107.851)"/>
        <path id="路径_3364" d="M686.533 1417.943a6.618 6.618 0 0 1 3.109-2.667 15.847 15.847 0 0 1 4.712-1.066 9.985 9.985 0 0 0 4.6-1.111c.581-.336 1.216-.091 1.827-.1.213 0 .427.073.641.076q3 .041 5.99.167c2.536.108 5.077.085 7.61.228 2.754.155 5.507.1 8.261.128 1.135.01 2.263.143 3.4.137.37 0 .539.129.535.519-.011 1.027 0 2.055.008 3.082 0 .351-.155.484-.49.474-.3-.009-.595.009-.892.009-9.349.008-18.7-.031-28.047.046-3.429.029-6.858.087-10.287.077l-.977.001z" class="cls-1" transform="translate(-10.336 -109.581)"/>
        <path id="路径_3365" d="M795.544 1233.625c.3.38.533.635.722.92a25.46 25.46 0 0 0 6.106 6.081 7.072 7.072 0 0 0 6.272 1.226 24.564 24.564 0 0 0 6.167-2.6c.255-.142.354-.488.76-.514a5.4 5.4 0 0 1-.231 2.684c-.524 1.33-1.149 2.62-1.748 3.92a13.406 13.406 0 0 1-2.679 3.83c-.739.75-1.493 1.484-2.186 2.28a12.505 12.505 0 0 0-1.672 2.379 4.338 4.338 0 0 1-.683 1.168c-.269-.009-.294-.231-.4-.374a2.39 2.39 0 0 0-.418-.589c-1.192-.856-1.823-2.178-2.728-3.269a34.458 34.458 0 0 1-3.417-4.716 36.253 36.253 0 0 1-2.972-6.73q-.293-.884-.594-1.765a3.2 3.2 0 0 1-.2-1.349c.08-.815-.234-1.607-.099-2.582z" class="cls-3" transform="translate(-49.758 -44.721)"/>
        <path id="路径_3366" d="M906.112 1414.467h-.812c-2.946.011-5.894-.015-8.839.044-4.377.088-8.755.073-13.129.188-2.43.064-4.862.055-7.291.135-2.86.094-5.719.205-8.578.318-.511.02-1.021.087-1.531.135-.3.027-.448-.1-.454-.413a39.229 39.229 0 0 0-.3-3.955c-.05-.421.161-.5.524-.486 1 .035 1.991.133 2.99.166 2.673.089 5.349.084 8.019.2 2.62.112 5.241.03 7.858.149 4.484.2 8.969.1 13.454.125a5.96 5.96 0 0 1 1.494.322 22.515 22.515 0 0 1 6.022 2.546c.192.114.461.166.573.526z" class="cls-1" transform="translate(-74.958 -108.681)"/>
        <path id="路径_3367" d="M985.815 1401.881h-.975c-3.244.007-6.49-.045-9.732.036-4.242.1-8.485.093-12.726.187-1.322.029-2.645.068-3.968.1-.236.006-.488.062-.678-.162a9.475 9.475 0 0 0-3.442-2.07c-.6-.29-1.225-.509-1.864-.769.259-.289.549-.216.8-.207a9.2 9.2 0 0 0 5.372-1.515 1.306 1.306 0 0 1 .576-.278 3.791 3.791 0 0 0 2.674-1.494 1.285 1.285 0 0 1 .98-.463 27.443 27.443 0 0 0 3.464-.306 1.442 1.442 0 0 1 1.168.348 27.572 27.572 0 0 0 2.74 1.72c.79.467 1.6.907 2.4 1.351a2.229 2.229 0 0 0 2.365.023 6.673 6.673 0 0 1 1.817-.357c.546-.142 1.114-.2 1.668-.311a2.948 2.948 0 0 1 2.661.682c1.2 1.008 2.479 1.915 3.772 2.8.268.179.513.376.928.685z" class="cls-1" transform="translate(-106.524 -103.071)"/>
        <path id="路径_3368" d="M710.063 1407.495a9.263 9.263 0 0 0 1.807-3.435.749.749 0 0 1 .9-.589 18.911 18.911 0 0 0 2.422.107c5.128-.185 10.259-.028 15.387-.166 1.482-.04 2.965-.09 4.449-.119.684-.013.7 0 .7.653.006 1.27-.015 2.54 0 3.81 0 .42-.152.579-.569.56-2.019-.093-4.04-.17-6.06-.255-.135-.005-.269-.025-.4-.029-2.1-.059-4.207-.152-6.311-.166-3.887-.026-7.771-.245-11.659-.211a.9.9 0 0 1-.666-.16z" class="cls-1" transform="translate(-18.848 -106.097)"/>
        <path id="路径_3369" d="M718.87 1210.814c-1.288.531-2.388.968-3.474 1.436a59.969 59.969 0 0 0-9.714 5.49c-2.956 1.992-5.838 4.083-8.717 6.181-.127.093-.264.172-.455.3a2.761 2.761 0 0 1 .293-1.143q1.166-3.025 2.092-6.129a16.708 16.708 0 0 0 .552-2.027 1.473 1.473 0 0 1 .917-1.132 34.308 34.308 0 0 0 4.482-2.751 11.284 11.284 0 0 0 2.145-1.575.425.425 0 0 1 .441-.126c1.14.255 2.31.025 3.461.243 2.356.445 4.771.48 7.119.994.231.047.458.125.858.239z" class="cls-1" transform="translate(-13.945 -35.928)"/>
        <path id="路径_3370" d="M795.054 1250.449a12.085 12.085 0 0 0-10.635.85c.037-.768.038-1.436.107-2.1a59.915 59.915 0 0 1 1.258-8.054 31.181 31.181 0 0 1 1.319-3.82 3.574 3.574 0 0 1 2.562-2.1 31.97 31.97 0 0 0 5.732 15.057c-.003.281-.144.283-.343.167z" class="cls-4" transform="translate(-45.746 -45.299)"/>
        <path id="路径_3371" d="M893.962 1406.4c-.011.022-.021.064-.032.064-1.919.028-3.837.02-5.754-.047-.323-.011-.645-.061-.968-.062-7.138-.022-14.275-.073-21.412-.012-.7.006-.677 0-.8-.661a14.123 14.123 0 0 1-.1-1.942c-.016-.344.112-.491.475-.457a55.37 55.37 0 0 0 7.21.059c2.188-.083 4.378-.023 6.563-.131 2.886-.143 5.77-.281 8.66-.336a16.382 16.382 0 0 0 2.012-.184.483.483 0 0 1 .546.21c.234.331.489.646.724.977a7.526 7.526 0 0 0 2.611 2.26 1.786 1.786 0 0 1 .258.19c.012.008.004.045.007.072z" class="cls-1" transform="translate(-74.858 -105.875)"/>
        <path id="路径_3372" d="M834.827 1254.76c-.739-.612-1.453-1.212-2.176-1.8a23.1 23.1 0 0 0-2.577-1.956 8.693 8.693 0 0 0-4.255-1.4 1.4 1.4 0 0 1-.272-.08c.559-1.185 1.04-2.378 1.508-3.577a45.177 45.177 0 0 0 1.69-5.654 1.138 1.138 0 0 1 .362-.7 12.635 12.635 0 0 0 1.363-1.145c.211-.217.389-.122.527.09a3.8 3.8 0 0 1 .412.7 55.273 55.273 0 0 1 2.432 6.944 29.269 29.269 0 0 1 1.1 7.824 1.256 1.256 0 0 1-.114.754z" class="cls-4" transform="translate(-60.624 -46.423)"/>
        <path id="路径_3373" d="M953.839 1354.615c-.016 1.492.269 1.33-1.3 1.369-2.241.056-4.482.1-6.724.183-.726.025-1.449.126-2.172.209a1.136 1.136 0 0 1-.4 0 32.7 32.7 0 0 0-6.044-.438c-3.7-.145-7.4-.109-11.1-.075-2.619.024-5.236-.069-7.854-.023-.752.013-.791-.058-.77-.754.011-.384.178-.541.541-.537h.162c2.919.022 5.825-.262 8.74-.344 2.025-.058 4.048-.153 6.072-.218q4.412-.142 8.823-.313c2.833-.112 5.664-.239 8.5-.358 1.077-.045 2.151.105 3.222-.044.2-.029.295.105.3.291.008.348.004.7.004 1.052z" class="cls-1" transform="translate(-93.88 -88.001)"/>
        <path id="路径_3374" d="M696.765 1346.375c-1.323 0-2.646.027-3.967-.006-2.213-.054-4.418.262-6.631.129-.564-.034-1.128-.078-1.69-.14-.394-.043-.548-.252-.378-.592a7.356 7.356 0 0 0 .467-2.041c.061-.332.172-.455.513-.453 3.347.015 6.7-.048 10.04.047a58.832 58.832 0 0 1 6.76.557 14.125 14.125 0 0 0 1.536.073.937.937 0 0 1 .857 1.321c-.067.176-.174.337-.239.513a.8.8 0 0 1-.87.557c-2.132-.017-4.264-.008-6.4-.008z" class="cls-1" transform="translate(-9.431 -84.383)"/>
        <path id="路径_3375" d="M687.266 1194.588c-.216.961-.165 1.106.6 1.806a.622.622 0 0 1-.1.205 1.707 1.707 0 0 0-.467 1.9 10.106 10.106 0 0 0 1.672 3.9.273.273 0 0 1 0 .421c-.416.412-.761.9-1.442.951a1.379 1.379 0 0 0-1.059.91 1.376 1.376 0 0 1-.957.841 4.074 4.074 0 0 0-1.132.613c-1.742 1.125-3.477 2.262-5.253 3.42a.543.543 0 0 1 .1-.722 17.013 17.013 0 0 0 3.057-5.925c.452-1.27.816-2.569 1.318-3.823a11.3 11.3 0 0 1 3.095-4.2 1.515 1.515 0 0 1 .264-.186 2.358 2.358 0 0 1 .304-.111z" class="cls-1" transform="translate(-7.623 -30.6)"/>
        <path id="路径_3376" d="M831.081 1213.6a16.22 16.22 0 0 1-5.811-1.11 2.1 2.1 0 0 1-1.4-1.707c-.127-.856-.134-1.718-.239-2.574-.069-.559-.119-1.123-.184-1.684-.05-.442.055-.52.5-.477 2.413.235 4.8.646 7.175 1.116a10.019 10.019 0 0 1 1.543.479c.571.213.691.428.656 1.054a5.286 5.286 0 0 1-.333 1.411 32.281 32.281 0 0 0-1.134 3.112c-.116.525-.502.365-.773.38z" class="cls-3" transform="translate(-59.862 -34.741)"/>
        <path id="路径_3377" d="M688.214 1360.026c3.449.117 6.9.3 10.348.333.589.005 1.181.081 1.774.112.448.023.585.29.307.642a8.681 8.681 0 0 0-.966 1.68.706.706 0 0 1-.768.442c-1.992-.1-3.984-.187-5.975-.279-.108 0-.216-.017-.324-.017-3.1-.032-6.2-.293-9.3-.221-.732.017-.86-.14-.682-.862a3.068 3.068 0 0 0 0-1.6c-.071-.254.022-.424.332-.384 1.747.228 3.503.089 5.254.154z" class="cls-1" transform="translate(-8.896 -90.39)"/>
        <path id="路径_3378" d="M800.077 1206.41c0-.757-.008-1.514 0-2.27.008-.56.024-.587.535-.493a74.752 74.752 0 0 1 7.413 1.655 2.652 2.652 0 0 1 .526.206 1.254 1.254 0 0 1 .652 1.428 14.913 14.913 0 0 1-1.552 3.727.549.549 0 0 1-.6.3c-1.022-.076-2.046-.122-3.064-.233a9 9 0 0 1-2.519-.555c-.224-.093-.449-.186-.67-.285a1.151 1.151 0 0 1-.756-1.207c.033-.756.008-1.513.008-2.27z" class="cls-3" transform="translate(-51.397 -33.862)"/>
        <path id="路径_3379" d="M916.432 1350.05a3.587 3.587 0 0 0-.647.006 2.552 2.552 0 0 1-2.319-.85c-.469-.444-1-.817-1.513-1.22-.106-.084-.263-.133-.323-.24a1.763 1.763 0 0 0-1.531-1.026.294.294 0 0 1-.25-.283.668.668 0 0 1-.014-.161c.039-.394-.207-.907.119-1.16.405-.316.991-.079 1.494-.155.12-.019.287.219.42.351.882.877 1.79 1.731 2.632 2.646a2.834 2.834 0 0 0 2.162.92 56.717 56.717 0 0 0 6-.093 2.761 2.761 0 0 1 .324-.01c2.541.044 5.078-.142 7.614-.24 2.458-.1 4.919-.029 7.373-.158 2.107-.11 4.218-.017 6.319-.156 1.913-.127 3.833-.082 5.743-.256a3.87 3.87 0 0 1 .648.012c.264.02.368.183.364.44s-.158.318-.371.318c-.595 0-1.183.085-1.774.133-1.238.1-2.48.152-3.72.19-2.485.077-4.971.091-7.453.206-2.725.126-5.451.2-8.174.337-1.458.073-2.919.04-4.371.153-2.079.161-4.16.077-6.238.167-.846.034-1.676.124-2.514.129z" class="cls-1" transform="translate(-91.096 -84.991)"/>
        <path id="路径_3380" d="M884.541 1389.546c-.14.174-.283.132-.408.134-4.3.055-8.593.07-12.888.177-2.022.05-4.05.045-6.067.239-.305.03-.507-.089-.458-.4a17.358 17.358 0 0 0 .077-2.186c.01-.248.059-.4.378-.361 2.745.322 5.507.144 8.257.269 2.62.119 5.237.149 7.858.13a4.345 4.345 0 0 0 1.127-.073.7.7 0 0 1 .892.321 20.874 20.874 0 0 1 1.232 1.75z" class="cls-1" transform="translate(-74.792 -100.258)"/>
        <path id="路径_3381" d="M887 1395.13a1.286 1.286 0 0 1-.263.079c-1.322.048-2.644.1-3.965.133-3.079.075-6.159.12-9.236.215-2.347.073-4.692.2-7.037.313-.43.02-.859.082-1.288.126-.338.035-.514-.114-.518-.453-.006-.568-.013-1.136-.006-1.7 0-.266.15-.363.423-.354 6.621.213 13.242.093 19.864.057a1.525 1.525 0 0 1 1.573.834c.12.235.365.395.453.75z" class="cls-1" transform="translate(-74.781 -102.55)"/>
        <path id="路径_3382" d="M881.933 1383.514a1.557 1.557 0 0 1-.9.128c-2.944.062-5.883-.187-8.828-.136-2.079.036-4.145.28-6.222.308l-.243.005c-.89.012-.891.012-.895-.867v-1.622c0-.3.123-.449.435-.436.4.018.812 0 1.215.039 2.932.3 5.875.273 8.816.33.859.017 1.715.168 2.573.247a9.287 9.287 0 0 0 2.183.033.686.686 0 0 1 .841.361c.301.537.658 1.043 1.025 1.61z" class="cls-1" transform="translate(-74.839 -97.995)"/>
        <path id="路径_3383" d="M958.093 1338.164c.093.406-.142.585-.572.608-.187.01-.374.06-.562.066-2.132.068-4.265.127-6.4.195-3.59.113-7.182.185-10.769.368-1.647.083-3.294.065-4.94.133-1.671.069-3.342.154-5.013.24-.222.012-.5.07-.512-.219-.016-.269-.035-.637.367-.712.609-.112 1.22-.221 1.835-.293a9 9 0 0 0 1.665-.321 1.141 1.141 0 0 1 .469-.088 31.362 31.362 0 0 0 5.659-.056c.188-.016.379-.007.567-.014 1.97-.067 3.943-.1 5.91-.213 2.372-.137 4.746-.213 7.118-.332 1.485-.075 2.968-.121 4.453-.149.701-.012.732.033.725.787z" class="cls-1" transform="translate(-98.164 -82.253)"/>
        <path id="路径_3384" d="M710.786 1326.712c-.809-.038-1.476-.073-2.143-.1-.276-.01-.34-.223-.441-.411-1.1-2.043-2.2-4.09-3.313-6.127q-2.878-5.258-5.776-10.5c-.311-.566-.293-.611.347-.652a1.272 1.272 0 0 0 .162-.006c.831-.163 1.28.148 1.644.958.973 2.169 2.289 4.16 3.457 6.228 1.977 3.498 3.986 6.979 6.063 10.61z" class="cls-1" transform="translate(-14.816 -71.942)"/>
        <path id="路径_3385" d="M695.433 1340.045c-1.187-.029-2.374-.025-3.562-.069-1.343-.049-2.693.11-4.039.182-.162.009-.321.048-.482.055-.609.026-.638.005-.634-.612 0-.483-.162-1.082.177-1.409.3-.289.868-.066 1.314-.055 2.916.07 5.833.137 8.749.216 1.889.052 3.782.033 5.668.148 1.079.066 2.157.089 3.237.119.482.013.524.087.336.537-.2.473-.433.931-.626 1.406a.486.486 0 0 1-.64.319c-1.906-.39-3.85-.464-5.777-.673-1.241-.135-2.48-.128-3.721-.164z" class="cls-1" transform="translate(-10.389 -82.495)"/>
        <path id="路径_3386" d="M913.6 1341.674c1.34-.249 2.619 0 3.78-.565.237-.115.417.04.607.124.519.228 1.023.494 1.551.7a8.284 8.284 0 0 0 4.652.741.38.38 0 0 1 .081 0c3.108.03 6.205-.25 9.308-.365 2.887-.107 5.775-.2 8.66-.349 2.372-.121 4.744-.247 7.119-.326.834-.028 1.668-.117 2.506-.114.281 0 .55-.015.558.392.008.373-.144.559-.522.548-.081 0-.162 0-.243.006-2.674.062-5.349.1-8.022.192q-5.588.191-11.177.359c-1.511.048-3.023.091-4.535.114-2 .03-3.994.167-5.993.2a42.04 42.04 0 0 0-5.328.337 1.813 1.813 0 0 1-1.949-.866 13.132 13.132 0 0 0-1.053-1.128z" class="cls-5" transform="translate(-92.477 -83.588)"/>
        <path id="路径_3387" d="M713.868 1325c-.293-.045-.335-.288-.434-.463q-3.858-6.792-7.711-13.585c-.4-.7-.853-1.376-1.262-2.074-.211-.359-.151-.481.256-.525a9.871 9.871 0 0 0 1.523-.176c.37-.1.541.124.664.427.488 1.2 1.157 2.316 1.738 3.473 1.589 3.16 3.337 6.229 5.143 9.27 1.127 1.9 1.045 1.236.262 3.325-.047.128-.067.262-.179.328z" class="cls-1" transform="translate(-16.779 -71.683)"/>
        <path id="路径_3388" d="M918.557 1346.741a3.783 3.783 0 0 1 .383-.043c3.163.067 6.322-.117 9.482-.2 3-.082 5.99-.229 8.985-.337 1.349-.049 2.7-.075 4.048-.123 3.238-.114 6.478-.2 9.715-.352.781-.036 1.562-.108 2.344-.115.665-.007.681.012.7.486.027.57-.009.585-.622.667a35.17 35.17 0 0 1-4.858.119c-3-.014-6 .138-8.995.235-2.106.068-4.216.033-6.319.153-2.864.163-5.734-.016-8.59.165-1.644.1-3.3 0-4.93.249-.678.098-.917-.412-1.343-.904z" class="cls-5" transform="translate(-94.271 -85.216)"/>
        <path id="路径_3389" d="M700.97 1355.393c.016.086.033.117.024.136-.7 1.492-.375 1.289-2.021 1.2-.454-.026-.911-.1-1.37-.089-3.189.048-6.371-.175-9.557-.234-2.078-.039-4.157-.1-6.236-.119-.414 0-.544-.116-.585-.537-.188-1.908-.231-1.609 1.477-1.517q2.868.155 5.737.326c2.666.157 5.329.342 8 .5a30.852 30.852 0 0 1 4.531.334z" class="cls-1" transform="translate(-8.384 -88.323)"/>
        <path id="路径_3390" d="M682.66 1350.255a33.8 33.8 0 0 0 5.076.233c4.615-.259 9.235-.062 13.851-.156.189 0 .378-.009.567 0 .077 0 .2.015.222.062.2.405.193.876.415 1.285.114.209-.1.4-.211.581a.522.522 0 0 1-.671.294 4.035 4.035 0 0 0-1.126-.089l-8.32-.462c-.35-.019-.7-.022-1.053-.027-2.645-.04-5.28-.281-7.922-.4-1.369-.064-1.204.11-.828-1.321z" class="cls-1" transform="translate(-8.839 -86.912)"/>
        <path id="路径_3391" d="M698.29 1373.128a7.263 7.263 0 0 1-.452 1.839c-.084.282-.323.242-.535.239-.945-.011-1.891-.027-2.836-.04a65.794 65.794 0 0 0-8.395.479 5.845 5.845 0 0 1-.728.029c-.428 0-.636-.182-.532-.581a4.973 4.973 0 0 0 .151-2c-.029-.2.107-.289.289-.308.107-.011.216-.008.324-.009l7.212-.038a31.6 31.6 0 0 1 3.786.3c.557.068 1.126.062 1.716.09z" class="cls-1" transform="translate(-9.704 -95.045)"/>
        <path id="路径_3392" d="M699.462 1326.643h-2.053c-.272 0-.474-.054-.486-.389a2.793 2.793 0 0 0-.435-1.124c-2.372-4.733-4.853-9.41-7.313-14.1-.2-.383-.427-.752-.627-1.135-.14-.267-.026-.406.261-.424.054 0 .108 0 .162-.006 1.014-.073.992-.061 1.474.815 1.77 3.217 3.558 6.425 5.333 9.64 1.212 2.2 2.412 4.402 3.684 6.723z" class="cls-1" transform="translate(-11.044 -72.148)"/>
        <path id="路径_3393" d="M888.946 1399.646c-.1.143-.243.117-.369.115-1.675-.019-3.343.184-5.019.151-2.946-.059-5.886.129-8.829.2-2.265.056-4.528.192-6.792.318-.806.045-1.608.158-2.411.251-.6.07-.673.036-.673-.555 0-.4-.192-.886.088-1.172.252-.259.714-.025 1.083-.029 1.811-.019 3.625.061 5.431-.029 2.593-.129 5.188-.027 7.777-.159 2.052-.1 4.1-.075 6.155-.151.673-.025 1.345-.092 2.018-.131a1.13 1.13 0 0 1 1.252.648c.088.186.329.297.289.543z" class="cls-1" transform="translate(-74.82 -104.347)"/>
        <path id="路径_3394" d="M712.875 1240.684a15.972 15.972 0 0 1-3.365 1.9c-2.572 1.116-5.105 2.322-7.731 3.313-.239.09-.522.343-.741.094-.246-.279.114-.464.244-.676a4.573 4.573 0 0 1 .758-.946 61.393 61.393 0 0 1 6.641-5.668c.578-.409.587-.413 1.09.114a5.79 5.79 0 0 0 2.512 1.567.97.97 0 0 1 .592.302z" class="cls-1" transform="translate(-15.553 -46.452)"/>
        <path id="路径_3395" d="M695.54 1383.934c-.072.782-.253 1.432-.375 2.093-.069.377-.271.483-.612.489-1.188.022-2.372.015-3.56-.064a34.183 34.183 0 0 0-4.936.011c-1.294.1-2.591.019-3.886.06-.241.008-.339-.117-.343-.344 0-.324-.011-.648-.015-.973-.01-.982 0-1 .992-.9a34.906 34.906 0 0 0 7.183-.16 40.285 40.285 0 0 1 5.552-.212z" class="cls-1" transform="translate(-8.629 -99.087)"/>
        <path id="路径_3396" d="M704.809 1326.742c-1.44.11-1.416.1-2.055-1.056-1.283-2.314-2.6-4.609-3.9-6.915q-2.384-4.234-4.759-8.474c-.1-.182-.258-.352-.23-.583.045-.039.081-.1.121-.1.507-.028 1.054-.347 1.5-.083.408.24.476.821.706 1.245 1.647 3.039 3.281 6.084 4.928 9.122 1.132 2.089 2.277 4.171 3.413 6.258.094.161.161.335.276.586z" class="cls-1" transform="translate(-12.989 -72.142)"/>
        <path id="路径_3397" d="M685.1 1381.086h-2.68c-.784 0-.785 0-.8-.817v-.892c0-.275.1-.368.4-.33a19.436 19.436 0 0 0 3.48.06c2.369-.128 4.735-.314 7.1-.44 1.024-.054 2.053-.034 3.079-.019.537.007.572.077.474.568-.271 1.361-.273 1.325-1.686 1.375-2.128.075-4.252.245-6.375.408-.994.076-2 .013-3 .013z" class="cls-1" transform="translate(-8.56 -97.178)"/>
        <path id="路径_3398" d="M680.6 1307.76a11.129 11.129 0 0 0 1.238 3.417c2.282 4.743 4.692 9.423 7.091 14.108.264.516.232.52-.37.587a1.624 1.624 0 0 1-1.929-1.164c-1.476-3.329-3.107-6.59-4.682-9.875a7.94 7.94 0 0 0-.6-1.147 5.577 5.577 0 0 1-.965-3.272c-.006-.783-.013-1.566-.015-2.349-.004-.099-.016-.22.232-.305z" class="cls-1" transform="translate(-8.105 -71.539)"/>
        <path id="路径_3399" d="M698.065 1207.854c2.121-1.578 4.224-2.936 6.367-4.379l1.555 3.078c.136.269-.047.391-.23.52-.615.437-1.213.9-1.846 1.311q-1.56 1.014-3.156 1.97c-.549.328-.575.3-.938-.257a8.935 8.935 0 0 0-1.752-2.243z" class="cls-1" transform="translate(-14.508 -33.814)"/>
        <path id="路径_3400" d="M877.379 1372.946c-2.136 0-4.081-.055-6.021.015-1.965.072-3.936.044-5.9.254-.929.1-1.007.021-1.056-.918-.024-.458-.014-.918-.032-1.377-.013-.315.119-.454.433-.408 2.651.384 5.331.22 7.992.421.941.072 1.89.043 2.834.025a.785.785 0 0 1 .832.474c.239.473.548.911.918 1.514z" class="cls-1" transform="translate(-74.669 -94.237)"/>
        <path id="路径_3401" d="M723.93 1229.716a4.174 4.174 0 0 1-2.309 5.283 8.184 8.184 0 0 1-1.814.654 4.816 4.816 0 0 1-3.619-1.029c-.376-.25-.14-.423.107-.591 1.245-.853 2.535-1.635 3.854-2.367 1.13-.628 2.269-1.239 3.407-1.853.112-.062.228-.155.374-.097z" class="cls-1" transform="translate(-20.993 -43.3)"/>
        <path id="路径_3402" d="M683.6 1309.009c1.191-.084 1.162-.071 1.64.984.5 1.107 1.051 2.194 1.613 3.273q2.229 4.28 4.488 8.543c.644 1.218 1.312 2.425 1.954 3.644.133.252.362.48.313.8a.493.493 0 0 1-.148.074c-1.467.115-1.469.115-2.1-1.237-1.64-3.531-3.376-7.016-5.07-10.52-.812-1.68-1.67-3.335-2.524-4.993-.078-.158-.223-.304-.166-.568z" class="cls-1" transform="translate(-9.271 -71.98)"/>
        <path id="路径_3403" d="M738.921 1398.964a14.564 14.564 0 0 0-.082-2.906c-.106-.59.011-.718.581-.608 1.038.2 2.092.109 3.136.239a13.227 13.227 0 0 0 3.545-.236v3.165c0 .231-.131.337-.354.342h-.08z" class="cls-1" transform="translate(-29.245 -103.248)"/>
        <path id="路径_3404" d="M700.156 1198.558l-4.733 3.484c-.385-1.11-1.119-1.986-1.495-3.058a.781.781 0 0 1 .219-1c.576-.489 1.075-1.066 1.686-1.517a6.286 6.286 0 0 1 .792-.562c1.381-.722 1.389-.48 2.042.444a22.677 22.677 0 0 0 1.489 2.209z" class="cls-1" transform="translate(-12.98 -30.924)"/>
        <path id="路径_3405" d="M691.478 1368.928a18.261 18.261 0 0 0 .119-1.905c-.028-.148.123-.21.281-.2 1.829.132 3.664.009 5.495.162 1.26.1 2.534.05 3.8.072.964.017.964.021.617.941-.076.2-.158.4-.23.6-.332.945-.335.978-1.3.843a42.763 42.763 0 0 0-8.219-.439.82.82 0 0 1-.563-.074z" class="cls-1" transform="translate(-12.122 -92.905)"/>
        <path id="路径_3406" d="M694.671 1390a3.122 3.122 0 0 1-.719 1.318.989.989 0 0 1-.811.28c-1.619.052-3.236.14-4.854.154-1.863.016-3.722.1-5.583.177-.827.036-.827.022-.836-.832v-.892c0-.275.116-.38.4-.357 4.071.336 8.147.091 12.22.084a.775.775 0 0 1 .183.068z" class="cls-1" transform="translate(-8.647 -101.234)"/>
        <path id="路径_3407" d="M680.757 1320.081l4.865 9.99c-.7.411-1.61-.056-2.154.737a15.046 15.046 0 0 1-1.182-2.033c-.447-.737-.815-1.52-1.25-2.264a2.908 2.908 0 0 1-.393-1.465c-.015-1.644-.005-3.288-.005-4.932z" class="cls-1" transform="translate(-8.202 -75.996)"/>
        <path id="路径_3408" d="M879.555 1378.46c-1.241-.11-2.361-.189-3.475-.318-.377-.044-.749-.077-1.127-.086-2.916-.073-5.829.094-8.742.161a11.206 11.206 0 0 0-1.122.136c-.3.038-.425-.09-.461-.4-.159-1.347-.119-1.43 1.239-1.367 3.535.163 7.071.154 10.607.145a3.529 3.529 0 0 0 1.048-.027c.751-.244 1.087.151 1.384.726.169.324.394.623.649 1.03z" class="cls-1" transform="translate(-74.738 -96.431)"/>
        <path id="路径_3409" d="M717.6 1396.32a24.358 24.358 0 0 1 1.55-2.185.359.359 0 0 1 .485-.13 10.006 10.006 0 0 0 3.334.544c1.809.029 3.613.2 5.424.146a6.159 6.159 0 0 0 1.206-.1c.261-.059.415.054.4.343-.006.135 0 .271 0 .405 0 .86-.007.779-.857.806a32.42 32.42 0 0 0-4.6 0 .969.969 0 0 1-.162.009c-1.943.02-3.888.037-5.829.163-.26.013-.525-.001-.951-.001z" class="cls-5" transform="translate(-21.575 -102.723)"/>
        <path id="路径_3410" d="M717.5 1320.84c-2.09-4.574-4.444-8.806-6.844-13.013.194-.234.428-.126.625-.168.434-.093.656.1.888.481 1.051 1.729 1.949 3.546 3.021 5.26.771 1.233 1.624 2.416 2.474 3.6a1.947 1.947 0 0 1 .321 1.894c-.193.569-.298 1.17-.485 1.946z" class="cls-1" transform="translate(-19.062 -71.494)"/>
        <path id="路径_3411" d="M742.8 1383.026c-.946 0-1.892.007-2.838 0-.562-.006-.6-.05-.617-.595-.015-.595 0-1.19-.023-1.785-.017-.372.087-.55.493-.531a9.79 9.79 0 0 1 2.067.187 10.936 10.936 0 0 0 3.854.256c.525-.055.532-.063.547.484.013.487-.01.975.013 1.46.021.429-.172.569-.578.563-.973-.015-1.945-.005-2.918-.005z" class="cls-1" transform="translate(-29.432 -97.712)"/>
        <path id="路径_3412" d="M724.414 1386.681c.65-.945 1.2-1.738 1.741-2.532a.587.587 0 0 1 .644-.223 18.426 18.426 0 0 0 5.7-.071.591.591 0 0 1 .117.627 3.807 3.807 0 0 0-.186 1.434c0 .292-.105.464-.412.479-.053 0-.105.025-.158.031a54.644 54.644 0 0 1-7.446.255z" class="cls-1" transform="translate(-24.04 -99.067)"/>
        <path id="路径_3413" d="M737.653 1223.036a8.5 8.5 0 0 1-1.5 2.635 36.617 36.617 0 0 1-4.53 4.133c-.151.125-.3.318-.548.265-.155-.141-.09-.31-.083-.461a6.808 6.808 0 0 0-.275-2.634.465.465 0 0 1 .247-.661c2.15-1.117 4.288-2.256 6.487-3.276a.959.959 0 0 1 .202-.001z" class="cls-1" transform="translate(-26.302 -40.889)"/>
        <path id="路径_3414" d="M692.013 1394.726a1.717 1.717 0 0 1-.816.564 45.386 45.386 0 0 1-7.392 2.363c-.5.091-1.014.14-1.522.209-.3.041-.463-.049-.451-.387.022-.622.036-1.244.03-1.866 0-.348.143-.48.484-.479.782 0 1.562-.049 2.344-.105 1.642-.119 3.29-.16 4.935-.214a10.383 10.383 0 0 1 2.388-.085z" class="cls-1" transform="translate(-8.636 -102.979)"/>
        <path id="路径_3415" d="M874.1 1367.515c-2.2 0-4.223.015-6.242-.006-1.028-.011-2.046.089-3.069.139-.622.03-.627.012-.657-.608-.016-.324-.021-.648-.024-.972-.005-.668.029-.735.667-.652a55.236 55.236 0 0 0 6.469.117 1.245 1.245 0 0 1 1.248.648 4.53 4.53 0 0 0 1.608 1.334z" class="cls-1" transform="translate(-74.574 -92.386)"/>
        <path id="路径_3416" d="M924.053 1364.693c-.466.7-.878 1.325-1.3 1.945a.619.619 0 0 1-.572.232q-3.4.017-6.8.037c-.162 0-.34.006-.392-.2s.09-.294.255-.342a1.379 1.379 0 0 0 .9-1.15.645.645 0 0 1 .75-.557c2.289.153 4.577-.089 6.866-.033a2.284 2.284 0 0 1 .293.068z" class="cls-6" transform="translate(-92.978 -92.109)"/>
        <path id="路径_3417" d="M921.918 1359.951a44.676 44.676 0 0 1 5-.149c.149 0 .352-.072.428.119.089.227-.109.342-.254.449a7.006 7.006 0 0 0-1 .822.932.932 0 0 1-.659.246c-1.4.128-2.8.112-4.2.157-1.345.042-2.688.12-4.031.195-.55.031-.572.048-.631-.523a2.621 2.621 0 0 0-.349-.979c.075-.442.423-.232.638-.234 1.421-.02 2.843-.006 4.265-.015.275-.003.548.081.793-.088z" class="cls-5" transform="translate(-93.43 -90.36)"/>
        <path id="路径_3418" d="M714.65 1400.72c.3-.426.565-.765.779-1.135a.715.715 0 0 1 .82-.343 38.429 38.429 0 0 0 5.966.265c1.428-.059 2.855-.066 4.282-.1a10.63 10.63 0 0 0 1.929.029c.342-.07.459.165.484.486.029.362-.126.465-.463.477-.888.031-1.773.105-2.663.119-3.235.047-6.469.132-9.7.186-.449.002-.884.238-1.434.016z" class="cls-6" transform="translate(-20.508 -104.628)"/>
        <path id="路径_3419" d="M944.31 1331.545c2.337.1 5.063-.116 7.788-.219 2.026-.076 4.051-.079 6.076-.123a5.63 5.63 0 0 0 1.687-.129 2.156 2.156 0 0 1 .725 0 .275.275 0 0 1 .293.308.291.291 0 0 1-.289.32c-.483.048-.966.115-1.449.132-.784.028-1.568.029-2.352.029-3.406.005-6.808.161-10.213.22-1.834.032-3.674.043-5.508.142-.943.051-1.885.113-2.83.135h-.568a.278.278 0 0 1-.308-.294c-.01-.223.077-.364.315-.38.081-.005.162 0 .243-.009 1.996-.129 3.996-.125 6.39-.132z" class="cls-6" transform="translate(-101.073 -79.96)"/>
        <path id="路径_3420" d="M731.38 1389.87a4.211 4.211 0 0 0-.147 1.446c.01.365-.152.458-.491.439-.671-.037-1.334-.148-2.011-.146-2.155.006-4.311-.024-6.467-.042-.214 0-.427-.021-.773-.039a5.211 5.211 0 0 1 1.16-1.642c.1-.1.252-.049.385-.022a15.928 15.928 0 0 0 3.452.262 31.761 31.761 0 0 0 3.455-.267 4.409 4.409 0 0 1 1.437.011z" class="cls-5" transform="translate(-22.983 -101.219)"/>
        <path id="路径_3421" d="M934.1 1328.323h.4c4.4-.056 8.807-.094 13.209-.175 1.592-.029 3.18-.164 4.775-.138a1.583 1.583 0 0 1 1.4.646c-.1.253-.324.138-.484.139-1.594.018-3.19.054-4.784.026-2.838-.05-5.669.2-8.506.2-.644 0-1.287.124-1.938.11a7.5 7.5 0 0 1-1.615-.016 9.85 9.85 0 0 1-2.457-.792z" class="cls-6" transform="translate(-99.894 -78.864)"/>
        <path id="路径_3422" d="M745.24 1363.759h-1.62a1.938 1.938 0 0 1-.858-.2c-.463-.219-.589-.47-.422-.956.327-.953.6-1.852 2-1.707a22.389 22.389 0 0 0 2.663-.024c.372-.006.532.17.52.548q-.028.932-.01 1.864c.006.352-.151.483-.486.478-.594-.01-1.188 0-1.782 0z" class="cls-5" transform="translate(-30.499 -90.754)"/>
        <path id="路径_3423" d="M939.807 1360.374c1.134-.006 2.251-.215 3.378-.287a32.955 32.955 0 0 1 5.336.03 9.154 9.154 0 0 1 2 .237 3.318 3.318 0 0 1 .894.354.939.939 0 0 1-.684.3 30.692 30.692 0 0 1-4.571.509c-.537.014-1.073.094-1.61.115a11 11 0 0 1-4.286-.653c-.352-.13-.721-.213-1.083-.317.054-.433.466-.089.626-.288z" class="cls-6" transform="translate(-101.732 -90.435)"/>
        <path id="路径_3424" d="M698.123 1298.934a21.109 21.109 0 0 0 2.4.064c.505 0 .535.018.506.567-.052.966-.136 1.93-.211 2.894-.023.294-.07.587-.088.881-.041.674-.036.676-.676.679h-1.533c-.262 0-.4-.107-.4-.382.004-1.55.002-3.104.002-4.703z" class="cls-5" transform="translate(-14.529 -68.346)"/>
        <path id="路径_3425" d="M747.96 1370.829h-3.168c-.58 0-.616-.027-.717-.629a13.186 13.186 0 0 1-.24-2.677c.124-.164.329-.1.5-.072a8.492 8.492 0 0 0 2.574.014c.212-.03.433.006.647-.016.4-.04.5.15.508.521.012.943-.19 1.874-.104 2.859z" class="cls-6" transform="translate(-31.063 -93.118)"/>
        <path id="路径_3426" d="M871.067 1358.528a40.036 40.036 0 0 0-6.455.209c-.821.073-.928.013-.959-.838-.015-.427 0-.856 0-1.37a11.683 11.683 0 0 0 3.808.287c.593 0 1.174-.158 1.772-.123.287.017.513.029.627.361a1.677 1.677 0 0 0 .679.781 1.221 1.221 0 0 1 .528.693z" class="cls-6" transform="translate(-74.406 -89.182)"/>
        <path id="路径_3427" d="M675.486 1415.083a7.341 7.341 0 0 0-1.39 2.752c-.057.287-.268.3-.49.3-.565-.011-1.135.017-1.694-.049-.83-.1-1.661-.125-2.494-.146-.18 0-.4.042-.465-.207a.539.539 0 0 1 .148-.521 4.419 4.419 0 0 1 2.027-1.268c1.372-.392 2.78-.563 4.358-.861z" class="cls-1" transform="translate(-3.971 -110.363)"/>
        <path id="路径_3428" d="M791.241 1215.3a20.77 20.77 0 0 1-1.332-3.975 9.8 9.8 0 0 1-.13-4.248 2.526 2.526 0 0 1 .16-.539c.112-.264.275-.371.567-.19a1.447 1.447 0 0 1 .905 1.432c-.082 1.616 0 3.239-.024 4.86-.012.887-.095 1.774-.146 2.66z" class="cls-3" transform="translate(-47.623 -34.821)"/>
        <path id="路径_3429" d="M720.085 1315.549c-2.1-2.746-3.492-5.816-5.516-8.575.64-.236 1.244-.089 1.8-.257.152-.046.2.147.227.277.565 2.458 2.049 4.451 3.377 6.505a1.912 1.912 0 0 1 .112 2.05z" class="cls-6" transform="translate(-20.478 -71.159)"/>
        <path id="路径_3430" d="M938.182 1335.414h-.648c-.158 0-.355.022-.37-.2-.017-.274.2-.271.4-.279.161-.007.324-.007.486 0 2.593.053 5.181-.131 7.771-.2 2.83-.078 5.663-.174 8.49-.327 1.7-.092 3.4-.007 5.091-.235a5.462 5.462 0 0 1 1.13.029.247.247 0 0 1 .25.263c-.007.165-.132.231-.264.257a2.539 2.539 0 0 1-.483.04c-2.781 0-5.559.16-8.338.225-2.429.057-4.863.025-7.285.176-2.079.12-4.163-.031-6.23.251z" class="cls-6" transform="translate(-101.002 -81.083)"/>
        <path id="路径_3431" d="M723.316 1301.03c.092-.789.121-1.734.184-2.676.057-.86.136-.9.973-.93a5.007 5.007 0 0 0 1.283-.146c.283-.084.5 0 .436.354-.236 1.3-.484 2.6-.722 3.9a.57.57 0 0 1-.438.521 5.8 5.8 0 0 1-1.453.045c-.2-.01-.258-.169-.262-.345s-.001-.381-.001-.723z" class="cls-6" transform="translate(-23.642 -67.736)"/>
        <path id="路径_3432" d="M965.981 1363.984c.089-.157.206-.127.3-.127 1.509 0 3.018 0 4.527.007.573 0 .58.024.6.592a7.105 7.105 0 0 0 .068 1.128c.077.385-.126.543-.5.539-.431-.006-.862 0-1.293 0a6.73 6.73 0 0 0-1.531.055c-.71.18-1.03-.144-1.312-.7-.255-.518-.575-1.01-.859-1.494z" class="cls-5" transform="translate(-111.426 -91.831)"/>
        <path id="路径_3433" d="M711.924 1297.857a1.977 1.977 0 0 1 .071 1.04c-.069 1.183-.341 2.35-.3 3.544.009.264-.133.4-.4.386l-1.3-.049a.367.367 0 0 1-.391-.414 4.2 4.2 0 0 1 .019-.647 13.673 13.673 0 0 0 .048-3.152c-.029-.361.063-.505.391-.537.618-.06 1.238-.113 1.862-.171z" class="cls-6" transform="translate(-18.682 -67.957)"/>
        <path id="路径_3434" d="M732.557 1375.073a15.09 15.09 0 0 1 1.075-1.8.5.5 0 0 1 .479-.241c1.079 0 2.159.005 3.237-.019.4-.009.511.162.5.531-.066 1.819.34 1.558-1.48 1.6-.782.016-1.551.179-2.338.143a5.5 5.5 0 0 1-1.473-.214z" class="cls-6" transform="translate(-26.985 -95.145)"/>
        <path id="路径_3435" d="M706.492 1298.667v2.2c0 .7 0 1.4-.016 2.1-.015.534-.087.592-.619.6-.377.008-.756-.013-1.131.02-.4.035-.525-.137-.5-.514.068-.939.184-1.874.177-2.819 0-.424-.17-.924.1-1.257.252-.313.765-.069 1.148-.221a3.692 3.692 0 0 1 .841-.109z" class="cls-6" transform="translate(-16.736 -68.25)"/>
        <path id="路径_3436" d="M689.89 1304.579a7.6 7.6 0 0 0-1.655-.1c-.315 0-.505-.073-.5-.449q.015-1.9-.011-3.806c0-.366.157-.481.491-.44s.642.071.962.114c.821.11.8.112.814.966a25.859 25.859 0 0 0-.101 3.715z" class="cls-6" transform="translate(-10.766 -68.65)"/>
        <path id="路径_3437" d="M695.112 1301.7a22.347 22.347 0 0 1-.128 2.418c-.046.281-.114.439-.426.46a6.8 6.8 0 0 1-1.283.1c-.239-.029-.4-.079-.318-.4a16.127 16.127 0 0 0 .221-3.939c.013-.772-.005-.772.8-.791q.444-.011.888-.026c.287-.01.394.139.342.4a13.291 13.291 0 0 0-.096 1.778z" class="cls-6" transform="translate(-12.652 -68.561)"/>
        <path id="路径_3438" d="M745.873 1390.781a.674.674 0 0 1 .079.486c-.02.346.128.746-.1 1.024-.241.3-.606-.015-.917.02-1.885.214-3.778.028-5.666.117-.189.009-.378 0-.567.009-.269.008-.4-.11-.382-.389.006-.08 0-.162.005-.243 0-.684 0-.7.657-.666.592.027 1.185.139 1.774.12a22.922 22.922 0 0 0 4.9-.476.861.861 0 0 1 .217-.002z" class="cls-6" transform="translate(-29.071 -101.57)"/>
        <path id="路径_3439" d="M715.751 1302.286h-.324c-.743-.012-.71-.009-.632-.774.1-.964.147-1.932.191-2.9.032-.7.012-.7.728-.712a4.328 4.328 0 0 0 1.278-.141c.308-.1.458.05.4.385a28.955 28.955 0 0 0-.446 3.6c-.022.352-.16.558-.544.538-.215-.011-.431 0-.647 0z" class="cls-5" transform="translate(-20.546 -67.91)"/>
        <path id="路径_3440" d="M961.478 1359.765c.052-.025.094-.063.135-.062 2.429.057 4.851-.213 7.279-.177.135 0 .27.008.4 0 .343-.024.5.129.479.474a.687.687 0 0 0 0 .081c.045.886-.005.881-.874.841-1.346-.062-2.7-.043-4.045-.057a3.68 3.68 0 0 0-.728.012 2.759 2.759 0 0 1-2.646-1.112z" class="cls-6" transform="translate(-109.797 -90.264)"/>
        <path id="路径_3441" d="M865.555 1363.042c-.406 0-.812-.015-1.217 0-.36.017-.455-.155-.478-.484-.07-.988-.066-1 .918-.981 2.026.048 4.05.1 6.076.142.367.006.632.043.639.506.006.332-.082.487-.443.505-1.832.096-3.664.207-5.495.312z" class="cls-6" transform="translate(-74.474 -91.007)"/>
        <path id="路径_3442" d="M687.459 1367.661c-.048 1.191-.049 1.213-1.221 1.192-.759-.015-1.5.153-2.258.131-.634-.018-.671-.038-.5-.644a3.957 3.957 0 0 0-.087-1.278c-.018-.612.02-.7.613-.606a24.588 24.588 0 0 0 2.826.134c.671.029.67.026.631.668-.011.133-.004.269-.004.403z" class="cls-6" transform="translate(-9.198 -92.761)"/>
        <path id="路径_3443" d="M728.643 1380.594c.575-.9 1.084-1.682 1.587-2.473a.348.348 0 0 1 .475-.161 6.843 6.843 0 0 0 2.378.409c.163 0 .347.013.378.218.071.452.128.906.179 1.361.027.239-.121.331-.34.356a11.71 11.71 0 0 1-1.282.155 25.624 25.624 0 0 1-3.375.135z" class="cls-6" transform="translate(-25.57 -96.921)"/>
        <path id="路径_3444" d="M841.344 1220.362c.518-1.951.861-3.907 1.247-5.854a1.857 1.857 0 0 1 1.134-1.038c.364-.023.436.269.461.539a5.185 5.185 0 0 1-.04 1.931 9.489 9.489 0 0 1-2.802 4.422z" class="cls-3" transform="translate(-66.339 -37.43)"/>
        <path id="路径_3445" d="M745.934 1386.623c.183.177.109.4.113.608.016.732.01.663-.747.667-1.154.007-2.311.086-3.461.2-.965.094-1.939.018-2.9.2-.159.031-.347-.015-.354-.229-.011-.377 0-.755.012-1.131.007-.167.147-.21.289-.214a2.108 2.108 0 0 1 .484.013c.981.205 1.984.125 2.976.243a9.716 9.716 0 0 0 3.588-.357z" class="cls-6" transform="translate(-29.165 -100.068)"/>
        <path id="路径_3446" d="M919.039 1335.573c.474.208.837.365 1.2.525 1.2.533 2.409 1.061 3.608 1.6a.868.868 0 0 1 .341 1.362.4.4 0 0 1-.445.09 8.567 8.567 0 0 1-1.085-.3c-1.024-.4-2.034-.842-3.057-1.25-.391-.156-.626-.368-.569-.836a10.88 10.88 0 0 0 .007-1.191z" class="cls-6" transform="translate(-94.439 -81.601)"/>
        <path id="路径_3447" d="M743.472 1374.871a14.408 14.408 0 0 0 2.865.143c1.5.015 1.5.007 1.461 1.452-.019.732-.047.787-.794.768-.941-.023-1.881-.107-2.823-.147-.341-.015-.468-.153-.463-.5a2.786 2.786 0 0 0-.246-1.716z" class="cls-6" transform="translate(-30.934 -95.817)"/>
        <path id="路径_3448" d="M744.6 1357.546a14.02 14.02 0 0 1 1.209-2.324.5.5 0 0 1 .479-.242c.647-.008 1.294-.014 1.941-.033.37-.011.488.186.424.507a10.129 10.129 0 0 0-.148 1.689c-.01.314-.174.428-.468.408-.08-.006-.161 0-.242 0z" class="cls-6" transform="translate(-31.343 -88.609)"/>
        <path id="路径_3449" d="M684.936 1300.879a18.882 18.882 0 0 0-.107 3.08c0 .251-.056.428-.372.343a4.189 4.189 0 0 0-1.123-.056c-.333 0-.5-.112-.475-.471a28.015 28.015 0 0 0-.014-2.984.4.4 0 0 1 .388-.493c.291-.047.578-.12.864-.193.854-.217.857-.216.839.774z" class="cls-6" transform="translate(-9.001 -68.728)"/>
        <path id="路径_3450" d="M682.438 1339.812l-1.3-1.649a.928.928 0 0 1-.271-.572v-3.364a3.054 3.054 0 0 1 .633.924 21.325 21.325 0 0 0 1.82 3.049c.273.334.193.546-.253.665s-.638.364-.629.947z" class="cls-6" transform="translate(-8.288 -81.114)"/>
        <path id="路径_3451" d="M719.77 1306.991a.994.994 0 0 1 .193-.091c.858-.141.852-.137 1.285.663a16.676 16.676 0 0 1 1.54 3.112 2.045 2.045 0 0 1-.1 1.747 23.971 23.971 0 0 1-2.918-5.431z" class="cls-6" transform="translate(-22.36 -71.203)"/>
        <path id="路径_3452" d="M915.45 1370.1c2.139-.13 4.267.211 6.4.072.112.4-.15.625-.227.9-.05.179-.2.22-.372.25a20.615 20.615 0 0 1-2.813.147.493.493 0 0 1-.517-.3 1.378 1.378 0 0 0-1.16-.735c-.434-.078-.913.014-1.311-.334z" class="cls-6" transform="translate(-93.147 -94.08)"/>
        <path id="路径_3453" d="M907.679 1362.78a17.416 17.416 0 0 0 3.434-.158c.382-.081.627.041.624.488a3.692 3.692 0 0 0 .078.477c.036.289-.069.449-.387.481a17.248 17.248 0 0 0-2.709.426c-.217.057-.361.026-.447-.2-.179-.476-.372-.948-.593-1.514z" class="cls-6" transform="translate(-90.336 -91.377)"/>
        <path id="路径_3454" d="M808.922 1303.882a1.557 1.557 0 0 1 1.617-1.466c.455.013 1.117.892 1.139 1.514.016.463-1.032 1.346-1.566 1.319a1.6 1.6 0 0 1-1.19-1.367z" class="cls-6" transform="translate(-54.61 -69.606)"/>
        <path id="路径_3455" d="M686.1 1213.429c.226.237.35.43.025.678-2.312 1.763-4.617 3.536-6.936 5.316-.241-.832-.239-.877.362-1.271 2.233-1.461 4.32-3.129 6.549-4.723z" class="cls-6" transform="translate(-7.624 -37.415)"/>
        <path id="路径_3456" d="M811.395 1359.227a.823.823 0 0 1-.119.462 1.487 1.487 0 0 1-2.3.144c-.723-1.026-.789-1.278.423-1.908a1.339 1.339 0 0 1 1.996 1.302z" class="cls-6" transform="translate(-54.443 -89.623)"/>
        <path id="路径_3457" d="M815.081 1411.759a4.2 4.2 0 0 1-.192.613c-.4.861-1 .926-1.568.167a3.261 3.261 0 0 1-.684-1.263c-.123-.578-.061-.8.385-1.108a1.009 1.009 0 0 1 1.272-.022 2.165 2.165 0 0 1 .787 1.613z" class="cls-6" transform="translate(-55.934 -108.5)"/>
        <path id="路径_3458" d="M865.851 1347.12c-.648 0-1.233-.007-1.818 0-.306.005-.436-.128-.433-.432.006-.827 0-1.655 0-2.644a8.767 8.767 0 0 0 1.779 1.293c.135.065.16.2.186.337.087.447.176.891.286 1.446z" class="cls-6" transform="translate(-74.39 -84.666)"/>
        <path id="路径_3459" d="M912.711 1352.108c.532.451.93.763 1.3 1.11a1.249 1.249 0 0 1 .343.962 3.77 3.77 0 0 1-.091.638c-.149.784-.151.784-.906.653-.964-.166-.965-.166-.946-1.132a1.268 1.268 0 0 1 .04-.4 2.579 2.579 0 0 0 .262-.843l-.002-.988z" class="cls-6" transform="translate(-92.045 -87.582)"/>
        <path id="路径_3460" d="M911.551 1372.4a24.382 24.382 0 0 1 3.134.24.382.382 0 0 1 .357.438v.89a12.526 12.526 0 0 0-2.462.064.321.321 0 0 1-.4-.177c-.206-.455-.397-.919-.629-1.455z" class="cls-6" transform="translate(-91.736 -94.921)"/>
        <path id="路径_3461" d="M808.207 1330.436a2.816 2.816 0 0 1 .463-1.14.762.762 0 0 1 1.334.053 1.249 1.249 0 0 1-.142 1.974c-.238.22-.471.45-.849.271a1.374 1.374 0 0 1-.806-1.158z" class="cls-6" transform="translate(-54.351 -79.197)"/>
        <path id="路径_3462" d="M735.95 1369.58c.452-.825.906-1.484 1.25-2.206.193-.4.576-.119.874-.119s.309.238.316.456a5.072 5.072 0 0 0 .157 1.275c.133.459.058.566-.441.587-.669.027-1.341.007-2.156.007z" class="cls-6" transform="translate(-28.213 -93.026)"/>
        <path id="路径_3463" d="M750.34 1346.409a4.263 4.263 0 0 1-.154 1.758c-.087.615-.1 1.23-.163 1.843-.058.568-.1.611-.681.589-.442-.016-.881.217-1.4.023z" class="cls-6" transform="translate(-32.552 -85.521)"/>
        <path id="路径_3464" d="M812.019 1387.291a1.938 1.938 0 0 1-.772 1.19c-.156.133-.3.066-.422-.06a4.437 4.437 0 0 1-.993-1.63.391.391 0 0 1-.008-.231 1.192 1.192 0 0 1 1.678-.41 1.926 1.926 0 0 1 .517 1.141z" class="cls-6" transform="translate(-54.932 -99.826)"/>
        <path id="路径_3465" d="M926.013 1329.427a.633.633 0 0 1 .819-.271c1.571.47 3.154.9 4.733 1.353a1.861 1.861 0 0 1 .38.125c.208.114.185.311.125.5-.065.2-.225.2-.392.146-.769-.246-1.536-.5-2.307-.736-.952-.292-1.908-.568-2.863-.853a.767.767 0 0 1-.495-.264z" class="cls-6" transform="translate(-96.968 -79.262)"/>
        <path id="路径_3466" d="M721.206 1297.821c.15.392-.04.692-.09 1a16.445 16.445 0 0 0-.181 2.565 1.517 1.517 0 0 1-.105.709c-.121.241-.327.24-.55.213-.243-.03-.311-.191-.288-.4.029-.266.092-.528.119-.793.078-.773.158-1.546.212-2.321s.039-.777.883-.973z" class="cls-6" transform="translate(-22.438 -67.944)"/>
        <path id="路径_3467" d="M867.262 1354.366a18.275 18.275 0 0 1-3.574.246c-.174-1.227-.146-1.273 1-1.123a15.042 15.042 0 0 0 1.615.1c.66.019.66.017.959.777z" class="cls-6" transform="translate(-74.393 -88.06)"/>
        <path id="路径_3468" d="M970.913 1369.455h1.366c.337 0 .389.2.391.474 0 .292-.022.534-.414.532-.831-.006-1.661 0-2.492.017a.55.55 0 0 1-.582-.441c-.136-.394-.055-.546.364-.566.454-.021.911 0 1.366 0z" class="cls-6" transform="translate(-112.563 -93.857)"/>
        <path id="路径_3469" d="M913.774 1377.37h1.847c.138 0 .305.017.332.162a3.683 3.683 0 0 1 0 1.433c-.022.106-.149.148-.26.153q-.44.019-.882.028a.391.391 0 0 1-.375-.256c-.213-.481-.42-.966-.662-1.52z" class="cls-6" transform="translate(-92.54 -96.721)"/>
        <path id="路径_3470" d="M908.007 1358.8c.245 0 .38.012.512 0 .356-.038.557.068.556.472 0 .469-.064.591-.517.623a4.363 4.363 0 0 0-1.572.265c-.19.088-.3.007-.379-.161a4.143 4.143 0 0 1-.258-.587c-.073-.268-.012-.5.332-.487a11.707 11.707 0 0 1 1.326-.125z" class="cls-6" transform="translate(-89.844 -89.998)"/>
        <path id="路径_3471" d="M907.98 1351.975c-.936.013-.99.053-.724-.91.07-.253.047-.6.35-.664a2.9 2.9 0 0 1 1.271.011c.054.013.1.116.125.187a1 1 0 0 1 .026.237c.085 1.079.031 1.137-1.048 1.139z" class="cls-6" transform="translate(-90.132 -86.941)"/>
        <path id="路径_3472" d="M909.777 1367.837a8.742 8.742 0 0 0 1.665-.134c.337-.051.505.089.5.44-.006.214 0 .429.009.643.01.272-.13.389-.39.387a.5.5 0 0 0-.08 0c-1.391.186-1.399.181-1.704-1.336z" class="cls-6" transform="translate(-91.094 -93.22)"/>
        <path id="路径_3473" d="M925.347 1335.268c1.351.393 2.751.6 4.082 1.137-.846.118-1.666.5-2.536.045-.713-.373-1.457-.687-2.186-1.027-.06-.046-.122-.089-.186-.129-.043-.012-.088-.022-.132-.031-.055-.148-.016-.213.148-.165l.311.028c.143.13.352.011.499.142z" class="cls-6" transform="translate(-96.372 -81.423)"/>
        <path id="路径_3474" d="M924.918 1331.841c.131.039.286.087.441.132 1.836.528 3.674 1.054 5.508 1.59.183.053.54.024.446.322s-.384.067-.551.005a52.444 52.444 0 0 0-5.383-1.423 4.993 4.993 0 0 1-.62-.179.223.223 0 0 1-.1-.277c.027-.126.12-.162.259-.17z" class="cls-6" transform="translate(-96.473 -80.251)"/>
        <path id="路径_3475" d="M863.591 1350.954c0-.512.071-.6.562-.518a3.6 3.6 0 0 0 1.587 0c.187-.052.387-.04.459.2.061.2.218.387.121.611-.064.148-.219.126-.347.131-.694.025-1.389-.017-2.083.076-.39.046-.262-.307-.299-.5z" class="cls-6" transform="translate(-74.387 -86.967)"/>
        <path id="路径_3476" d="M724.793 1309.145a11.34 11.34 0 0 1-1.23-2.251 10.251 10.251 0 0 0 1.652-.256 9.264 9.264 0 0 1-.422 2.507z" class="cls-6" transform="translate(-23.732 -71.133)"/>
        <path id="路径_3477" d="M681.073 1343.173a5.515 5.515 0 0 0 .943 1.024.357.357 0 0 1 .148.42 6.646 6.646 0 0 1-.4 1.223c-.084.211-.192.306-.414.29-.269-.02-.274-.214-.275-.407-.004-.781-.002-1.562-.002-2.55z" class="cls-6" transform="translate(-8.361 -84.35)"/>
        <path id="路径_3478" d="M812.51 1276.213c.007-.417.3-.87.571-.873.492-.006 1.059.442 1.047.826a1.241 1.241 0 0 1-.986.943c-.315.018-.642-.443-.632-.896z" class="cls-6" transform="translate(-55.908 -59.811)"/>
        <path id="路径_3479" d="M920.566 1359.73c-.2.255-.493.165-.75.167-1.394.008-2.789 0-4.183.008-.257 0-.544-.088-.752.162a2.861 2.861 0 0 0-1.647-.21c-.568.108-.595.056-.738-.68a5.674 5.674 0 0 1 1.788.35 4.375 4.375 0 0 0 1.428.22c1.618-.01 3.236-.012 4.854-.017z" class="cls-6" transform="translate(-92.078 -90.139)"/>
        <path id="路径_3480" d="M905.377 1356.312c.249-.845.634-1.211 1.383-1.088a4.667 4.667 0 0 0 .8-.011c.241 0 .5-.043.523.32.016.3-.195.335-.417.365-.106.014-.207.056-.313.068a6.449 6.449 0 0 0-1.976.346z" class="cls-6" transform="translate(-89.503 -88.701)"/>
        <path id="路径_3481" d="M680.783 1302.161v1.534c0 .138-.038.288-.2.3-.222.019-.253-.163-.255-.325q-.015-1.535-.017-3.069c0-.135.038-.279.209-.291.214-.014.267.142.268.315v1.534z" class="cls-6" transform="translate(-8.085 -68.845)"/>
        <path id="路径_3482" d="M919.688 1387.629c.061-.058.077-.087.1-.089 1.258-.149 1.258-.149 1.262 1.131v.78a8.508 8.508 0 0 1-1.362-1.822z" class="cls-6" transform="translate(-94.68 -100.376)"/>
        <path id="路径_3483" d="M698.567 1205.543c-1.251.822-2.284 1.926-3.548 2.731-.01.006-.042-.022-.134-.074a13.516 13.516 0 0 1 3.516-2.816c.173-.071.199.016.166.159z" class="cls-6" transform="translate(-13.358 -34.496)"/>
        <path id="路径_3484" d="M702.46 1203.109a15.537 15.537 0 0 1 1.838-1.294c.128-.085.282-.227.4-.009.092.172-.033.306-.177.4-.295.184-.592.367-.894.541-.324.186-.654.36-.982.54-.167.045-.207-.034-.185-.178z" class="cls-6" transform="translate(-16.096 -33.169)"/>
        <path id="路径_3485" d="M693.119 1211.223c-.012.262-.64.757-.883.684a.308.308 0 0 1-.168-.151 1.169 1.169 0 0 1 .483-1.094c.176-.05.577.345.568.561z" class="cls-6" transform="translate(-12.328 -36.413)"/>
        <path id="路径_3486" d="M917.241 1383.82a3.693 3.693 0 0 1-.893-1.329c.651-.34.813-.278.887.372a8.388 8.388 0 0 1 .006.957z" class="cls-6" transform="translate(-93.471 -98.5)"/>
        <path id="路径_3487" d="M694.161 1195.244c-.164-.008-.375-.38-.255-.5a2.835 2.835 0 0 1 .862-.7c.173-.069.294.1.316.272s-.744.937-.923.928z" class="cls-6" transform="translate(-12.991 -30.398)"/>
        <path id="路径_3488" d="M906.119 1344.088c.752-.018.76-.019.784.519.016.343 0 .688 0 1.173a10.739 10.739 0 0 1-.784-1.692z" class="cls-6" transform="translate(-89.771 -84.679)"/>
        <path id="路径_3489" d="M921.92 1334.034a2.145 2.145 0 0 1-.714-.344c.723-.424.723-.424.921.146.015.154-.039.235-.207.198z" class="cls-6" transform="translate(-95.229 -80.81)"/>
        <path id="路径_3490" d="M701.715 1203.913l.181.172a7.833 7.833 0 0 1-1.336.934l-.166-.158z" class="cls-3" transform="translate(-15.35 -33.973)"/>
        <path id="路径_3491" d="M803.6 1177.41l.2.21a3.068 3.068 0 0 1-1.091.59 1.708 1.708 0 0 1 .891-.8z" class="cls-3" transform="translate(-52.365 -24.386)"/>
        <path id="路径_3492" d="M707.93 1200.2a.617.617 0 0 1 .792-.329c-.18.369-.515.28-.792.329z" class="cls-3" transform="translate(-18.077 -32.497)"/>
        <path id="路径_3493" d="M801.381 1182.259l.188.195a2.887 2.887 0 0 1-.984.486 1.532 1.532 0 0 1 .796-.681z" class="cls-3" transform="translate(-51.594 -26.14)"/>
        <path id="路径_3494" d="M664.348 1409.873l.206.205a1 1 0 0 1-.5.419c-.123-.32.114-.459.294-.624z" class="cls-3" transform="translate(-2.192 -108.479)"/>
        <path id="路径_3495" d="M939.652 1360.586c-.156.209-.483.048-.625.288-.1 0-.234.018-.267-.105s.07-.184.183-.186c.236-.005.472.001.709.003z" class="cls-2" transform="translate(-101.576 -90.647)"/>
        <path id="路径_3496" d="M801.082 1258.983c.137-.01.27-.026.342-.168.131.08.334.249.235.324-.184.141-.419.035-.577-.156z" class="cls-2" transform="translate(-51.774 -53.834)"/>
        <path id="路径_3497" d="M924.331 1335.023l-.148.165a.539.539 0 0 1-.386-.247.4.4 0 0 1 .534.082z" class="cls-2" transform="translate(-96.166 -81.348)"/>
        <path id="路径_3498" d="M795.819 1190.665l.2.009a.819.819 0 0 1-.43.405.335.335 0 0 1 .23-.414z" class="cls-3" transform="translate(-49.782 -29.181)"/>
        <path id="路径_3499" d="M922.325 1334.288l.206-.2c.087.084.269.161.133.3-.103.103-.247.012-.339-.1z" class="cls-2" transform="translate(-95.634 -81.064)"/>
        <path id="路径_3500" d="M925.621 1335.286a.517.517 0 0 1-.5-.142.483.483 0 0 1 .5.142z" class="cls-2" transform="translate(-96.645 -81.442)"/>
        <path id="路径_3501" d="M924.609 1335.415a.209.209 0 0 1 .186.129.213.213 0 0 1-.186-.129z" class="cls-2" transform="translate(-96.46 -81.543)"/>
        <path id="路径_3502" d="M762.632 1318.463c.062-1.751.127-3.459.115-5.155a48.592 48.592 0 0 0-.2-5.584c-.006-.054-.017-.107-.019-.161-.037-2.053-.209-4.1-.347-6.146-.032-.485-.01-.973-.024-1.46a2.335 2.335 0 0 1 .218-1.023.793.793 0 0 1 .881-.566 7.991 7.991 0 0 0 1.695.075c2.46-.01 4.915.147 7.371.233q3.2.111 6.4.075c1.024-.013 2.045-.149 3.073-.141a1.881 1.881 0 0 1 2.169 1.788 6.329 6.329 0 0 1 .087 1.128c.032 4.11-.257 8.218-.093 12.327a37.143 37.143 0 0 1-.054 3.8 15.447 15.447 0 0 1-1.84 6.817 7.242 7.242 0 0 1-4.1 3.362 27.9 27.9 0 0 1-5.826 1.326 35.119 35.119 0 0 1-5.411.31 3.193 3.193 0 0 1-3.049-2.023 13.382 13.382 0 0 1-.859-3.445 44.872 44.872 0 0 1-.187-5.537z" class="cls-2" transform="translate(-37.694 -68.136)"/>
        <path id="路径_3503" d="M836.256 1330.015c-.828-.032-1.82-.032-2.82-.152a5.141 5.141 0 0 1-4.2-3.269 15 15 0 0 1-1.375-5.871c-.107-2.939-.315-5.875-.482-8.811-.1-1.806-.161-3.615-.339-5.413-.109-1.1-.063-2.214-.248-3.309a3.193 3.193 0 0 1-.032-.728c.042-.63.227-.87.855-.982.848-.151 1.7-.285 2.561-.363 1.612-.146 3.227-.247 4.841-.367 1.989-.147 3.978-.323 5.97-.43a13.84 13.84 0 0 1 3.554.11 1.993 1.993 0 0 1 1.279.783 4.239 4.239 0 0 1 .887 2.314c.048 1.214.214 2.422.193 3.641a4.842 4.842 0 0 0 .253 1.671 1.1 1.1 0 0 1 .039.639 10.433 10.433 0 0 0-.087 3.385 43.534 43.534 0 0 1-.18 6.548c-.094 1.157-.23 2.308-.354 3.461a20.935 20.935 0 0 1-1.241 4.85 2.4 2.4 0 0 1-1.908 1.58 34.4 34.4 0 0 1-3.759.544c-1.082.102-2.163.135-3.407.169z" class="cls-2" transform="translate(-61.059 -68.826)"/>
        <path id="路径_3504" d="M828.076 1198.459a7.263 7.263 0 0 1 5.284 2.381 1.85 1.85 0 0 1 .374.523.555.555 0 0 1-.137.664.484.484 0 0 1-.592.114c-.192-.1-.389-.188-.573-.3a28.86 28.86 0 0 0-2.873-1.491 3.8 3.8 0 0 0-1.723-.37 10.143 10.143 0 0 1-1.375-.04c-.324-.036-.654-.17-.7-.564-.05-.431.251-.62.6-.752a7.3 7.3 0 0 1 1.715-.165z" class="cls-2" transform="translate(-60.7 -32)"/>
        <path id="路径_3505" d="M804.816 1196.745a6.709 6.709 0 0 1 2.346.428c.483.136.709.454.68.793s-.387.632-.88.7a5.4 5.4 0 0 1-.881-.091 19.673 19.673 0 0 0-3.631.059 1.187 1.187 0 0 1-.707-.1.544.544 0 0 1-.165-.927 2.077 2.077 0 0 1 .911-.505 6.824 6.824 0 0 1 2.327-.357z" class="cls-2" transform="translate(-51.884 -31.376)"/>
        <path id="路径_3506" d="M941.916 1384.658a3.56 3.56 0 0 0 .836-.1c.594-.128.753-.217.781-.826a1.159 1.159 0 0 1 .995-1.181 12.461 12.461 0 0 0 3.34-1.79 11.177 11.177 0 0 0 1.491-.963.513.513 0 0 1 .6-.079.594.594 0 0 1 .281.624 1.3 1.3 0 0 1-.167.536c-.573 1.165-1.018 2.383-1.481 3.592a9.372 9.372 0 0 1-3.41 4.516 4.612 4.612 0 0 1-.69.419c-.737.338-1.133.182-1.458-.572-.1-.234-.2-.456-.47-.507a15.966 15.966 0 0 0-2.467-.417.632.632 0 0 0-.721.487 3.051 3.051 0 0 1-.11.305c-.379.874-.957 1.068-1.728.494-1.059-.79-2.049-1.67-3.131-2.432a.739.739 0 0 1-.167-.175c-.6-.86-1.222-1.711-1.8-2.587a9.406 9.406 0 0 1-1.176-3.673c-.077-.426.072-.581.479-.476a3.31 3.31 0 0 1 1 .289 2.531 2.531 0 0 0 .987.336 1.193 1.193 0 0 1 1.135 1.162 11.58 11.58 0 0 0 .264 1.593 2.2 2.2 0 0 0 1.922 1.606c.5.024.633-.082.662-.576.023-.377.012-.756.017-1.134a.515.515 0 0 1 .546-.573c.7-.006 1.406-.014 2.1.046.5.043.923.766.883 1.377-.036.688-.036.688.657.679z" class="cls-2" transform="translate(-98.861 -97.548)"/>
        <path id="路径_3507" d="M952.442 1372.641a.911.911 0 0 1-.6-.2 2.343 2.343 0 0 0-.641-.333.964.964 0 0 0-1.28.34 1.643 1.643 0 0 1-.16.183c-.7.759-1.066.75-1.809.035a.682.682 0 0 1-.164-.876 6.163 6.163 0 0 1 1.4-1.963c1.27-1.012 2.232-.775 3.367.462a3.238 3.238 0 0 1 .647 1.469.693.693 0 0 1-.76.883z" class="cls-2" transform="translate(-104.811 -93.764)"/>
        <path id="路径_3508" d="M940.158 1373.26a.718.718 0 0 1-.517.816.767.767 0 0 1-.9-.368c-.088-.135-.154-.284-.241-.421a2.339 2.339 0 0 0-2.8-1c-.3.1-.576.237-.808-.043a.754.754 0 0 1 0-.908 3.276 3.276 0 0 1 1.984-1.561 2.309 2.309 0 0 1 2.293.9 4.137 4.137 0 0 1 .989 2.585z" class="cls-2" transform="translate(-100.123 -93.949)"/>
        <path id="路径_3509" d="M943.312 1380.081c-.714.23-1.279-.318-1.906-.639a.5.5 0 0 1-.112-.826 13.014 13.014 0 0 0 1.275-1.658 1.149 1.149 0 0 1 1.749-.341 3.33 3.33 0 0 1 1.44 2.246c.11.427-.227.744-.624.931a3.579 3.579 0 0 1-1.822.287z" class="cls-2" transform="translate(-102.433 -96.354)"/>
        <path id="路径_3510" d="M813.421 1230.889a8.765 8.765 0 0 1-4.795-1.956 1.193 1.193 0 0 1-.465-.827.6.6 0 0 1 .22-.646.519.519 0 0 1 .671.057 8.456 8.456 0 0 0 2.275 1.2 6.29 6.29 0 0 0 4.491.294 2.183 2.183 0 0 1 .876-.1.544.544 0 0 1 .371.942 1.819 1.819 0 0 1-.874.556 12.425 12.425 0 0 1-2.77.48z" class="cls-2" transform="translate(-54.331 -42.456)"/>
        <path id="路径_3511" d="M815 1222.615a2.068 2.068 0 0 1-1.72-.768 1.268 1.268 0 0 1-.274-1.057.5.5 0 0 1 .835-.359 3.112 3.112 0 0 1 .345.337 1.271 1.271 0 0 0 1.808.059c.186-.153.345-.339.529-.5a.5.5 0 0 1 .665-.054.508.508 0 0 1 .152.654 2.215 2.215 0 0 1-2.34 1.688z" class="cls-2" transform="translate(-56.08 -39.855)"/>
        <path id="路径_3512" d="M828.067 1208.735a4.271 4.271 0 0 1 3.147 1.695.68.68 0 0 1 .048.891.634.634 0 0 1-.874.128 8.971 8.971 0 0 1-.944-.615 3.2 3.2 0 0 0-2.04-.617 2.989 2.989 0 0 1-.322 0 .54.54 0 0 1-.568-.466.613.613 0 0 1 .3-.689 2.439 2.439 0 0 1 1.253-.327z" class="cls-2" transform="translate(-60.97 -35.717)"/>
        <path id="路径_3513" d="M804.359 1206.913a3.245 3.245 0 0 1 2.179.863.55.55 0 0 1 .223.709c-.162.316-.444.248-.709.179-.339-.087-.677-.179-1.011-.283a2.221 2.221 0 0 0-1.5-.047.46.46 0 0 1-.634-.186.563.563 0 0 1 .141-.666 1.58 1.58 0 0 1 1.311-.569z" class="cls-2" transform="translate(-52.412 -35.057)"/>
        <path id="路径_3514" d="M765.948 1314.473a12.927 12.927 0 0 1 2.6.2 55.943 55.943 0 0 0 5.738.3 42.446 42.446 0 0 0 7.4-.715 13.788 13.788 0 0 0 1.37-.367.516.516 0 0 1 .112.41c0 2.921.04 5.843-.008 8.764a13.674 13.674 0 0 1-.988 4.9 5.514 5.514 0 0 1-3.817 3.554 31.193 31.193 0 0 1-5.075.986 46.883 46.883 0 0 1-4.684.294c-1.135-.008-1.474-.26-1.788-1.362a20.1 20.1 0 0 1-.7-4.467c-.075-1.432-.122-2.862-.094-4.294.012-.62.073-1.24.1-1.86.093-2.09-.163-4.165-.166-6.343z" class="cls-4" transform="translate(-39.065 -73.756)"/>
        <path id="路径_3515" d="M782.906 1303.588c.061 1.034-.2 2.267-.132 3.511.02.4-.116.588-.553.574-2.03-.066-4.025.36-6.043.443a48.821 48.821 0 0 1-5.422-.048c-1.425-.1-2.861-.063-4.292-.072-1.181-.006-1.189 0-1.218-1.212-.041-1.675-.3-3.329-.432-5-.011-.134-.031-.268-.038-.4-.021-.355.115-.452.488-.4 1.682.226 3.368.416 5.053.616.241.029.483.047.725.057 1.428.057 2.857.027 4.288.124a30.237 30.237 0 0 0 4.842-.229 18.892 18.892 0 0 0 2.34-.163c.264-.057.4.1.4.368-.012.543-.006 1.08-.006 1.831z" class="cls-4" transform="translate(-38.639 -69.084)"/>
        <path id="路径_3516" d="M835.6 1316.325c1.594 0 3.19.039 4.783-.011 1.643-.051 3.284-.226 4.927-.277 1.695-.054 1.4-.212 1.417 1.387.025 1.92.055 3.842-.015 5.759a33.977 33.977 0 0 1-.812 6.817c-.2.812-.482 1.6-.714 2.406a1.071 1.071 0 0 1-.992.813c-1.149.145-2.3.309-3.458.353-.835.032-1.672.06-2.506.1a15.043 15.043 0 0 1-3.694-.354 3.137 3.137 0 0 1-2.144-1.83 11.234 11.234 0 0 1-1.269-4.483c-.2-2.745-.266-5.5-.6-8.233-.075-.615-.007-1.24-.128-1.857-.094-.487-.026-.537.5-.537h4.7z" class="cls-4" transform="translate(-62.365 -74.522)"/>
        <path id="路径_3517" d="M846.055 1307.94c.065 1.474.061 1.415-1.38 1.509-2.214.144-4.431.071-6.644.168a43.639 43.639 0 0 0-7.724.733c-.5.113-.558.045-.61-.46-.149-1.449-.339-2.892-.612-4.325-.113-.592-.094-.638.515-.718 1.284-.168 2.568-.332 3.856-.447 1.746-.156 3.493-.334 5.24-.448 1.939-.126 3.865-.444 5.814-.414.87.013 1 .086 1.248.941a21.646 21.646 0 0 1 .289 2.651 5.194 5.194 0 0 1 .008.81z" class="cls-4" transform="translate(-61.885 -70.011)"/>
        <path id="路径_3518" fill="#b89378" d="M823.874 1193.977c-1.355-1.437-1.4-3.3-1.492-5.114a15 15 0 0 0-1.006-5.807c-1-2.118-2.366-3.738-4.824-3.967a1.137 1.137 0 0 1-.567-.214c-2.817-2.2-6.236-1.359-9.36-1.762-1.57-.2-3.364.947-4.971 1.682a34.443 34.443 0 0 0-4.366 2.508 5.019 5.019 0 0 0-1.967 2.543c-.729 2.044-2.411 3.341-3.661 4.957-.809 1.046-1.034-.691-1.684-.839-.068-3.078 1.425-5.588 2.78-8.148a1.041 1.041 0 0 0 .128-.285c.758-4.3 4.206-5.993 7.306-8.019.168-.11.408-.257.562-.208 1 .312 1.416.119.915-1.007a.312.312 0 0 1 .108-.276 9.382 9.382 0 0 0 2.354-1.338 2.366 2.366 0 0 1 2.41-.694 16.751 16.751 0 0 1 9.484 4.594 8.786 8.786 0 0 1 1.734 1.969 3.8 3.8 0 0 0 2.654 1.918 6.111 6.111 0 0 1 4.016 3.99 11.811 11.811 0 0 1 .787 5.968 63.486 63.486 0 0 0-.417 6.5 1 1 0 0 1-.923 1.049z" transform="translate(-47.756 -20.957)"/>
        <path id="路径_3519" d="M825.33 1179.719a16.377 16.377 0 0 0-6.678-7.925 44.083 44.083 0 0 1-4.668-3.136 12.175 12.175 0 0 0-6.775-2.836c-1.412-.073-2.806-.1-3.983.959a7.266 7.266 0 0 1-2.568 1.305 5.238 5.238 0 0 0-2.21 1.3 13.379 13.379 0 0 1-4.556 3.268 2.539 2.539 0 0 0-1.081 1.017c-1.721 2.708-4.247 6.264-4.641 9.516-.222 1.838 1.022 3.516 2 4.973a1.9 1.9 0 0 0 .735.733.706.706 0 0 0 .917-.249 1.307 1.307 0 0 0 .071-.536c.027-.911.7-1.595.862-2.487-.524.123-.668.437-.991.836l-.612.589c-.777-.071-.394-.53-.3-.893.5-.647.917-1.394 1.843-1.524l.908-.924c.045-.239.34-.685-.269-.459a8.135 8.135 0 0 0-1.289.752l-1.79 1.564c-.292.066-.434-.019-.338-.339.1-.931 1.023-1.021 1.545-1.521.492-.635-.322-1.827.913-2.146a1.855 1.855 0 0 1 .936-.894l1.5-.957c.77-.588 1.4-1.4 2.465-1.507a19.647 19.647 0 0 1 7.557-2.91c-2.162-1.284-4.075-.23-6.021.457l-1.556.9c-.19.366-.58.447-.9.63l-2.762 1.83c-.165.116-.333.227-.493.348-.351.262-.538.774-1.074.738-.084-.005-.225-.216-.221-.328.022-.646.608-.735 1.03-.975a1.588 1.588 0 0 1 .44-.1 12.227 12.227 0 0 1 2.471-1.814l.886-.636a2.873 2.873 0 0 1 1.209-.938 8.02 8.02 0 0 1 6.232-1.836c2.171.175 4.408.184 5.683 2.66.481-1.745-1.2-3.755-2.988-3.869-.265-.017-.53.026-.8.015-.666-.026-1.221-.405-1.869-.448a11.8 11.8 0 0 0-2.2.187 12.128 12.128 0 0 0-2.6.631 5.971 5.971 0 0 0-2.342 1.163 8.912 8.912 0 0 1-3.027 2.5 1.124 1.124 0 0 1-.787.989c-.32-.545.029-.8.423-1.035a4.58 4.58 0 0 1 2.765-2.771c2.054-.868 4.235-2.925 6.578-2.7 2.589.253 5.12.337 7.535 1.466 1.374.776 2.78 1.511 3.367 3.141.1.283.317.6.677.431.335-.156.23-.521.173-.814-.43-2.211-2.069-3.406-3.812-4.5a12.711 12.711 0 0 0-1.361-.653l-6.785-1.118a6.626 6.626 0 0 1 6.508-.773c3.862 1.939 7.284 4.266 7.968 9.021a5.463 5.463 0 0 0 .222.729c.087.3.172.648.555.608s.418-.393.428-.706a6.885 6.885 0 0 0-.333-2.34 4.731 4.731 0 0 1 2.382 4.385c-.031.283-.288.633.1.8.472.2.629-.25.751-.555.24-.605.41-1.238.754-2.308a4.863 4.863 0 0 1 .011 3.572c-.339.782-.974 1.455-.91 2.392.665.219 1.054-.246 1.488-.6a5.623 5.623 0 0 1 1.113-2.1c.34 1.194-.268 2.033-.927 2.959-.258.363-1.222 2.167-.793 2.425.488.291 1.346-.6 1.583-.9-1.731 2.235-.161 5.847-.116 8.36 1.576-1.716 2.3-4.921 2.54-7.2a14.286 14.286 0 0 0-.698-6.889z" class="cls-2" transform="translate(-47.094 -20.183)"/>
    </g>
</svg>
