<svg xmlns="http://www.w3.org/2000/svg" viewBox="0 0 196.514 183.978">
    <path fill="none" stroke="#699380" stroke-linecap="round" stroke-linejoin="round" stroke-width="3px" d="M1450.443 343.7l2.886 7.2 2.508 2.9 3.9 2.9 7.911 3.73 2.49 2.175.512 3.418-.23 2.534-.512 2.228-.635 2.048.635 1.888.618 2.562-.8 3.028-.591 3.289 2.657.645 5-1.372 4.423-.287 3.09.311 8.166-2.072 3.248 2.591.857 2.871 2.153 2.1 2.949 5.072.415 3.166.5-.354 6.869-.644 1.836.494 2.371.644-.442 3.621.944 2.4 3.2.7 2.851 1.653 2.419 1.657 2.543-.392 3.107-1.473h3.178l3.787 3.053 1.62 1.312 4.22 2.045 9.79 2.481 5.359 2.044 4.247.024 3.2-2.946 1.51-3.876 2.472-.567 12.024 7.181 7.23 1.085.706.019-.137-.15-.681-1.076.333-.893.653-.862.361-1.061.334-4.128.528-2.1.834-1.458.751-1.74-.279-4.534.153-2.046 4.574-5.246 4.031-2.344 1.641-1.544-.382-1.808-1.1-1.757-.5-1.94.292-1.6 3.878-2.208.542-3.668-.876-4.219-1.709-3.256 1.209-.863 1.683-.551 2-.206 2.114.214v-1.162l-4.978-.917-4.227-2.616-2.225-4.052-.125-5.255.917-2.571.125-2.571-2.141-10.055-.166-4.823.348-4.969.986-5 1.517-4.366 1.918-3.126 12.137-14.8 3.587-3.113 7.785-3.854.015-.013 5.645-2.8-1.307-1.656-2.418-1.22-2.74-.736-2.336-.245-4.546.69-1.377-.629-1.709-2.639-1.585-5.648-.459-3.376.292-1.9 1.056-2.379-2.1-1.336-22.475-5.459-7.3-1.774-2.5-.921-1.086-1.076-.5-.661-.909-.638-.019.01-1.5-1.053-.7-.822-.055-1.421.652-1.153.682-.837.083-.576-1.418-.392-2 .23-1.753.485-.764.323-2.336-4.856-6.507-9.185-2.919-2.191-7.021-.83-7.16 1.637-6.242 3.183-4.269 3.866-2.072 3.8-1.348 3.35-.516.6-1.236.584-1.182.983-.57 1.759 1.989 1.244 3.768 3.817 2.349 3.694-2.252.914-1.015-1.006-.792-1.79-1.225-1.712-2.28-.761-1.973.031-1.474.261-1.2.6-4 3.332-3.086 1.214-7.31 1.319-13.063 2.364-5.812 2.1-2.919 1.589-2.4 2.118-2.794 1.75-11.969 3.937-4.672 3.959-4.518 5.385-5.782 9.216h-.006l-1.334 2.139-1.459 3.963-.433 1.909.139.8-1.64.559-1.724 1.4-1.349 1.862-.543 1.893-.389 2.5-.973 1.448-.037.047h-.005v.005l-1.126 1.2-.973 1.931.709 1.455.432 1.2.027 1.1-.472 1.018-1.418 1.937-3.614 7.389-.727 2.662h.008l4.467 1.74 2.755 1.687 1.766 2.459 2.842 1.142 2.993-.724.123-.151" transform="translate(-1433.987 -234.299)"/>
</svg>
