<svg xmlns="http://www.w3.org/2000/svg" viewBox="0 0 177.85 400.392">
    <defs>
        <style>
            .cls-1{fill:none;stroke:#5478bc;stroke-linecap:round;stroke-linejoin:round;stroke-width:3px}
        </style>
    </defs>
    <g id="map-hover-east" transform="translate(-1610.878 -705.478)">
        <path id="路径_3531" d="M1787.1 718.2l-.459-.961-.584-.961-.432-.488-.705-.019-7.23-1.085-12.016-7.193-2.471.567-1.51 3.876-3.2 2.946-4.246-.024-5.36-2.044-9.8-2.479-4.22-2.045-1.623-1.312-3.01 3.155-.283 2.713-1.527 4.006-4.908 3.1-1.951 3.2-.848 3.356-1.978 2.426-2.216 1.162-.794 1.317-1.819 1.3h-.008l.892 4.076.158 2.347-3.363 1.573-4.326 1.446-2.4 1.858.169 6.478 1.854 1.983 3.372 2.2.963 2.965-.168 2.475-5.208 6.782-3.285 6.931-1.552 4.948 1.359 2.164 1.147 2.913-.4 4.922-1.007 6.461-2 5.691-2.489 5.508-1.652 4.579-.141 2.422-3.7 6.092 1.395 2.6 2.048 2.618.777 3.549.609 4.657-.8 5.423-2.067 8.225-1.06 3.285-2.9 2.057-4.979 1.8-2.56 3.338-.883 5.547-3.442 3.082-4.8.154-4.8 1.078-3.372 2.489-.962 2.643-.989 1.723 1.1 4.028-2 1.847-3.921 2.228 1.236 3.776-1.942 3.232-3.638 1.617-.882 2.077.636 2.578 3.6 2.346 4.132 3.346 1.8 4.961.228 1.624-10.146 2.489-4.2 2.652-2.578 2.537-5.05 3.266-.565 3.728 1.448 3.881-1.73 3.188-4.8 2.612-.565 4.455 1.412 6.452-1.976 8.56-.037 7.291-2.789 3.8-5.544 4.719-1.518 6.327.882 5.291 1.944 2.991 3.99 4.14.813 3.219-2.509.3 2.225 4.3.495 3.141 3.46.844 3.6 2.375-1.8 8.961-.106 3.37-1.307 3.216-6.32 2.68-3.108 1.761-4.979 1.071-3.5 2.909-1.553 4.286-2.4 4.286-1.977 4.858-.53 9.56.812 4.244 1.308 3.938.67 4.624v3.477l1.7 3.248 3.036 3.63-1.624 2.482-3.461 2.063-1.342 2.521-.353 2.978 1.765 2.52 2.225 1.069 2.014 2.9-.071 3.7.353 3.931 2.118 3.854 2.966 3.167 6.638 3.052 2.919-.216-.167-9.517 1.085-10.467.889-3.7 6.2-10.865 3.114-10.883 1.225-7.983 2.113-3.884 5.228-6.526 1.7-3.275 3.393-8.721 1.376-1.785 1.71-.9 7.035-7.715 10.454-6.979 3.058-2.91 3.087-3.92 1.39-2.285.807-2.073.111-1.817-.417-4.072.306-1.713 2.141-2.473 9.023-7.651.833-1.765 6.673-9.624 1.377-3.828 1.918-8.488 3.114-5.484 1.085-3.77.681-1.474 1.376-1.428 3.114-2.267 1.349-1.382 3.156-6.471.64-6.275-.084-6.595.945-7.406 1.349-4 1.709-3.171 4.588-6.116 1.46-3.165 2.961-17.159h-.006l7.172-41.634 3.128-6.369 5.214-26 4.129-11.1 2.087-10.57.25-4.168.5-2.267 2.376-3.721.709-2.352-.041-2.1-.543-.89-.848-.685-.987-1.439-1.169-3.4-.124-3.061.959-2.855 4.824-7.068 1.863-7.922 1.822-3.917 1.626-1.57 4.338-3.277.542-.976-.459-1.372.96-1.28 3-2.4 4.074-5.634 3.781-3.692.9-1.556z" class="cls-1"/>
    </g>
</svg>
