<svg xmlns="http://www.w3.org/2000/svg" viewBox="0 0 347.112 287.701">
    <defs>
        <style>
            .cls-1{fill:none;stroke:#efb45d;stroke-linecap:round;stroke-linejoin:round;stroke-width:3px}
        </style>
    </defs>
    <g id="map-hover-central" transform="translate(-1098.638 -518.04)">
        <path id="路径_3524" d="M1276.608 621.027h.007z" class="cls-1"/>
        <path id="路径_3525" d="M1411.083 578.61l-.414-3.166-2.949-5.072-2.153-2.1-.858-2.872-3.247-2.591-8.167 2.072-3.09-.311-4.423.286-5 1.372-2.657-.645.592-3.289.8-3.028-.618-2.562-.635-1.888.635-2.048.512-2.228.23-2.534-.512-3.418-2.49-2.175-7.911-3.73-3.9-2.9-2.508-2.9-2.886-7.2-.124.151-2.993.724-2.832-1.137-1.766-2.459-2.754-1.687-4.466-1.74h-.014l-.232.851-2.336 1.171-.542 1.194-1.2 3.727-2.42 2.448-1.766 2.4.626 3.565-4.672-.888-3.628.956-2.989 2.21-2.726 2.846-.889 1.59-.727 1.715-1.236 1.376-4.394 1.3-1 1.743-1.042 4.059-3.839 6.779-1.432 3.63-.57 4.286-1.215 2.627-4.713 5.232h-.007l-8.63 9.579-2.169 3.573-1.836 6.44-6.047 10.5-1.766 8-1.445 4.162-2.142 1.791-.487 2.142-.4.48-7.365 8.615-1.754 1.669-.583 1.8-.389 6.558-.765 1.98-3.337 2.619-.765 1.8-.4 1.918-1.015.943-1.418.686-1.613 1.089-1.96 1.956-1.752 3.044-3.754 10.47-2.669 5.035-1.752 5.034-1.335 1.855-4.6 4.41-.779 1.931-1.056 4.605-.482.926h-.005l-.547 1.05-3.628 2.782-.5.988-.669 1.771-4 5.295-.82 1.944-1.516 5.7-.811 6.518-2.828 4.99-1.815 6.374-.468 7.975.141 10.682-2.974 3.335h-.015l.132 5.665 5.554-.347-2.637 3.425-.585 1.644-1.125 1.357-.264 1.114 1.974.97v1.273l-1.252 2.364 2.71 5.234 2.381 6.78-3.487-.027-2.394.167-1.6 3.667.028 2.142 1.6.076 1.206.3 1.439-1.039.542 2.059-.918-.3-2.116.943-2.5.169 3.407 1.287 5.756.846 4.7 1.192 4.062-1.808 1.625-3.23 3.742-2.307 4.309-3.347 3.036-3.116 3.99-2.962 5.05-2.271 9.888-1.847 5.509-.307 4.661 1.539 2.613 1.578 1.328 2.729 1.13 3.309 6.427 6.577.635 4.883-1.13 9.226 1.024 2.96L1290 804.2l2.437.038 3.5-1.575 3.249-.423 2.4.73 5.438.624v-.01l-.635-4.3-.953-2.96.1-3.191 2.331-2.307 4.45.461 3.813-.384 7.981-4.768 2.9-3.461 5.191-3.962 4.979-2.808 2.755-3.27 2.33-4.425 5.473-4.387 12.024-6.135-.582-.14m0 0l.582.14 2.843.67 3.778 1.462 2.719 3.773.424 1.3 3.92-2.227 1.995-1.847-1.1-4.028.988-1.723.962-2.643 3.372-2.489 4.8-1.078 4.8-.154 3.443-3.082.883-5.547 2.56-3.338 4.979-1.8 2.9-2.057 1.06-3.285 2.065-8.226.8-5.423-.609-4.657-.777-3.549-2.048-2.619-1.4-2.6 3.7-6.092.141-2.422 1.652-4.579 2.489-5.508 2-5.691 1.007-6.461.4-4.922-1.147-2.913-1.36-2.164 1.554-4.948 3.284-6.931 5.208-6.782.168-2.475-.962-2.965-3.372-2.2-1.854-1.983-.168-6.478 2.4-1.858 4.326-1.447 3.363-1.573-.159-2.346-.889-4.068h.008l1.819-1.3.794-1.317 2.216-1.162 1.974-2.429.848-3.356 1.951-3.2 4.908-3.1 1.527-4.006.284-2.713 3.01-3.155-3.788-3.053h-3.178l-3.107 1.473-2.542.392-2.42-1.657-2.85-1.653-3.2-.7-.944-2.4.441-3.622-2.368-.65-1.836-.494-6.869.644-.5.354" class="cls-1"/>
        <path id="路径_3526" d="M1135.254 733.825l-1.043 1.753-1.46.106-2-.22-2.614.8.361-.835.806-2.875-3.017 1.039-4.824 3.02-1.362-.349h-1.168l-.152 2.593.152 2.61.681-.357.125-.113v-.2l.361-.6.918 1.425 1.015 1.046 1.252.759 1.584.591-2.293 1.873-2.8.773-2.6-.553-1.737-2.093-.834 1.645 3.156 3.147 3.142 1.213 3.142-.44 3.031-1.759.444-.789.7-2.646.5-.956.9-.5 1.821-.22 2.558-1.441 1.836.364 1.67 1.094 1.252 1.288.375-1.941-.833-2.624z" class="cls-1"/>
        <path id="路径_3527" d="M1110.2 725.078l-2.03 2-2.113 6.745-.042 3.1-.4 1.32-1.418.546-1.641.122-1.209.378-.792.812-.417 1.358h2.419l.793-.653.834-.386 1-.182 1.418-.053 1.96-.319.195-.879-.444-1.252.083-1.479 1.794-5.485 1.125-2.345 1.627-.971-2.739-2.382z" class="cls-1"/>
        <path id="路径_3528" d="M1121.825 727.066l.556 2.246.723.963 1.418-.417.945-1.5-.64-2.277 1.585-1.54-.876-1.913-2.085-1.783-2.128-1.139-3.614 2.657 2.822 2.815z" class="cls-1"/>
    </g>
</svg>
