<svg xmlns="http://www.w3.org/2000/svg" viewBox="0 0 67 67">
    <defs>
        <filter id="椭圆_1" width="67" height="67" x="0" y="0" filterUnits="userSpaceOnUse">
            <feOffset/>
            <feGaussianBlur result="blur" stdDeviation="2.5"/>
            <feFlood flood-color="#222" flood-opacity=".18"/>
            <feComposite in2="blur" operator="in"/>
            <feComposite in="SourceGraphic"/>
        </filter>
        <style>
            .cls-2{fill:#828ab0}
        </style>
    </defs>
    <g id="play-podcast" transform="translate(2.5 2.5)">
        <g filter="url(#椭圆_1)" transform="matrix(1, 0, 0, 1, -2.5, -2.5)">
            <circle id="椭圆_1-2" cx="26" cy="26" r="26" fill="#fff" transform="translate(7.5 7.5)"/>
        </g>
        <g id="组_27" transform="translate(168.435 -416.112)">
            <path id="路径_105" d="M-142.88 456.939a.577.577 0 0 1-.286-.076.577.577 0 0 1-.288-.5v-18.054a.571.571 0 0 1 .288-.5.563.563 0 0 1 .574 0l15.439 9.028a.571.571 0 0 1 .281.493.571.571 0 0 1-.281.493l-15.439 9.03a.571.571 0 0 1-.288.086zm.571-17.633v16.065l13.733-8.034z" class="cls-2" transform="translate(0.116 0.116)"/>
            <path id="路径_106" d="M-142.765 457.269a.8.8 0 0 1-.393-.1.787.787 0 0 1-.395-.683v-18.061a.787.787 0 0 1 .395-.683.788.788 0 0 1 .787 0l15.439 9.028a.788.788 0 0 1 .39.678.793.793 0 0 1-.39.678l-15.439 9.028a.77.77 0 0 1-.394.115zm0-19.2a.362.362 0 0 0-.177.046.361.361 0 0 0-.179.312v18.057a.355.355 0 0 0 .179.31.361.361 0 0 0 .358 0l15.439-9.03a.356.356 0 0 0 .177-.307.363.363 0 0 0-.177-.31l-15.439-9.028a.352.352 0 0 0-.183-.052zm.574 17.633a.23.23 0 0 1-.107-.028.215.215 0 0 1-.109-.185v-16.067a.215.215 0 0 1 .109-.188.214.214 0 0 1 .214 0l13.735 8.031a.217.217 0 0 1 .107.185.217.217 0 0 1-.107.185l-13.735 8.032a.209.209 0 0 1-.109.033zm.214-15.906v15.317l13.1-7.658z" class="cls-2" transform="translate(0 0)"/>
        </g>
    </g>
</svg>
